<svg xmlns="http://www.w3.org/2000/svg" width="590.209" height="397.972" viewBox="0 0 590.209 397.972">
  <g id="Aboutus_Illustration1_main" transform="translate(-1044 -558)">
    <g id="Group" transform="translate(1044 558)">
      <path id="Path" d="M229.746,57.016V43.779l-12.226,11.2-4.075-35.126L181.352,42.761,177.277,27.49l-11.207,11.2V20.363l-13.754,16.29L140.089,0,124.807,37.7,102.392,9.672l-16.81,38.18V29.525L75.9,47.343,69.28,23.417,50.942,51.925,22.924,16.8l-8.66,34.617L6.113,41.744,0,65.72H235.35l2.038-9.213-7.641.509Z" transform="translate(13.267 331.502)" fill="#f4f4f4"/>
      <path id="Path-2" data-name="Path" d="M0,.475H263.923" transform="translate(0 396.747)" fill="none" stroke="#000" stroke-miterlimit="10" stroke-width="1.5"/>
      <path id="Path-3" data-name="Path" d="M83.031,215.214,0,248.923V33.708L83.031,0V215.214Z" transform="translate(198.365 0)" fill="#edeeef"/>
      <path id="Path-4" data-name="Path" d="M83.031,248.923,0,215.214V0L83.031,33.708V248.923Z" transform="translate(281.396 0)" fill="#e2e2e2"/>
      <path id="Path-5" data-name="Path" d="M83.031,0,0,33.708" transform="translate(198.365 215.214)" fill="none" stroke="#000" stroke-miterlimit="10" stroke-width="1.5"/>
      <path id="Path-6" data-name="Path" d="M83.031,33.708,0,0" transform="translate(281.396 215.214)" fill="none" stroke="#000" stroke-miterlimit="10" stroke-width="1.5"/>
      <path id="Path-7" data-name="Path" d="M83.031,215.214,0,248.923V33.708L83.031,0V215.214Z" transform="translate(364.427 0)" fill="#ff6498"/>
      <path id="Path-8" data-name="Path" d="M77.25,232.834S68.131,49.642,59.164,0L0,7.944,30.835,242.16H83.1Z" transform="translate(114.616 153.023)" fill="#e2e2e2"/>
      <path id="Path-9" data-name="Path" d="M44.751,9.684C38.264-1.545,19.23-3.027,0,5.335L7.3,60.763a74.839,74.839,0,0,0,11.644-5.456C40.55,42.839,52.106,22.413,44.751,9.684Z" transform="translate(129.226 266.609)"/>
      <path id="Path-10" data-name="Path" d="M49.585,12.831s-6.649,69.328,33.942,87.861L0,147.74l17.833,43.483,6.42-14.97s104.859-16.4,110.565-57.74S101.825,0,101.825,0" transform="translate(46.156 159.36)" fill="#edeeef"/>
      <path id="Path-11" data-name="Path" d="M0,176.253s104.859-16.4,110.565-57.74S77.572,0,77.572,0" transform="translate(70.409 159.36)" fill="none" stroke="#000" stroke-miterlimit="10" stroke-width="1.5"/>
      <path id="Path-12" data-name="Path" d="M0,13.992v20.35l25.227,6.2V6.2L0,0V13.992Z" transform="translate(122.754 20.994)" fill="#edeeef"/>
      <ellipse id="Oval" cx="0.675" cy="0.674" rx="0.675" ry="0.674" transform="translate(136.33 40.679)"/>
      <ellipse id="Oval-2" data-name="Oval" cx="0.675" cy="0.674" rx="0.675" ry="0.674" transform="translate(125.97 40.679)"/>
      <path id="Path-13" data-name="Path" d="M5.208,10.388V0H0" transform="translate(124.476 34.986)" fill="none" stroke="#000" stroke-miterlimit="10" stroke-width="1.5"/>
      <path id="Path-14" data-name="Path" d="M5.207.475H0" transform="translate(133.068 34.511)" fill="none" stroke="#000" stroke-miterlimit="10" stroke-width="1.5"/>
      <path id="Path-15" data-name="Path" d="M.475.475h0" transform="translate(123.191 32.81)" fill="none" stroke="#000" stroke-miterlimit="10" stroke-width="1.5"/>
      <path id="Path-16" data-name="Path" d="M0,1.767V5.374A3.527,3.527,0,0,0,2.493,4.343,3.522,3.522,0,0,0,3.526,1.851q0-.162-.014-.321C3.314-.657,0-.43,0,1.767Z" transform="translate(146.319 38.541)" fill="#edeeef"/>
      <path id="Path-17" data-name="Path" d="M0,3.523A3.527,3.527,0,0,0,2.493,2.491,3.522,3.522,0,0,0,3.526,0" transform="translate(146.319 40.393)" fill="none" stroke="#000" stroke-miterlimit="10" stroke-width="1.5"/>
      <path id="Path-18" data-name="Path" d="M0,3.566A3.567,3.567,0,0,0,3.568,0" transform="translate(131.961 44.369)" fill="none" stroke="#ff6498" stroke-linecap="round" stroke-linejoin="round" stroke-miterlimit="10" stroke-width="1.5"/>
      <path id="Path-19" data-name="Path" d="M0,0,25.227,6.2" transform="translate(122.754 55.336)" fill="none" stroke="#000" stroke-miterlimit="10" stroke-width="1.5"/>
      <path id="Path-20" data-name="Path" d="M0,.028,2.278.587" transform="translate(129.684 45.354)" fill="none" stroke="#000" stroke-linecap="round" stroke-miterlimit="10" stroke-width="1.5"/>
      <path id="Path-21" data-name="Path" d="M1.814,17.744,0,0,30.2,3.089,27.142,21.3" transform="translate(120.94 17.242)" fill="none" stroke="#000" stroke-miterlimit="10" stroke-width="1.5"/>
      <path id="Path-22" data-name="Path" d="M0,0S7.759,7.05,18.142,5.624c0,0,.664,6.891,3.7,8.475" transform="translate(124.476 25.044)" fill="none" stroke="#000" stroke-miterlimit="10" stroke-width="1.5"/>
      <path id="Path-23" data-name="Path" d="M78.038,33.933v55.05L0,108.15V46.84A47.23,47.23,0,0,1,35.977.981h0A33.951,33.951,0,0,1,78.038,33.933Z" transform="translate(95.741 64.04)" fill="#ff6498"/>
      <path id="Path-24" data-name="Path" d="M32.574,0S-.47,29.47.005,69.39c.4,33.435,79.08,5.864,104.636-3.978a19.057,19.057,0,0,0,10.92-10.9l2.842-7.333,8.105-3.293V39.45L47.727,49.588l9.692-22.812" transform="translate(78.252 76.288)" fill="none" stroke="#000" stroke-miterlimit="10" stroke-width="1.5"/>
      <path id="Path-25" data-name="Path" d="M0,10.5c6.122,2.927,14.426,4.729,23.578,4.729,17.627,0,32.128-6.672,33.9-15.227C38.611,5.931,15.968,11.519,0,10.5Z" transform="translate(98.508 151.124)"/>
      <path id="Path-26" data-name="Path" d="M29.253,41.052c6.4-13.316,16.925-34,22.019-37.281A23.409,23.409,0,0,1,66.49.131V3.771L60.783,7.1s3.8,10.455-3.8,14.891c0,0-1.722,97.383-56.979,58.514" transform="translate(173.779 72.517)" fill="none" stroke="#000" stroke-miterlimit="10" stroke-width="1.5"/>
      <path id="Path-27" data-name="Path" d="M0,0,23.478,36.233" transform="translate(169.171 80.875)" fill="none" stroke="#000" stroke-miterlimit="10" stroke-width="1.5"/>
      <ellipse id="Oval-3" data-name="Oval" cx="35.862" cy="35.838" rx="35.862" ry="35.838" transform="translate(245.533 199.869)" fill="#ff6498"/>
      <path id="Path-28" data-name="Path" d="M35.862,0A35.85,35.85,0,0,1,0,35.838" transform="translate(281.396 235.707)" fill="none" stroke="#000" stroke-miterlimit="10" stroke-width="1.5"/>
      <path id="Path-29" data-name="Path" d="M0,27.328A27.338,27.338,0,0,1,27.347,0" transform="translate(254.049 208.378)" fill="none" stroke="#fff" stroke-miterlimit="10" stroke-width="1.5"/>
      <path id="Path-30" data-name="Path" d="M.475,0V125.678" transform="translate(280.921 271.545)" fill="none" stroke="#000" stroke-miterlimit="10" stroke-width="1.5"/>
      <path id="Path-31" data-name="Path" d="M0,.475H80.4" transform="translate(241.197 396.747)" fill="none" stroke="#000" stroke-miterlimit="10" stroke-width="1.5"/>
    </g>
    <g id="Group-2" data-name="Group" transform="translate(1441.669 581.033)">
      <path id="Path-32" data-name="Path" d="M92.965,0S29.2,109.276,7.864,217.385L0,222.011l37.606,12.46s83.305-125.651,88.284-141.6S122.334,0,122.334,0" transform="translate(0 132.571)" fill="#ff6498"/>
      <path id="Path-33" data-name="Path" d="M7.916,0S-2.317,52.462.486,85.219c10.735-17.267,19.453-31.931,22.7-38.969Z" transform="translate(101.562 181.999)"/>
      <path id="Path-34" data-name="Path" d="M0,13.961v20.3l25.153,6.182V6.182L0,0Z" transform="translate(111.413 0.837)" fill="#edeeef"/>
      <circle id="Oval-4" data-name="Oval" cx="0.673" cy="0.673" r="0.673" transform="translate(124.949 20.478)"/>
      <circle id="Oval-5" data-name="Oval" cx="0.673" cy="0.673" r="0.673" transform="translate(114.62 20.478)"/>
      <path id="Path-35" data-name="Path" d="M5.192,10.364V0H0" transform="translate(113.13 14.798)" fill="none" stroke="#000" stroke-linecap="round" stroke-linejoin="round" stroke-miterlimit="10" stroke-width="1.5"/>
      <path id="Path-36" data-name="Path" d="M5.192.6H0" transform="translate(121.697 14.197)" fill="none" stroke="#000" stroke-linecap="round" stroke-linejoin="round" stroke-miterlimit="10" stroke-width="1.5"/>
      <path id="Path-37" data-name="Path" d="M0,1.763v3.6A3.515,3.515,0,0,0,3.515,1.847q0-.162-.014-.32C3.3-.656,0-.429,0,1.763Z" transform="translate(134.91 18.345)" fill="#edeeef"/>
      <path id="Path-38" data-name="Path" d="M0,3.515A3.515,3.515,0,0,0,3.515,0" transform="translate(134.91 20.192)" fill="none" stroke="#000" stroke-linecap="round" stroke-linejoin="round" stroke-miterlimit="10" stroke-width="1.5"/>
      <path id="Path-39" data-name="Path" d="M0,0,4.7,1.154" transform="translate(131.87 40.13)" fill="none" stroke="#000" stroke-linecap="round" stroke-linejoin="round" stroke-miterlimit="10" stroke-width="1.5"/>
      <path id="Path-40" data-name="Path" d="M0,0,2.271.558" transform="translate(118.323 25.171)" fill="none" stroke="#000" stroke-linecap="round" stroke-linejoin="round" stroke-miterlimit="10" stroke-width="1.5"/>
      <path id="Path-41" data-name="Path" d="M1.81,0S-3.239,14.8,3.528,19.653,30.414,21.676,24.956,1.807" transform="translate(109.603 20.478)" fill="none" stroke="#000" stroke-linecap="round" stroke-linejoin="round" stroke-miterlimit="10" stroke-width="1.5"/>
      <path id="Path-42" data-name="Path" d="M.155,2.124A1.014,1.014,0,0,0,.948,3.676C2.4,4,4.6,1.137,6.5,2.7c0,0,.426-2.2,5.164-.884S14.779,0,14.779,0" transform="translate(114.246 23.311)" fill="none" stroke="#000" stroke-linecap="round" stroke-linejoin="round" stroke-miterlimit="10" stroke-width="1.5"/>
      <path id="Path-43" data-name="Path" d="M0,1.746A3.558,3.558,0,0,0,4.719,0" transform="translate(120.185 26.239)" fill="none" stroke="#ff6498" stroke-linecap="round" stroke-linejoin="round" stroke-miterlimit="10" stroke-width="1.5"/>
      <path id="Path-44" data-name="Path" d="M0,0S1.706,7.335,17.286,2.977c0,0,.942,3.995,3.624,4.176a2.711,2.711,0,0,1,2.57,2.863" transform="translate(109.603 7.644)" fill="none" stroke="#000" stroke-linecap="round" stroke-linejoin="round" stroke-miterlimit="10" stroke-width="1.5"/>
      <path id="Path-45" data-name="Path" d="M6.455,14.8S-9.808.768,9.294.057,38.738,5.269,31.71,18.351" transform="translate(104.958 0)" fill="none" stroke="#000" stroke-linecap="round" stroke-linejoin="round" stroke-miterlimit="10" stroke-width="1.5"/>
      <path id="Path-46" data-name="Path" d="M0,33.858V88.784l77.81,19.125V46.735A47.118,47.118,0,0,0,41.938.979h0A33.857,33.857,0,0,0,0,33.857Z" transform="translate(92.965 43.787)" fill="#edeeef"/>
      <path id="Path-47" data-name="Path" d="M61.439,15.035.266,0S-3.85,148.707,20.3,229.469l-4.017,8.06h40.1S64.361,47.57,61.439,15.035Z" transform="translate(109.337 136.66)" fill="#ff6498"/>
      <path id="Path-48" data-name="Path" d="M.266,0S-3.85,148.707,20.3,229.469" transform="translate(109.337 136.66)" fill="none" stroke="#000" stroke-linecap="round" stroke-linejoin="round" stroke-miterlimit="10" stroke-width="1.5"/>
      <path id="Path-49" data-name="Path" d="M0,0S46.8,27.634,45.379,73.63s-34.616,64.489-34.616,64.489" transform="translate(146.379 49.242)" fill="none" stroke="#000" stroke-linecap="round" stroke-linejoin="round" stroke-miterlimit="10" stroke-width="1.5"/>
      <path id="Path-50" data-name="Path" d="M0,0S6.876,25.132,18.493,30.348" transform="translate(144.813 161.992)" fill="none" stroke="#000" stroke-linecap="round" stroke-linejoin="round" stroke-miterlimit="10" stroke-width="1.5"/>
      <path id="Path-51" data-name="Path" d="M0,0,24.882,30.348,7.012,68.386" transform="translate(138.425 95.685)" fill="none" stroke="#000" stroke-linecap="round" stroke-linejoin="round" stroke-miterlimit="10" stroke-width="1.5"/>
      <path id="Path-52" data-name="Path" d="M2.787,57.956,19.08,23.272,0,0H0S11.625,34.789,2.787,57.956Z" transform="translate(144.226 102.76)"/>
      <path id="Path-53" data-name="Path" d="M99.105,25.869,65.76,52.278S27.323,3.3,18.831.7,0,3.548,0,3.548V6.764L9.833,8.552S8.384,20,14.642,25.361c0,0,19.4,70.9,48.525,71.128,19.916.152,27.341-5.374,27.341-5.374" transform="translate(2.457 29.228)" fill="none" stroke="#000" stroke-linecap="round" stroke-linejoin="round" stroke-miterlimit="10" stroke-width="1.5"/>
    </g>
  </g>
</svg>
