<svg version="1.2" baseProfile="tiny-ps" xmlns="http://www.w3.org/2000/svg" viewBox="0 0 558 531" width="558" height="531">
	<title>Betacrew_homepage_web</title>
	<style>
		tspan { white-space:pre }
		.shp0 { fill: none;stroke: #5185eb;stroke-width: 90 } 
		.shp1 { fill: #ff6498 } 
		.shp2 { fill: none;stroke: #000000;stroke-width: 1.5 } 
		.shp3 { fill: #ffffff } 
		.shp4 { fill: #e2e2e2 } 
		.shp5 { fill: #edeeef } 
		.shp6 { fill: #000000 } 
		.shp7 { fill: none;stroke: #ff6498;stroke-linecap:round;stroke-width: 1.5 } 
		.shp8 { fill: none;stroke: #000000;stroke-linecap:round;stroke-width: 1.5 } 
		.shp9 { fill: #d6d6d6 } 
	</style>
	<g id="Betacrew_homepage_web">
		<g id="Group 2914">
			<path id="Path 4646" class="shp0" d="M92.18 182.36C92.18 182.36 132.93 317.88 285.08 315.37C437.23 312.86 480.7 182.36 480.7 182.36" />
			<path id="Path" class="shp1" d="M389.34 49.43L386.27 55.65L379.41 56.64L384.38 61.48L383.21 68.31L389.34 65.09L395.48 68.31L394.3 61.48L399.27 56.64L392.41 55.65L389.34 49.43L389.34 49.43Z" />
			<path id="Path" class="shp2" d="M389.34 49.43L386.27 55.65L379.41 56.64L384.38 61.48L383.21 68.31L389.34 65.09L395.48 68.31" />
			<path id="Path" class="shp1" d="M361.95 49.43L358.88 55.65L352.02 56.64L356.98 61.48L355.81 68.31L361.95 65.09L368.08 68.31L366.91 61.48L371.88 56.64L365.02 55.65L361.95 49.43L361.95 49.43Z" />
			<path id="Path" class="shp2" d="M366.91 61.48L371.88 56.64" />
			<path id="Path" class="shp2" d="M361.95 49.43L358.88 55.65L352.02 56.64L356.98 61.48L355.81 68.31L361.95 65.09L368.08 68.31" />
			<path id="Path" class="shp1" d="M334.55 49.43L331.49 55.65L324.63 56.64L329.59 61.48L328.42 68.31L334.55 65.09L340.69 68.31L339.52 61.48L344.48 56.64L337.62 55.65L334.55 49.43L334.55 49.43Z" />
			<path id="Path" class="shp2" d="M339.52 61.48L344.48 56.64" />
			<path id="Path" class="shp2" d="M334.55 49.43L331.49 55.65L324.63 56.64L329.59 61.48L328.42 68.31L334.55 65.09L340.69 68.31" />
			<path id="Path" class="shp1" d="M307.16 49.43L304.09 55.65L297.23 56.64L302.2 61.48L301.03 68.31L307.16 65.09L313.3 68.31L312.13 61.48L317.09 56.64L310.23 55.65L307.16 49.43L307.16 49.43Z" />
			<path id="Path" class="shp2" d="M312.12 61.48L317.09 56.64" />
			<path id="Path" class="shp2" d="M307.16 49.43L304.09 55.65L297.23 56.64L302.2 61.48L301.03 68.31L307.16 65.09L313.3 68.31" />
			<path id="Path" class="shp1" d="M279.77 49.43L276.7 55.65L269.84 56.64L274.8 61.48L273.63 68.31L279.77 65.09L285.9 68.31L284.73 61.48L289.7 56.64L282.84 55.65L279.77 49.43L279.77 49.43Z" />
			<path id="Path" class="shp2" d="M284.73 61.48L289.7 56.64" />
			<path id="Path" class="shp2" d="M279.77 49.43L276.7 55.65L269.84 56.64L274.8 61.48L273.63 68.31L279.77 65.09L285.9 68.31" />
			<g id="Group 2830">
				<g id="Group">
					<path id="Path" class="shp2" d="M38.11 471.36L350.52 471.36" />
					<path id="Rectangle" class="shp3" d="M71.85 363.25L75.76 363.25L75.76 366.7L71.85 366.7L71.85 363.25Z" />
					<path id="Rectangle" class="shp3" d="M81.35 363.25L85.25 363.25L85.25 366.7L81.35 366.7L81.35 363.25Z" />
					<path id="Rectangle" class="shp3" d="M90.85 363.25L94.75 363.25L94.75 366.7L90.85 366.7L90.85 363.25Z" />
					<path id="Rectangle" class="shp3" d="M71.85 372.56L75.76 372.56L75.76 376.01L71.85 376.01L71.85 372.56Z" />
					<path id="Rectangle" class="shp3" d="M81.35 372.56L85.25 372.56L85.25 376.01L81.35 376.01L81.35 372.56Z" />
					<path id="Rectangle" class="shp3" d="M90.85 372.56L94.75 372.56L94.75 376.01L90.85 376.01L90.85 372.56Z" />
					<path id="Rectangle" class="shp3" d="M71.85 381.87L75.76 381.87L75.76 385.32L71.85 385.32L71.85 381.87Z" />
					<path id="Rectangle" class="shp3" d="M81.35 381.87L85.25 381.87L85.25 385.32L81.35 385.32L81.35 381.87Z" />
					<path id="Rectangle" class="shp3" d="M90.85 381.87L94.75 381.87L94.75 385.32L90.85 385.32L90.85 381.87Z" />
					<path id="Rectangle" class="shp3" d="M71.85 391.18L75.76 391.18L75.76 394.63L71.85 394.63L71.85 391.18Z" />
					<path id="Rectangle" class="shp3" d="M81.35 391.18L85.25 391.18L85.25 394.63L81.35 394.63L81.35 391.18Z" />
					<path id="Rectangle" class="shp3" d="M90.85 391.18L94.75 391.18L94.75 394.63L90.85 394.63L90.85 391.18Z" />
					<path id="Rectangle" class="shp3" d="M71.85 400.49L75.76 400.49L75.76 403.94L71.85 403.94L71.85 400.49Z" />
					<path id="Rectangle" class="shp3" d="M81.35 400.49L85.25 400.49L85.25 403.94L81.35 403.94L81.35 400.49Z" />
					<path id="Rectangle" class="shp3" d="M90.85 400.49L94.75 400.49L94.75 403.94L90.85 403.94L90.85 400.49Z" />
					<path id="Rectangle" class="shp3" d="M71.85 409.8L75.76 409.8L75.76 413.25L71.85 413.25L71.85 409.8Z" />
					<path id="Rectangle" class="shp3" d="M81.35 409.8L85.25 409.8L85.25 413.25L81.35 413.25L81.35 409.8Z" />
					<path id="Rectangle" class="shp3" d="M90.85 409.8L94.75 409.8L94.75 413.25L90.85 413.25L90.85 409.8Z" />
					<path id="Rectangle" class="shp3" d="M71.85 419.11L75.76 419.11L75.76 422.56L71.85 422.56L71.85 419.11Z" />
					<path id="Rectangle" class="shp3" d="M81.35 419.11L85.25 419.11L85.25 422.56L81.35 422.56L81.35 419.11Z" />
					<path id="Rectangle" class="shp3" d="M90.85 419.11L94.75 419.11L94.75 422.56L90.85 422.56L90.85 419.11Z" />
					<path id="Rectangle" class="shp3" d="M71.85 428.42L75.76 428.42L75.76 431.87L71.85 431.87L71.85 428.42Z" />
					<path id="Rectangle" class="shp3" d="M81.35 428.42L85.25 428.42L85.25 431.87L81.35 431.87L81.35 428.42Z" />
					<path id="Rectangle" class="shp3" d="M90.85 428.42L94.75 428.42L94.75 431.87L90.85 431.87L90.85 428.42Z" />
					<path id="Rectangle" class="shp3" d="M71.85 437.73L75.76 437.73L75.76 441.18L71.85 441.18L71.85 437.73Z" />
					<path id="Rectangle" class="shp3" d="M81.35 437.73L85.25 437.73L85.25 441.18L81.35 441.18L81.35 437.73Z" />
					<path id="Rectangle" class="shp3" d="M90.85 437.73L94.75 437.73L94.75 441.18L90.85 441.18L90.85 437.73Z" />
					<path id="Path" class="shp4" d="M155.75 243.17L119.37 237.51C119.37 237.51 92.57 365.4 106.95 460.81L102.71 470.22L150.91 470.22L164.59 324.69L155.75 243.17Z" />
					<path id="Path" class="shp5" d="M131.56 240.51C131.56 240.51 122.34 390.98 148.38 462.23L142.94 470.22L189.25 470.22C189.25 470.22 194.31 278.83 194.31 237.51L131.56 240.51Z" />
					<path id="Path" class="shp2" d="M131.56 240.51C131.56 240.51 122.34 390.98 148.38 462.23L142.94 470.22" />
					<path id="Path" class="shp5" d="M164.59 124.09L164.59 143.64L140.37 149.6L140.37 116.6L164.59 110.64L164.59 124.09L164.59 124.09Z" />
					<path id="Oval" class="shp6" d="M150.91 130.85C150.55 130.85 150.26 130.56 150.26 130.21C150.26 129.85 150.55 129.56 150.91 129.56C151.27 129.56 151.55 129.85 151.55 130.21C151.55 130.56 151.27 130.85 150.91 130.85Z" />
					<path id="Oval" class="shp6" d="M160.86 130.85C160.5 130.85 160.21 130.56 160.21 130.21C160.21 129.85 160.5 129.56 160.86 129.56C161.21 129.56 161.5 129.85 161.5 130.21C161.5 130.56 161.21 130.85 160.86 130.85Z" />
					<path id="Path" class="shp2" d="M157.94 134.07L157.94 124.09L162.94 124.09" />
					<path id="Path" class="shp2" d="M149.69 124.09L154.69 124.09" />
					<path id="Path" class="shp2" d="M163.72 122.45L163.72 122.45" />
					<path id="Path" class="shp5" d="M141.96 129.2L141.96 132.67C140.09 132.67 138.58 131.15 138.58 129.28C138.58 129.18 138.58 129.08 138.59 128.97C138.78 126.87 141.96 127.09 141.96 129.2Z" />
					<path id="Path" class="shp2" d="M141.96 132.67C140.09 132.67 138.58 131.15 138.58 129.28" />
					<path id="Path" class="shp7" d="M157.94 139.32C153.75 139.32 150.36 137.21 150.36 134.61" />
					<path id="Path" class="shp2" d="M164.59 143.64L140.37 149.6" />
					<path id="Path" class="shp8" d="M157.94 134.08L155.75 134.61" />
					<path id="Path" class="shp1" d="M119.37 184.62L119.37 237.51L194.31 255.93L194.31 197.02C194.31 176.13 180.05 157.94 159.76 152.95L159.76 152.95C150.04 150.56 139.75 152.77 131.86 158.95C123.98 165.13 119.37 174.6 119.37 184.61L119.37 184.62Z" />
					<path id="Path" class="shp2" d="M164.59 122.45C164.59 121.63 173.53 107.01 151.55 106.71C129.57 106.41 140.27 127.5 140.27 127.5" />
					<path id="Path" class="shp2" d="M141.96 125.02C141.96 125.02 145.18 120.22 145.41 118.28C145.41 118.28 161.13 118.51 163.72 114.85" />
					<path id="Path" class="shp6" d="M138.8 167.8L128.05 223.78L132.01 234.13L141.96 225.6L141.3 168.21L144.8 163.19L136.42 163.19L138.8 167.8L138.8 167.8Z" />
					<path id="Path" class="shp2" d="M179.18 163.19C179.18 163.19 267.8 249.35 172.35 303.7L162.15 287.71L182.86 234.13L162.94 206.42" />
					<path id="Path" class="shp2" d="M172.35 303.7L152.52 272.64" />
					<path id="Path" class="shp2" d="M125.19 166.01C125.19 166.01 81.69 233.46 111.42 284.64" />
					<path id="Path" class="shp2" d="M247.09 471.36L348.45 471.36" />
				</g>
				<path id="Oval" class="shp5" d="M462.98 198.11C431.48 198.11 406.02 172.65 406.02 141.15C406.02 109.65 431.48 84.19 462.98 84.19C494.48 84.19 519.94 109.65 519.94 141.15C519.94 172.65 494.48 198.11 462.98 198.11Z" />
				<path id="Path" class="shp2" d="M462.98 82.7L462.98 199.6" />
				<path id="Path" class="shp2" d="M521.43 141.15L404.53 141.15" />
				<path id="Path" class="shp2" d="M406.02 141.15C406.02 109.69 431.52 84.19 462.98 84.19" />
				<path id="Path" class="shp4" d="M402.79 462.29L402.79 347.06L371.39 317.59L367.96 471.36L409.94 471.36L402.79 462.29L402.79 462.29Z" />
				<path id="Path" class="shp5" d="M394.73 242.7L342.44 239.12L332.93 306.12L332.93 471.36L381.5 471.36L376.37 462.16L394.73 242.7L394.73 242.7Z" />
				<path id="Path" class="shp2" d="M381.5 471.36L376.37 462.16L394.73 242.7" />
				<path id="Path" class="shp1" d="M334.75 192.07L334.75 243.8L408.03 261.81L408.03 204.2C408.03 183.77 394.08 165.98 374.24 161.1L374.24 161.1C364.73 158.76 354.67 160.93 346.96 166.97C339.25 173.02 334.75 182.27 334.75 192.07L334.75 192.07Z" />
				<path id="Path" class="shp5" d="M349.26 132.88L349.26 141.13C349.26 147.51 353.61 153.07 359.81 154.59L372.95 157.82L372.95 125.55L362.03 122.87C358.95 122.11 355.7 122.81 353.2 124.77C350.71 126.72 349.26 129.71 349.26 132.88L349.26 132.88Z" />
				<path id="Path" class="shp2" d="M349.26 141.13C349.26 147.51 353.61 153.07 359.81 154.59L372.95 157.82" />
				<path id="Oval" class="shp6" d="M362.64 139.49C362.29 139.49 362.01 139.21 362.01 138.86C362.01 138.51 362.29 138.23 362.64 138.23C362.99 138.23 363.27 138.51 363.27 138.86C363.27 139.21 362.99 139.49 362.64 139.49Z" />
				<path id="Oval" class="shp6" d="M352.91 139.49C352.56 139.49 352.28 139.21 352.28 138.86C352.28 138.51 352.56 138.23 352.91 138.23C353.26 138.23 353.54 138.51 353.54 138.86C353.54 139.21 353.26 139.49 352.91 139.49Z" />
				<path id="Path" class="shp2" d="M355.76 142.64L355.76 132.88L350.87 132.88" />
				<path id="Path" class="shp2" d="M363.83 132.88L358.94 132.88" />
				<path id="Path" class="shp2" d="M350.11 131.28L350.11 131.28" />
				<path id="Path" class="shp5" d="M371.39 137.88L371.39 141.27C373.22 141.27 374.7 139.79 374.7 137.96C374.7 137.86 374.69 137.76 374.68 137.66C374.5 135.6 371.39 135.82 371.39 137.88Z" />
				<path id="Path" class="shp2" d="M371.39 141.27C373.22 141.27 374.7 139.79 374.7 137.96" />
				<path id="Path" class="shp7" d="M358.44 143.78C359.3 144.64 360.68 144.64 361.54 143.78" />
				<path id="Path" class="shp8" d="M355.76 142.65L357.9 143.17" />
				<path id="Path" class="shp2" d="M349.26 130.16C349.26 130.16 356.19 129.28 357.9 125.92C357.9 125.92 360.07 129.42 363.27 129.12C363.27 129.12 365.13 132.92 368.41 132.25C368.41 132.25 368.15 135.81 371.39 136.57" />
				<path id="Path" class="shp2" d="M349.26 136.57C349.26 136.57 335.36 128.38 348.31 119.59C361.26 110.81 369.89 119 369.89 119C369.89 119 378.23 121.34 378.38 126.05C378.38 126.05 382.1 130.16 380.91 134.03C380.91 134.03 385.57 146.24 373.04 150.11" />
				<path id="Path" class="shp7" d="M373.04 151.9C374.7 151.7 376.28 151.09 377.64 150.11" />
				<path id="Path" class="shp2" d="M372.95 154.8L372.95 165.72C372.91 169.82 375.84 173.33 379.88 174.02C381.39 174.34 382.96 173.92 384.11 172.89C388.06 169.17 386.12 160.31 382.7 158.15C382.86 155.66 381.47 153.32 379.2 152.27" />
				<path id="Path" class="shp1" d="M334.75 243.8L276.85 342.15C276.85 342.15 347.17 368.34 408.03 357.03L408.03 250.15" />
				<path id="Path" class="shp2" d="M394.73 172.52C394.73 172.52 415.78 190.79 418.46 214.46C418.46 214.46 422.45 152.79 423.78 150.11C425.12 147.43 427.36 160.16 427.36 160.16C427.36 160.16 443.88 165.74 435.4 177.8C435.4 177.8 458.37 249.26 408.03 256.4" />
				<path id="Path" class="shp2" d="M349.26 165.33C349.26 165.33 331.64 174.23 317.64 206.38C317.64 206.38 294.42 168.82 278.04 163.19C261.67 157.56 258.39 156.9 257.8 157.82C257.2 158.75 266.13 165.3 266.13 165.3C266.13 165.3 261.67 179.21 275.37 181.93C275.37 181.93 277.48 241.52 303.51 249.85C329.55 258.19 352.91 223.95 352.91 223.95" />
			</g>
			<path id="Path" class="shp5" d="M78.31 20.41C62.27 20.41 48.55 13.55 42.91 3.84C37.27 13.55 23.55 20.41 7.52 20.41C5.21 20.41 2.9 20.26 0.61 19.97L0.61 72.98C0.61 85.52 7.3 97.11 18.16 103.38L42.91 117.67L67.66 103.38C78.52 97.11 85.21 85.52 85.21 72.98L85.21 19.97C82.92 20.26 80.61 20.41 78.31 20.41Z" />
			<path id="Path" class="shp9" d="M67.66 103.38C78.52 97.11 85.21 85.52 85.21 72.98L85.21 19.97C82.92 20.26 80.61 20.41 78.31 20.41C62.27 20.41 48.55 13.55 42.91 3.84L42.91 117.67L67.66 103.38Z" />
			<path id="Path" class="shp2" d="M42.91 117.67L67.66 103.38C78.52 97.11 85.21 85.52 85.21 72.98L85.21 19.97C82.92 20.26 80.61 20.41 78.31 20.41C62.27 20.41 48.55 13.55 42.91 3.84" />
			<path id="Rectangle" class="shp1" d="M25.53 63.12L28.06 60.59L40.99 73.51L38.46 76.04L25.53 63.12Z" />
			<path id="Rectangle" class="shp1" d="M63.97 45.47L66.5 48L38.46 76.04L35.92 73.51L63.97 45.47Z" />
		</g>
	</g>
</svg>