<svg version="1.2" baseProfile="tiny-ps" xmlns="http://www.w3.org/2000/svg" viewBox="0 0 129 114" width="129" height="114">
	<title>Betacrew_howitworks_web</title>
	<style>
		tspan { white-space:pre }
		.shp0 { fill: #ff6498 } 
	</style>
	<g id="Betacrew_howitworks_web">
		<g id="Group 2941">
			<g id="chat-bubble">
				<g id="Group 2876">
					<g id="Group 2875">
						<path id="Path 4715" fill-rule="evenodd" class="shp0" d="M128.62 34.49L128.62 85.79C128.62 89.32 125.75 92.19 122.22 92.19L117.94 92.19L117.94 111.42C117.94 112.29 117.42 113.07 116.62 113.4C116.36 113.51 116.08 113.56 115.8 113.56C115.25 113.56 114.7 113.34 114.29 112.93L93.55 92.19L45.28 92.19C41.75 92.19 38.87 89.32 38.87 85.79L38.87 34.49C38.87 30.95 41.75 28.08 45.28 28.08L122.22 28.08C125.75 28.08 128.62 30.95 128.62 34.49ZM124.35 85.79L124.35 34.49C124.35 33.31 123.4 32.35 122.22 32.35L45.28 32.35C44.1 32.35 43.15 33.31 43.15 34.49L43.15 85.79C43.15 86.96 44.1 87.92 45.28 87.92L94.43 87.92C95 87.92 95.55 88.14 95.95 88.54L113.67 106.26L113.67 90.05C113.67 88.87 114.63 87.92 115.8 87.92L122.22 87.92C123.39 87.92 124.35 86.96 124.35 85.79Z" />
					</g>
				</g>
				<g id="Group 2878">
					<g id="Group 2877">
						<path id="Path 4716" fill-rule="evenodd" class="shp0" d="M90.16 6.7L90.16 30.22C90.16 31.4 89.2 32.35 88.02 32.35L45.28 32.35C44.1 32.35 43.15 33.31 43.15 34.49L43.15 62.27C43.15 63.45 42.19 64.41 41.01 64.41L35.49 64.41L14.74 85.15C14.33 85.56 13.79 85.78 13.23 85.78C12.95 85.78 12.68 85.73 12.41 85.62C11.61 85.29 11.09 84.51 11.09 83.64L11.09 64.41L6.81 64.41C3.28 64.41 0.41 61.54 0.41 58L0.41 6.7C0.41 3.17 3.28 0.3 6.81 0.3L83.76 0.3C87.29 0.3 90.16 3.17 90.16 6.7ZM85.89 6.7C85.89 5.53 84.93 4.57 83.76 4.57L6.81 4.57C5.64 4.57 4.68 5.53 4.68 6.7L4.68 58C4.68 59.18 5.64 60.14 6.81 60.14L13.23 60.14C14.41 60.14 15.37 61.09 15.37 62.27L15.37 78.48L33.09 60.76C33.49 60.36 34.03 60.14 34.6 60.14L38.87 60.14L38.87 34.49C38.87 30.95 41.75 28.08 45.28 28.08L85.89 28.08L85.89 6.7Z" />
					</g>
				</g>
				<g id="Group 2880">
					<g id="Group 2879">
						<path id="Path 4717" fill-rule="evenodd" class="shp0" d="M94.43 60.14C94.43 66.03 89.64 70.82 83.75 70.82C77.86 70.82 73.07 66.03 73.07 60.14C73.07 54.24 77.86 49.45 83.75 49.45C89.64 49.45 94.43 54.24 94.43 60.14ZM90.16 60.14C90.16 56.6 87.28 53.72 83.75 53.72C80.22 53.72 77.34 56.6 77.34 60.14C77.34 63.67 80.22 66.55 83.75 66.55C87.28 66.55 90.16 63.67 90.16 60.14Z" />
					</g>
				</g>
				<g id="Group 2882">
					<g id="Group 2881">
						<path id="Path 4718" fill-rule="evenodd" class="shp0" d="M120.08 60.14C120.08 66.03 115.28 70.82 109.39 70.82C103.5 70.82 98.71 66.03 98.71 60.14C98.71 54.24 103.5 49.45 109.39 49.45C115.28 49.45 120.08 54.24 120.08 60.14ZM115.8 60.14C115.8 56.6 112.93 53.72 109.39 53.72C105.86 53.72 102.98 56.6 102.98 60.14C102.98 63.67 105.86 66.55 109.39 66.55C112.93 66.55 115.8 63.67 115.8 60.14Z" />
					</g>
				</g>
				<g id="Group 2884">
					<g id="Group 2883">
						<path id="Path 4719" fill-rule="evenodd" class="shp0" d="M68.79 60.14C68.79 66.03 64 70.82 58.11 70.82C52.21 70.82 47.42 66.03 47.42 60.14C47.42 54.24 52.21 49.45 58.11 49.45C64 49.45 68.79 54.24 68.79 60.14ZM64.52 60.14C64.52 56.6 61.64 53.72 58.11 53.72C54.57 53.72 51.69 56.6 51.69 60.14C51.69 63.67 54.57 66.55 58.11 66.55C61.64 66.55 64.52 63.67 64.52 60.14Z" />
					</g>
				</g>
			</g>
		</g>
	</g>
</svg>