<svg version="1.2" baseProfile="tiny-ps" xmlns="http://www.w3.org/2000/svg" viewBox="0 0 124 107" width="124" height="107">
	<title>Betacrew_howitworks_web</title>
	<style>
		tspan { white-space:pre }
		.shp0 { fill: #ff6498 } 
	</style>
	<g id="Betacrew_howitworks_web">
		<g id="Group 2941">
			<g id="exchange (1)">
				<path id="Path 4671" fill-rule="evenodd" class="shp0" d="M54.61 55.82L2.47 55.82C1.5 55.82 0.72 55.14 0.72 54.3L0.72 44.46C0.72 37.06 7.63 31.06 16.15 31.05L40.92 31.05C49.45 31.06 56.35 37.06 56.36 44.46L56.36 54.3C56.36 55.14 55.58 55.82 54.61 55.82ZM4.22 52.78L52.86 52.78L52.86 44.46C52.85 38.74 47.51 34.1 40.92 34.09L16.15 34.09C9.56 34.1 4.23 38.74 4.22 44.46L4.22 52.78Z" />
				<path id="Path 4672" fill-rule="evenodd" class="shp0" d="M28.54 27.16C19.96 27.16 13 21.12 13 13.67C13 6.22 19.96 0.18 28.54 0.18C37.12 0.18 44.08 6.22 44.08 13.67C44.07 21.12 37.12 27.16 28.54 27.16ZM16.5 13.67C16.5 19.45 21.89 24.12 28.54 24.12C35.19 24.12 40.58 19.45 40.58 13.67C40.57 7.91 35.18 3.23 28.54 3.22C21.89 3.22 16.5 7.9 16.5 13.67Z" />
				<path id="Path 4673" class="shp0" d="M42.74 55.82L14.35 55.82C13.38 55.82 12.6 55.14 12.6 54.3L12.6 47.49C12.6 46.65 13.38 45.97 14.35 45.97C15.32 45.97 16.1 46.65 16.1 47.49L16.1 52.78L40.99 52.78L40.99 47.49C40.99 46.65 41.77 45.97 42.74 45.97C43.71 45.97 44.49 46.65 44.49 47.49L44.49 54.3C44.49 55.14 43.71 55.82 42.74 55.82Z" />
				<path id="Path 4674" class="shp0" d="M115.61 86.95C115.26 86.95 114.92 86.86 114.63 86.69C113.86 86.23 113.04 85.86 112.18 85.57C111.28 85.27 110.83 84.39 111.18 83.61C111.52 82.82 112.54 82.43 113.44 82.74C114.55 83.11 115.61 83.59 116.59 84.17C117.23 84.55 117.51 85.24 117.28 85.88C117.05 86.52 116.37 86.95 115.61 86.95L115.61 86.95Z" />
				<path id="Path 4675" class="shp0" d="M121.53 106.6L69.39 106.6C68.42 106.6 67.64 105.92 67.64 105.09L67.64 95.24C67.65 87.83 74.56 81.84 83.08 81.83L104.63 81.83C105.6 81.83 106.39 82.51 106.39 83.35C106.39 84.19 105.6 84.87 104.63 84.87L83.08 84.87C76.49 84.87 71.15 89.51 71.14 95.24L71.14 103.57L119.78 103.57L119.78 95.24C119.78 94.01 119.53 92.8 119.05 91.66C118.71 90.87 119.18 90 120.09 89.7C120.99 89.41 122 89.82 122.33 90.6C122.96 92.09 123.29 93.65 123.28 95.24L123.28 105.09C123.28 105.92 122.5 106.6 121.53 106.6Z" />
				<path id="Path 4676" fill-rule="evenodd" class="shp0" d="M95.47 77.94C86.89 77.94 79.93 71.9 79.93 64.45C79.93 57 86.89 50.96 95.47 50.96C104.05 50.96 111.01 57 111.01 64.45C111 71.9 104.05 77.93 95.47 77.94ZM95.47 54C88.82 54 83.43 58.68 83.43 64.45C83.43 70.22 88.82 74.9 95.47 74.9C102.12 74.9 107.51 70.22 107.51 64.45C107.5 58.68 102.12 54 95.47 53.99L95.47 54Z" />
				<path id="Path 4677" class="shp0" d="M109.66 106.6L81.27 106.6C80.31 106.6 79.53 105.92 79.53 105.08L79.53 98.27C79.53 97.43 80.31 96.75 81.27 96.75C82.24 96.75 83.03 97.43 83.03 98.27L83.03 103.56L107.91 103.56L107.91 98.27C107.91 97.43 108.69 96.75 109.66 96.75C110.62 96.75 111.41 97.43 111.41 98.27L111.41 105.08C111.41 105.92 110.62 106.6 109.66 106.6Z" />
				<path id="Path 4678" class="shp0" d="M102.42 38.82C101.45 38.82 100.67 38.14 100.67 37.3L100.67 28.18C100.66 21.05 94 15.27 85.79 15.26L71.78 15.26C70.81 15.26 70.03 14.58 70.03 13.74C70.03 12.9 70.81 12.22 71.78 12.22L85.79 12.22C95.94 12.23 104.16 19.37 104.17 28.18L104.17 37.3C104.17 38.14 103.39 38.82 102.42 38.82Z" />
				<path id="Path 4679" class="shp0" d="M78.63 21.21C78.17 21.22 77.72 21.06 77.4 20.77L70.54 14.82C69.85 14.22 69.85 13.26 70.54 12.67L77.41 6.72C77.83 6.28 78.51 6.09 79.15 6.23C79.79 6.36 80.29 6.79 80.44 7.35C80.6 7.91 80.38 8.49 79.88 8.86L74.26 13.74L79.88 18.62C80.37 19.06 80.53 19.71 80.25 20.28C79.98 20.84 79.35 21.21 78.64 21.21L78.63 21.21Z" />
				<path id="Path 4680" class="shp0" d="M52.23 94.56L38.22 94.56C28.07 94.55 19.84 87.41 19.83 78.6L19.83 69.48C19.83 68.64 20.62 67.96 21.58 67.96C22.55 67.96 23.33 68.64 23.33 69.48L23.33 78.6C23.34 85.73 30 91.51 38.22 91.52L52.23 91.52C53.19 91.52 53.98 92.2 53.98 93.04C53.98 93.88 53.19 94.56 52.23 94.56Z" />
				<path id="Path 4681" class="shp0" d="M45.37 100.51C44.66 100.5 44.04 100.13 43.77 99.57C43.5 99.01 43.65 98.36 44.14 97.93L49.74 93.04L44.14 88.16C43.46 87.57 43.46 86.61 44.14 86.01C44.82 85.42 45.93 85.42 46.62 86.01L53.47 91.97C54.16 92.56 54.16 93.52 53.47 94.11L46.61 100.07C46.28 100.35 45.83 100.51 45.37 100.51L45.37 100.51Z" />
			</g>
		</g>
	</g>
</svg>