<svg version="1.2" baseProfile="tiny-ps" xmlns="http://www.w3.org/2000/svg" viewBox="0 0 98 119" width="98" height="119">
	<title>Betacrew_howitworks_web</title>
	<style>
		tspan { white-space:pre }
		.shp0 { fill: #ff6498 } 
	</style>
	<g id="Betacrew_howitworks_web">
		<g id="Group 2941">
			<g id="files">
				<g id="Group 2856">
					<g id="Group 2855">
						<path id="Path 4697" fill-rule="evenodd" class="shp0" d="M97.14 21.98L97.14 112.74C97.14 116.01 94.2 118.66 90.58 118.66L7.42 118.66C3.8 118.66 0.86 116.01 0.86 112.74L0.86 6.19C0.86 2.92 3.8 0.27 7.42 0.27L73.07 0.27L73.07 0.29C73.65 0.28 74.21 0.48 74.62 0.85L96.5 20.58C96.9 20.95 97.13 21.46 97.12 21.98L97.14 21.98ZM92.76 23.95L77.45 23.95C73.82 23.95 70.88 21.3 70.88 18.03L70.88 4.22L7.42 4.22C6.21 4.22 5.23 5.1 5.23 6.19L5.23 112.74C5.23 113.83 6.21 114.71 7.42 114.71L90.58 114.71C91.79 114.71 92.76 113.83 92.76 112.74L92.76 23.95ZM75.26 18.03C75.26 19.12 76.24 20 77.45 20L89.67 20L75.26 7.01L75.26 18.03Z" />
					</g>
				</g>
				<g id="Group 2858">
					<g id="Group 2857">
						<path id="Path 4698" fill-rule="evenodd" class="shp0" d="M29.31 59.47C29.31 62.74 26.37 65.39 22.74 65.39C19.11 65.39 16.17 62.74 16.17 59.47C16.17 56.2 19.11 53.55 22.74 53.55C26.37 53.55 29.31 56.2 29.31 59.47ZM24.93 59.47C24.93 58.38 23.95 57.49 22.74 57.49C21.53 57.49 20.55 58.38 20.55 59.47C20.55 60.56 21.53 61.44 22.74 61.44C23.95 61.44 24.93 60.56 24.93 59.47Z" />
					</g>
				</g>
				<g id="Group 2860">
					<g id="Group 2859">
						<path id="Rectangle 646" class="shp0" d="M37.89 57.8L81.4 57.8L81.4 61.14L37.89 61.14L37.89 57.8Z" />
					</g>
				</g>
				<g id="Group 2862">
					<g id="Group 2861">
						<path id="Path 4699" fill-rule="evenodd" class="shp0" d="M29.31 39.74C29.31 43 26.37 45.65 22.74 45.65C19.11 45.65 16.17 43 16.17 39.74C16.17 36.47 19.11 33.82 22.74 33.82C26.37 33.82 29.31 36.47 29.31 39.74ZM24.93 39.74C24.93 38.65 23.95 37.76 22.74 37.76C21.53 37.76 20.55 38.65 20.55 39.74C20.55 40.83 21.53 41.71 22.74 41.71C23.95 41.71 24.93 40.83 24.93 39.74Z" />
					</g>
				</g>
				<g id="Group 2864">
					<g id="Group 2863">
						<path id="Rectangle 647" class="shp0" d="M37.89 37.76L81.4 37.76L81.4 41.94L37.89 41.94L37.89 37.76Z" />
					</g>
				</g>
				<g id="Group 2866">
					<g id="Group 2865">
						<path id="Path 4700" fill-rule="evenodd" class="shp0" d="M29.31 79.2C29.31 82.47 26.37 85.12 22.74 85.12C19.11 85.12 16.17 82.47 16.17 79.2C16.17 75.93 19.11 73.28 22.74 73.28C26.37 73.28 29.31 75.93 29.31 79.2ZM24.93 79.2C24.93 78.11 23.95 77.22 22.74 77.22C21.53 77.22 20.55 78.11 20.55 79.2C20.55 80.29 21.53 81.17 22.74 81.17C23.95 81.17 24.93 80.29 24.93 79.2Z" />
					</g>
				</g>
				<g id="Group 2868">
					<g id="Group 2867">
						<path id="Rectangle 648" class="shp0" d="M37.89 77L81.4 77L81.4 81.17L37.89 81.17L37.89 77Z" />
					</g>
				</g>
				<g id="Group 2870">
					<g id="Group 2869">
						<path id="Path 4701" fill-rule="evenodd" class="shp0" d="M29.31 98.93C29.31 102.2 26.37 104.85 22.74 104.85C19.11 104.85 16.17 102.2 16.17 98.93C16.17 95.66 19.11 93.01 22.74 93.01C26.37 93.01 29.31 95.66 29.31 98.93ZM24.93 98.93C24.93 97.84 23.95 96.96 22.74 96.96C21.53 96.96 20.55 97.84 20.55 98.93C20.55 100.02 21.53 100.9 22.74 100.9C23.95 100.9 24.93 100.02 24.93 98.93Z" />
					</g>
				</g>
				<g id="Group 2872">
					<g id="Group 2871">
						<path id="Rectangle 649" class="shp0" d="M37.89 97.03L81.4 97.03L81.4 101.21L37.89 101.21L37.89 97.03Z" />
					</g>
				</g>
			</g>
		</g>
	</g>
</svg>