<svg version="1.2" baseProfile="tiny-ps" xmlns="http://www.w3.org/2000/svg" viewBox="0 0 121 107" width="121" height="107">
	<title>Betacrew_howitworks_web</title>
	<style>
		tspan { white-space:pre }
		.shp0 { fill: #ff6498 } 
	</style>
	<g id="Betacrew_howitworks_web">
		<g id="Group 2941">
			<g id="line-graph">
				<path id="Path 4682" fill-rule="evenodd" class="shp0" d="M121 19.96L121 71.86C121 78.49 115.06 83.88 107.76 83.88L75.15 83.88L75.15 89.62L80.89 95.66L83.01 95.66C85.84 95.66 88.14 97.75 88.14 100.32L88.14 101.95C88.14 104.52 85.84 106.61 83.01 106.61L38.26 106.61C35.43 106.61 33.13 104.52 33.13 101.95L33.13 100.32C33.13 97.75 35.43 95.66 38.26 95.66L40.62 95.66L46.36 89.62L46.36 83.88L13.51 83.88C6.21 83.88 0.27 78.49 0.27 71.86L0.27 19.96C0.27 13.33 6.21 7.93 13.51 7.93L32.09 7.93C33.07 7.93 33.86 8.66 33.86 9.54C33.86 10.43 33.07 11.15 32.09 11.15L13.51 11.15C8.16 11.15 3.82 15.1 3.82 19.96L3.82 70.25L89.5 70.25C90.48 70.25 91.27 70.97 91.27 71.86C91.27 72.75 90.48 73.47 89.5 73.47L3.98 73.47C4.82 77.55 8.77 80.66 13.51 80.66L53.91 80.66C54.89 80.66 55.69 81.38 55.69 82.27C55.69 83.16 54.89 83.88 53.91 83.88L49.9 83.88L49.9 90.22C49.9 90.61 49.75 90.98 49.47 91.27L45.3 95.66L76.21 95.66L72.04 91.27C71.76 90.98 71.61 90.61 71.61 90.22L71.61 83.88L61.47 83.88C60.49 83.88 59.69 83.16 59.69 82.27C59.69 81.38 60.49 80.66 61.47 80.66L107.76 80.66C112.5 80.66 116.45 77.55 117.29 73.47L97.05 73.47C96.07 73.47 95.28 72.75 95.28 71.86C95.28 70.97 96.07 70.25 97.05 70.25L117.45 70.25L117.45 19.96C117.45 15.1 113.11 11.15 107.76 11.15L89.42 11.15C88.44 11.15 87.65 10.43 87.65 9.54C87.65 8.66 88.44 7.93 89.42 7.93L107.76 7.93C115.06 7.93 121 13.33 121 19.96ZM83.01 98.88L38.26 98.88C37.38 98.88 36.67 99.52 36.67 100.32L36.67 101.95C36.67 102.74 37.38 103.39 38.26 103.39L83.01 103.39C83.89 103.39 84.6 102.74 84.6 101.95L84.6 100.32C84.6 99.52 83.89 98.88 83.01 98.88Z" />
				<path id="Path 4683" fill-rule="evenodd" class="shp0" d="M33.88 25.1C32.9 25.02 32.18 24.26 32.26 23.39C32.88 17.07 36.12 11.22 41.38 6.91C46.67 2.57 53.55 0.18 60.75 0.18C76.52 0.18 89.35 11.59 89.35 25.62C89.35 35.41 83.1 43.92 73.97 48.17L78.83 52.26C79.82 51.73 80.97 51.43 82.2 51.43C83.45 51.43 84.62 51.74 85.61 52.28L98.52 41.55C98.05 40.75 97.79 39.84 97.79 38.87C97.79 35.65 100.73 33.03 104.35 33.03C107.97 33.03 110.92 35.65 110.92 38.87C110.92 42.09 107.97 44.71 104.35 44.71C103.1 44.71 101.94 44.4 100.94 43.86L88.03 54.58C88.5 55.39 88.77 56.3 88.77 57.27C88.77 60.49 85.82 63.11 82.2 63.11C78.58 63.11 75.64 60.49 75.64 57.27C75.64 56.29 75.91 55.36 76.39 54.55L70.44 49.55C67.42 50.52 64.15 51.05 60.75 51.05C54.02 51.05 47.73 48.95 42.77 45.39L29.08 55.02C29.41 55.71 29.59 56.47 29.59 57.27C29.59 60.49 26.64 63.11 23.02 63.11C19.4 63.11 16.45 60.49 16.45 57.27C16.45 54.05 19.4 51.43 23.02 51.43C24.46 51.43 25.79 51.84 26.88 52.55L40.13 43.23C36.43 39.81 33.77 35.46 32.69 30.55C32.5 29.69 33.13 28.86 34.09 28.7C35.05 28.53 35.98 29.08 36.17 29.94C38.47 40.35 48.81 47.9 60.75 47.9C63.09 47.9 65.36 47.61 67.51 47.08L58.62 39.61C57.64 40.14 56.48 40.44 55.25 40.44C53.81 40.44 52.47 40.03 51.39 39.33L49.8 40.44C49.48 40.67 49.09 40.78 48.7 40.78C48.18 40.78 47.66 40.58 47.31 40.18C46.7 39.5 46.84 38.51 47.6 37.97L49.19 36.85C48.86 36.16 48.68 35.4 48.68 34.6C48.68 31.38 51.63 28.76 55.25 28.76C58.87 28.76 61.82 31.38 61.82 34.6C61.82 35.58 61.54 36.51 61.06 37.32L71.22 45.86C79.32 42.54 85.09 35.49 85.75 27.19L60.75 27.19C60.16 27.19 59.61 26.93 59.28 26.49L45.46 7.97C44.88 8.37 44.32 8.78 43.78 9.23C39.17 13.01 36.33 18.13 35.79 23.66C35.71 24.53 34.85 25.17 33.88 25.1ZM55.25 37.29C56.92 37.29 58.27 36.08 58.27 34.6C58.27 33.12 56.92 31.91 55.25 31.91C53.58 31.91 52.22 33.12 52.22 34.6C52.22 36.08 53.58 37.29 55.25 37.29ZM26.04 57.27C26.04 55.79 24.69 54.58 23.02 54.58C21.35 54.58 20 55.79 20 57.27C20 58.75 21.35 59.96 23.02 59.96C24.69 59.96 26.04 58.75 26.04 57.27ZM101.33 38.87C101.33 40.35 102.69 41.56 104.35 41.56C106.02 41.56 107.38 40.35 107.38 38.87C107.38 37.38 106.02 36.18 104.35 36.18C102.69 36.18 101.33 37.38 101.33 38.87ZM84.4 55.42C83.85 54.91 83.07 54.58 82.2 54.58C81.34 54.58 80.57 54.9 80.01 55.42C80.01 55.42 80.01 55.42 80.01 55.42C80.01 55.42 80.01 55.42 80.01 55.43C79.5 55.91 79.18 56.56 79.18 57.27C79.18 58.75 80.54 59.96 82.2 59.96C83.87 59.96 85.23 58.75 85.23 57.27C85.23 56.56 84.92 55.92 84.42 55.44C84.41 55.44 84.41 55.44 84.41 55.44C84.41 55.43 84.4 55.43 84.4 55.42ZM60.75 3.34C56.38 3.34 52.14 4.34 48.41 6.22L61.7 24.04L85.75 24.04C84.83 12.49 73.97 3.34 60.75 3.34Z" />
			</g>
		</g>
	</g>
</svg>