<svg width="517" height="178" xmlns="http://www.w3.org/2000/svg" xmlns:xlink="http://www.w3.org/1999/xlink" xmlns:svgjs="http://svgjs.com/svgjs" viewBox="0 206 517 178"><svg width="123" height="121" xmlns="http://www.w3.org/2000/svg" xmlns:xlink="http://www.w3.org/1999/xlink" xmlns:svgjs="http://svgjs.com/svgjs" viewBox="0 0.272 123 120.456" fill="none" stroke-miterlimit="100" stroke="#000" y="263"><svg xmlns="http://www.w3.org/2000/svg" xmlns:xlink="http://www.w3.org/1999/xlink" width="123" height="121" viewBox="17 0.989 122.545 120.01"><path paint-order="stroke fill markers" d="M17 1.25h77.027S105.45-1.81 105.45 13.039c0 14.847-.55 68.189 0 70.663.55 2.475 1.65 6.874 12.923 6.05 11.273-.826 17.872-1.1 19.522 2.474.247.536.458 1.041.608 1.439 1.042 2.746 1.042 4.335 1.042 4.335v23H17V1.25"/></svg></svg><svg width="6" height="6" xmlns="http://www.w3.org/2000/svg" xmlns:xlink="http://www.w3.org/1999/xlink" xmlns:svgjs="http://svgjs.com/svgjs" fill="#93b1e6" x="85" y="291"><svg xmlns="http://www.w3.org/2000/svg" xmlns:xlink="http://www.w3.org/1999/xlink" width="6" height="6" viewBox="0.268 0.5 5.5 5.5"><path paint-order="stroke fill markers" fill-rule="evenodd" d="M3.017 6C1.497 6 .267 4.77.267 3.25S1.498.5 3.018.5c1.521 0 2.75 1.23 2.75 2.75S4.539 6 3.018 6z"/></svg></svg><svg width="7" height="6" xmlns="http://www.w3.org/2000/svg" xmlns:xlink="http://www.w3.org/1999/xlink" xmlns:svgjs="http://svgjs.com/svgjs" viewBox="0.5 0 6 6" fill="#4076ee" x="109" y="349"><svg xmlns="http://www.w3.org/2000/svg" xmlns:xlink="http://www.w3.org/1999/xlink" width="7" height="6" viewBox="0.518 0.25 5.5 5.5"><path paint-order="stroke fill markers" fill-rule="evenodd" d="M3.268 5.75C1.747 5.75.518 4.52.518 3c0-1.521 1.229-2.75 2.75-2.75 1.52 0 2.75 1.229 2.75 2.75 0 1.52-1.23 2.75-2.75 2.75z"/></svg></svg><svg width="29" height="22" xmlns="http://www.w3.org/2000/svg" xmlns:xlink="http://www.w3.org/1999/xlink" xmlns:svgjs="http://svgjs.com/svgjs" viewBox="0.224 0 28.551 22" fill="none" stroke-miterlimit="100" stroke="#000" x="161" y="212"><svg xmlns="http://www.w3.org/2000/svg" xmlns:xlink="http://www.w3.org/1999/xlink" width="29" height="22" viewBox="0.843 0.322 27.863 21.469"><path paint-order="stroke fill markers" d="M.843 21.792S7.443 1.078 14.408.345c6.966-.733 7.699 16.314 7.699 16.314s2.566-9.348 6.599-10.448L.843 21.79"/></svg></svg><svg width="13" height="11" xmlns="http://www.w3.org/2000/svg" xmlns:xlink="http://www.w3.org/1999/xlink" xmlns:svgjs="http://svgjs.com/svgjs" viewBox="0 0.006 13 10.988" fill="#5185eb" stroke-miterlimit="100" stroke="#000" x="262" y="207"><svg xmlns="http://www.w3.org/2000/svg" xmlns:xlink="http://www.w3.org/1999/xlink" width="13" height="11" viewBox="0.302 0.373 11.711 9.898"><path paint-order="stroke fill markers" fill-rule="evenodd" d="M.465.373h8.799v4.4c0 1.557 2.75 5.498 2.75 5.498h-8.89S.831 7.613.464 5.871c-.367-1.74 0-5.498 0-5.498z"/></svg></svg><svg width="54" height="89" xmlns="http://www.w3.org/2000/svg" xmlns:xlink="http://www.w3.org/1999/xlink" xmlns:svgjs="http://svgjs.com/svgjs" viewBox="148 242 54 89" x="148" y="242"><svg width="27" height="49" xmlns="http://www.w3.org/2000/svg" xmlns:xlink="http://www.w3.org/1999/xlink" xmlns:svgjs="http://svgjs.com/svgjs" viewBox="0.302 0 26.397 49" fill="#e2e2e2" x="166" y="273"><svg xmlns="http://www.w3.org/2000/svg" xmlns:xlink="http://www.w3.org/1999/xlink" width="27" height="49" viewBox="0.614 0.966 25.592 47.506"><path paint-order="stroke fill markers" fill-rule="evenodd" d="M9.736.966l-9.122.585 10.52 18.678-7.893 21.792 10.126 6.451-.098-3.227s6.871-7.45 12.097-24.237C30.59 4.219 9.736.966 9.736.966z"/></svg></svg><svg width="12" height="19" xmlns="http://www.w3.org/2000/svg" xmlns:xlink="http://www.w3.org/1999/xlink" xmlns:svgjs="http://svgjs.com/svgjs" viewBox="0 0.03 12 18.939" x="175" y="289"><svg xmlns="http://www.w3.org/2000/svg" xmlns:xlink="http://www.w3.org/1999/xlink" width="12" height="19" viewBox="0.508 0.894 11.325 17.875"><path paint-order="stroke fill markers" fill-rule="evenodd" d="M8.435 2.006L2.208.894l-1.57.678 1.497 2.657L.508 8.72s6.656 2.705 10.39 10.05c.309-.618.62-1.264.936-1.939-1.006-5.473-3.4-14.824-3.4-14.824z"/></svg></svg><svg width="45" height="45" xmlns="http://www.w3.org/2000/svg" xmlns:xlink="http://www.w3.org/1999/xlink" xmlns:svgjs="http://svgjs.com/svgjs" viewBox="0.434 0 44.132 45" fill="#edeeef" x="157" y="275"><svg xmlns="http://www.w3.org/2000/svg" xmlns:xlink="http://www.w3.org/1999/xlink" width="45" height="45" viewBox="0.374 0.298 43.79 44.652"><path paint-order="stroke fill markers" fill-rule="evenodd" d="M42.37 39.576S40.336.172 13.317.298L.492 3.45s-3.188 17.486 23.494 16.485l9.672 25.015 10.506-3.67-1.793-1.704z"/></svg></svg><svg width="30" height="40" xmlns="http://www.w3.org/2000/svg" xmlns:xlink="http://www.w3.org/1999/xlink" xmlns:svgjs="http://svgjs.com/svgjs" viewBox="0.206 0 29.588 40" fill="none" stroke-miterlimit="100" stroke-linecap="round" stroke="#000" stroke-width="1.5" x="170" y="275"><svg xmlns="http://www.w3.org/2000/svg" xmlns:xlink="http://www.w3.org/1999/xlink" width="30" height="40" viewBox="0.316 0.298 29.054 39.278"><path paint-order="stroke fill markers" d="M29.37 39.576S27.336.172.317.298l29.055 39.278"/></svg></svg><svg width="34" height="42" xmlns="http://www.w3.org/2000/svg" xmlns:xlink="http://www.w3.org/1999/xlink" xmlns:svgjs="http://svgjs.com/svgjs" viewBox="0.157 0 33.686 42" fill="none" stroke-miterlimit="100" stroke-linecap="round" stroke="#000" stroke-width="1.5" x="157" y="278"><svg xmlns="http://www.w3.org/2000/svg" xmlns:xlink="http://www.w3.org/1999/xlink" width="34" height="42" viewBox="0.374 0.45 33.284 41.5"><path paint-order="stroke fill markers" d="M.492.45s-3.188 17.486 23.494 16.485l9.672 25.015L.492.45"/></svg></svg><svg width="7" height="10" xmlns="http://www.w3.org/2000/svg" xmlns:xlink="http://www.w3.org/1999/xlink" xmlns:svgjs="http://svgjs.com/svgjs" viewBox="0.391 0 6.219 10" fill="#edeeef" x="163" y="243"><svg xmlns="http://www.w3.org/2000/svg" xmlns:xlink="http://www.w3.org/1999/xlink" width="7" height="10" viewBox="0.665 0.079 5.898 9.484"><path paint-order="stroke fill markers" fill-rule="evenodd" d="M6.563 3.352v4.761L.665 9.563V1.529L6.563.079v3.273z"/></svg></svg><svg width="1" height="1" xmlns="http://www.w3.org/2000/svg" xmlns:xlink="http://www.w3.org/1999/xlink" xmlns:svgjs="http://svgjs.com/svgjs" x="166" y="247"><svg xmlns="http://www.w3.org/2000/svg" xmlns:xlink="http://www.w3.org/1999/xlink" width="1" height="1" viewBox="0.074 0.684 0.315 0.315"><path paint-order="stroke fill markers" fill-rule="evenodd" d="M.231 1a.157.157 0 1 1 0-.315.157.157 0 0 1 0 .314z"/></svg></svg><svg width="1" height="1" xmlns="http://www.w3.org/2000/svg" xmlns:xlink="http://www.w3.org/1999/xlink" xmlns:svgjs="http://svgjs.com/svgjs" x="168" y="247"><svg xmlns="http://www.w3.org/2000/svg" xmlns:xlink="http://www.w3.org/1999/xlink" width="1" height="1" viewBox="0.496 0.684 0.315 0.315"><path paint-order="stroke fill markers" fill-rule="evenodd" d="M.653 1a.157.157 0 1 1 0-.315.157.157 0 0 1 0 .314z"/></svg></svg><svg width="3" height="3" xmlns="http://www.w3.org/2000/svg" xmlns:xlink="http://www.w3.org/1999/xlink" xmlns:svgjs="http://svgjs.com/svgjs" viewBox="0.749 0 1.503 3" fill="none" stroke-miterlimit="100" stroke-linecap="round" stroke="#000" stroke-width="1.5" x="167" y="246"><svg xmlns="http://www.w3.org/2000/svg" xmlns:xlink="http://www.w3.org/1999/xlink" width="3" height="3" viewBox="0.943 0.352 1.217 2.43"><path paint-order="stroke fill markers" d="M.943 2.783V.353H2.16L.943 2.782"/></svg></svg><svg width="2" height="0" xmlns="http://www.w3.org/2000/svg" xmlns:xlink="http://www.w3.org/1999/xlink" xmlns:svgjs="http://svgjs.com/svgjs" fill="none" stroke-miterlimit="100" stroke-linecap="round" stroke="#000" stroke-width="1.5" x="165" y="246"><svg xmlns="http://www.w3.org/2000/svg" xmlns:xlink="http://www.w3.org/1999/xlink" width="2" height="0"><path paint-order="stroke fill markers" d="M.934.352h0"/></svg></svg><svg width="2" height="2" xmlns="http://www.w3.org/2000/svg" xmlns:xlink="http://www.w3.org/1999/xlink" xmlns:svgjs="http://svgjs.com/svgjs" viewBox="0.344 0 1.311 2" fill="#edeeef" x="163" y="247"><svg xmlns="http://www.w3.org/2000/svg" xmlns:xlink="http://www.w3.org/1999/xlink" width="2" height="2" viewBox="0.229 0.184 0.824 1.257"><path paint-order="stroke fill markers" fill-rule="evenodd" d="M1.054.598v.843A.824.824 0 0 1 .233.542c.046-.512.82-.458.82.056z"/></svg></svg><svg width="2" height="2" xmlns="http://www.w3.org/2000/svg" xmlns:xlink="http://www.w3.org/1999/xlink" xmlns:svgjs="http://svgjs.com/svgjs" viewBox="0 0 2 1.999" fill="none" stroke-miterlimit="100" stroke-linecap="round" stroke="#000" stroke-width="1.5" x="163" y="247"><svg xmlns="http://www.w3.org/2000/svg" xmlns:xlink="http://www.w3.org/1999/xlink" width="2" height="2" viewBox="0.229 0.617 0.824 0.824"><path paint-order="stroke fill markers" d="M1.054 1.441A.824.824 0 0 1 .229.617l.825.824"/></svg></svg><svg width="2" height="2" xmlns="http://www.w3.org/2000/svg" xmlns:xlink="http://www.w3.org/1999/xlink" xmlns:svgjs="http://svgjs.com/svgjs" fill="none" stroke-miterlimit="100" stroke-linecap="round" stroke="#ff6498" stroke-width="1.5" x="166" y="248"><svg xmlns="http://www.w3.org/2000/svg" xmlns:xlink="http://www.w3.org/1999/xlink" width="2" height="2" viewBox="0.576 0.547 0.834 0.834"><path paint-order="stroke fill markers" d="M1.41 1.382A.834.834 0 0 1 .577.547l.835.835"/></svg></svg><svg width="7" height="2" xmlns="http://www.w3.org/2000/svg" xmlns:xlink="http://www.w3.org/1999/xlink" xmlns:svgjs="http://svgjs.com/svgjs" viewBox="0 0.14 7 1.721" fill="none" stroke-miterlimit="100" stroke-linecap="round" stroke="#000" stroke-width="1.5" x="163" y="251"><svg xmlns="http://www.w3.org/2000/svg" xmlns:xlink="http://www.w3.org/1999/xlink" width="7" height="2" viewBox="0.665 0.113 5.898 1.45"><path paint-order="stroke fill markers" d="M6.563.113L.665 1.563 6.563.113"/></svg></svg><svg width="1" height="1" xmlns="http://www.w3.org/2000/svg" xmlns:xlink="http://www.w3.org/1999/xlink" xmlns:svgjs="http://svgjs.com/svgjs" viewBox="0 0.377 1 0.246" fill="none" stroke-miterlimit="100" stroke-linecap="round" stroke="#000" stroke-width="1.5" x="167" y="248"><svg xmlns="http://www.w3.org/2000/svg" xmlns:xlink="http://www.w3.org/1999/xlink" width="1" height="1" viewBox="0.411 0.785 0.532 0.131"><path paint-order="stroke fill markers" d="M.943.785L.41.915l.532-.13"/></svg></svg><svg width="19" height="26" xmlns="http://www.w3.org/2000/svg" xmlns:xlink="http://www.w3.org/1999/xlink" xmlns:svgjs="http://svgjs.com/svgjs" viewBox="0.126 0 18.748 26" fill="#ff6498" x="157" y="253"><svg xmlns="http://www.w3.org/2000/svg" xmlns:xlink="http://www.w3.org/1999/xlink" width="19" height="26" viewBox="0.492 0.149 18.244 25.301"><path paint-order="stroke fill markers" fill-rule="evenodd" d="M18.736 8.088v12.878L.492 25.45V11.107C.492 6.022 3.964 1.593 8.903.38a7.938 7.938 0 0 1 9.833 7.709z"/></svg></svg><svg width="9" height="6" xmlns="http://www.w3.org/2000/svg" xmlns:xlink="http://www.w3.org/1999/xlink" xmlns:svgjs="http://svgjs.com/svgjs" viewBox="0.057 0 8.886 6" fill="none" stroke-miterlimit="100" stroke-linecap="round" stroke="#000" stroke-width="1.5" x="162" y="242"><svg xmlns="http://www.w3.org/2000/svg" xmlns:xlink="http://www.w3.org/1999/xlink" width="9" height="6" viewBox="0.808 0.138 7.509 5.07"><path paint-order="stroke fill markers" d="M2.054 5.184a4.8 4.8 0 0 0 .943-1.901s3.499 1.153 4.933-.778c.65-.876.348-1.73.043-2.235a.263.263 0 0 0-.45-.009C7.38.51 7.044.714 6.262.42 4.943-.075 2.198.087 1.76 1.754c0 0-1.946.542-.274 3.454l.568-.024"/></svg></svg><svg width="21" height="24" xmlns="http://www.w3.org/2000/svg" xmlns:xlink="http://www.w3.org/1999/xlink" xmlns:svgjs="http://svgjs.com/svgjs" viewBox="0.022 0 20.955 24" fill="none" stroke-miterlimit="100" stroke-linecap="round" stroke="#000" stroke-width="1.5" x="152" y="255"><svg xmlns="http://www.w3.org/2000/svg" xmlns:xlink="http://www.w3.org/1999/xlink" width="21" height="24" viewBox="0.289 0.305 20.398 23.362"><path paint-order="stroke fill markers" d="M9.863.305S2.343 6.481.453 16.463c-1.89 9.981 13.096 7.583 20.234 4.645L9.863.305"/></svg></svg><svg width="19" height="6" xmlns="http://www.w3.org/2000/svg" xmlns:xlink="http://www.w3.org/1999/xlink" xmlns:svgjs="http://svgjs.com/svgjs" viewBox="0 0.365 19 5.269" fill="none" stroke-miterlimit="100" stroke-linecap="round" stroke="#000" stroke-width="1.5" x="160" y="270"><svg xmlns="http://www.w3.org/2000/svg" xmlns:xlink="http://www.w3.org/1999/xlink" width="19" height="6" viewBox="0.402 0.272 18.122 5.026"><path paint-order="stroke fill markers" d="M.402.87s16.955-2.997 18.122 4.428L.402.87"/></svg></svg><svg width="13" height="21" xmlns="http://www.w3.org/2000/svg" xmlns:xlink="http://www.w3.org/1999/xlink" xmlns:svgjs="http://svgjs.com/svgjs" viewBox="0.021 0 12.959 21" fill="none" stroke-miterlimit="100" stroke-linecap="round" stroke="#000" stroke-width="1.5" x="173" y="255"><svg xmlns="http://www.w3.org/2000/svg" xmlns:xlink="http://www.w3.org/1999/xlink" width="13" height="21" viewBox="0.236 0.305 12.337 19.992"><path paint-order="stroke fill markers" d="M.236.305S5.557 5.796 6.961 15.87c0 0 5.396.185 5.612 4.428L.236.305"/></svg></svg><svg width="28" height="43" xmlns="http://www.w3.org/2000/svg" xmlns:xlink="http://www.w3.org/1999/xlink" xmlns:svgjs="http://svgjs.com/svgjs" viewBox="0.35 0 27.301 43" fill="none" stroke-miterlimit="100" stroke-linecap="round" stroke="#000" stroke-width="1.5" x="148" y="256"><svg xmlns="http://www.w3.org/2000/svg" xmlns:xlink="http://www.w3.org/1999/xlink" width="28" height="43" viewBox="0.634 0.11 26.875 42.329"><path paint-order="stroke fill markers" d="M10.724 2.56s-2.419-5.022-4.42-.686-10.746 32.91-1.518 37.69c9.228 4.78 22.722 2.155 22.722 2.155L10.724 2.559"/></svg></svg><svg width="12" height="33" xmlns="http://www.w3.org/2000/svg" xmlns:xlink="http://www.w3.org/1999/xlink" xmlns:svgjs="http://svgjs.com/svgjs" viewBox="0.356 0 11.287 33" fill="none" stroke-miterlimit="100" stroke-linecap="round" stroke="#000" stroke-width="1.5" x="154" y="298"><svg xmlns="http://www.w3.org/2000/svg" xmlns:xlink="http://www.w3.org/1999/xlink" width="12" height="33" viewBox="0.304 0.439 11.006 32.178"><path paint-order="stroke fill markers" d="M11.31.439v32.178H.304L11.31.439"/></svg></svg></svg><svg width="6" height="6" xmlns="http://www.w3.org/2000/svg" xmlns:xlink="http://www.w3.org/1999/xlink" xmlns:svgjs="http://svgjs.com/svgjs" fill="#ff6498" x="95" y="349"><svg xmlns="http://www.w3.org/2000/svg" xmlns:xlink="http://www.w3.org/1999/xlink" width="6" height="6" viewBox="0.018 0.25 5.5 5.5"><path paint-order="stroke fill markers" fill-rule="evenodd" d="M2.767 5.75C1.247 5.75.017 4.52.017 3c0-1.521 1.23-2.75 2.75-2.75 1.521 0 2.75 1.229 2.75 2.75 0 1.52-1.229 2.75-2.75 2.75z"/></svg></svg><svg width="6" height="7" xmlns="http://www.w3.org/2000/svg" xmlns:xlink="http://www.w3.org/1999/xlink" xmlns:svgjs="http://svgjs.com/svgjs" viewBox="0 0.5 6 6" fill="#2a539c" stroke-miterlimit="100" stroke="#000" x="205" y="206"><svg xmlns="http://www.w3.org/2000/svg" xmlns:xlink="http://www.w3.org/1999/xlink" width="6" height="7" viewBox="0.106 0.823 5.5 5.5"><path paint-order="stroke fill markers" fill-rule="evenodd" d="M2.857 6.323c-1.521 0-2.75-1.23-2.75-2.75S1.335.823 2.856.823c1.52 0 2.75 1.23 2.75 2.75s-1.23 2.75-2.75 2.75z"/></svg></svg><svg width="30" height="30" xmlns="http://www.w3.org/2000/svg" xmlns:xlink="http://www.w3.org/1999/xlink" xmlns:svgjs="http://svgjs.com/svgjs" viewBox="0 0.381 30 29.237" fill="#fff" stroke-miterlimit="100" stroke="#000" x="282" y="212"><svg xmlns="http://www.w3.org/2000/svg" xmlns:xlink="http://www.w3.org/1999/xlink" width="30" height="30" viewBox="0.356 0.323 29.5 28.75"><path paint-order="stroke fill markers" fill-rule="evenodd" d="M15.107 29.073c-8.157 0-14.75-6.426-14.75-14.375C.356 6.748 6.95.323 15.106.323c8.156 0 14.75 6.426 14.75 14.375 0 7.95-6.594 14.375-14.75 14.375z"/></svg></svg><svg width="40" height="79" xmlns="http://www.w3.org/2000/svg" xmlns:xlink="http://www.w3.org/1999/xlink" xmlns:svgjs="http://svgjs.com/svgjs" viewBox="282 264 40 79" x="282" y="264"><svg width="27" height="49" xmlns="http://www.w3.org/2000/svg" xmlns:xlink="http://www.w3.org/1999/xlink" xmlns:svgjs="http://svgjs.com/svgjs" viewBox="0.183 0 26.635 49" fill="#ff6498" x="282" y="292"><svg xmlns="http://www.w3.org/2000/svg" xmlns:xlink="http://www.w3.org/1999/xlink" width="27" height="49" viewBox="0.262 0.276 26.354 48.484"><path paint-order="stroke fill markers" fill-rule="evenodd" d="M19.485.276S6.3 22.872 1.888 45.226l-1.626.957 7.776 2.577s17.226-25.982 18.256-29.281C27.323 16.18 25.558.276 25.558.276h-6.073"/></svg></svg><svg width="6" height="19" xmlns="http://www.w3.org/2000/svg" xmlns:xlink="http://www.w3.org/1999/xlink" xmlns:svgjs="http://svgjs.com/svgjs" viewBox="0.415 0 5.17 19" x="303" y="302"><svg xmlns="http://www.w3.org/2000/svg" xmlns:xlink="http://www.w3.org/1999/xlink" width="6" height="19" viewBox="0.263 0.496 4.795 17.622"><path paint-order="stroke fill markers" fill-rule="evenodd" d="M1.9.496S-.216 11.344.363 18.118c2.22-3.57 4.023-6.603 4.695-8.058L1.9.496z"/></svg></svg><svg width="6" height="9" xmlns="http://www.w3.org/2000/svg" xmlns:xlink="http://www.w3.org/1999/xlink" xmlns:svgjs="http://svgjs.com/svgjs" viewBox="0.202 0 5.597 9" fill="#edeeef" x="305" y="265"><svg xmlns="http://www.w3.org/2000/svg" xmlns:xlink="http://www.w3.org/1999/xlink" width="6" height="9" viewBox="0.3 0.036 5.201 8.364"><path paint-order="stroke fill markers" fill-rule="evenodd" d="M.3 2.922v4.199l5.201 1.278V1.314L.3.036v2.886z"/></svg></svg><svg width="1" height="1" xmlns="http://www.w3.org/2000/svg" xmlns:xlink="http://www.w3.org/1999/xlink" xmlns:svgjs="http://svgjs.com/svgjs" viewBox="0 0 0.999 1" x="308" y="269"><svg xmlns="http://www.w3.org/2000/svg" xmlns:xlink="http://www.w3.org/1999/xlink" width="1" height="1" viewBox="0.099 0.097 0.278 0.278"><path paint-order="stroke fill markers" fill-rule="evenodd" d="M.238.375a.139.139 0 1 1 0-.278.139.139 0 0 1 0 .278z"/></svg></svg><svg width="2" height="1" xmlns="http://www.w3.org/2000/svg" xmlns:xlink="http://www.w3.org/1999/xlink" xmlns:svgjs="http://svgjs.com/svgjs" viewBox="0.5 0 0.999 1" x="305" y="269"><svg xmlns="http://www.w3.org/2000/svg" xmlns:xlink="http://www.w3.org/1999/xlink" width="2" height="1" viewBox="0.963 0.097 0.278 0.278"><path paint-order="stroke fill markers" fill-rule="evenodd" d="M1.102.375a.139.139 0 1 1 0-.278.139.139 0 0 1 0 .278z"/></svg></svg><svg width="2" height="4" xmlns="http://www.w3.org/2000/svg" xmlns:xlink="http://www.w3.org/1999/xlink" xmlns:svgjs="http://svgjs.com/svgjs" viewBox="0 0.004 2 3.992" fill="none" stroke-miterlimit="100" stroke-linecap="round" stroke="#000" stroke-width="1.5" x="305" y="267"><svg xmlns="http://www.w3.org/2000/svg" xmlns:xlink="http://www.w3.org/1999/xlink" width="2" height="4" viewBox="0.655 0.922 1.074 2.143"><path paint-order="stroke fill markers" d="M1.729 3.065V.922H.655L1.73 3.065"/></svg></svg><svg width="2" height="0" xmlns="http://www.w3.org/2000/svg" xmlns:xlink="http://www.w3.org/1999/xlink" xmlns:svgjs="http://svgjs.com/svgjs" fill="none" stroke-miterlimit="100" stroke-linecap="round" stroke="#000" stroke-width="1.5" x="307" y="267"><svg xmlns="http://www.w3.org/2000/svg" xmlns:xlink="http://www.w3.org/1999/xlink" width="2" height="0"><path paint-order="stroke fill markers" d="M1.5.922H.426 1.5"/></svg></svg><svg width="1" height="2" xmlns="http://www.w3.org/2000/svg" xmlns:xlink="http://www.w3.org/1999/xlink" xmlns:svgjs="http://svgjs.com/svgjs" viewBox="0 0.237 1 1.526" fill="#edeeef" x="310" y="268"><svg xmlns="http://www.w3.org/2000/svg" xmlns:xlink="http://www.w3.org/1999/xlink" width="1" height="2" viewBox="0.159 0.656 0.727 1.109"><path paint-order="stroke fill markers" fill-rule="evenodd" d="M.159 1.02v.745A.727.727 0 0 0 .883.972C.842.52.159.567.159 1.02z"/></svg></svg><svg width="1" height="1" xmlns="http://www.w3.org/2000/svg" xmlns:xlink="http://www.w3.org/1999/xlink" xmlns:svgjs="http://svgjs.com/svgjs" fill="none" stroke-miterlimit="100" stroke-linecap="round" stroke="#000" stroke-width="1.5" x="310" y="269"><svg xmlns="http://www.w3.org/2000/svg" xmlns:xlink="http://www.w3.org/1999/xlink" width="1" height="1" viewBox="0.159 0.038 0.727 0.727"><path paint-order="stroke fill markers" d="M.159.765A.727.727 0 0 0 .886.038L.159.765"/></svg></svg><svg width="2" height="1" xmlns="http://www.w3.org/2000/svg" xmlns:xlink="http://www.w3.org/1999/xlink" xmlns:svgjs="http://svgjs.com/svgjs" viewBox="0 0.254 2 0.492" fill="none" stroke-miterlimit="100" stroke-linecap="round" stroke="#000" stroke-width="1.5" x="309" y="273"><svg xmlns="http://www.w3.org/2000/svg" xmlns:xlink="http://www.w3.org/1999/xlink" width="2" height="1" viewBox="0.53 0.161 0.971 0.239"><path paint-order="stroke fill markers" d="M.53.16l.971.24-.97-.24"/></svg></svg><svg width="2" height="1" xmlns="http://www.w3.org/2000/svg" xmlns:xlink="http://www.w3.org/1999/xlink" xmlns:svgjs="http://svgjs.com/svgjs" viewBox="0 0.254 2 0.492" fill="none" stroke-miterlimit="100" stroke-linecap="round" stroke="#000" stroke-width="1.5" x="306" y="270"><svg xmlns="http://www.w3.org/2000/svg" xmlns:xlink="http://www.w3.org/1999/xlink" width="2" height="1" viewBox="0.729 0.067 0.469 0.115"><path paint-order="stroke fill markers" d="M.729.067l.47.116-.47-.116"/></svg></svg><svg width="7" height="5" xmlns="http://www.w3.org/2000/svg" xmlns:xlink="http://www.w3.org/1999/xlink" xmlns:svgjs="http://svgjs.com/svgjs" viewBox="0.52 0 5.959 5" fill="none" stroke-miterlimit="100" stroke-linecap="round" stroke="#000" stroke-width="1.5" x="304" y="269"><svg xmlns="http://www.w3.org/2000/svg" xmlns:xlink="http://www.w3.org/1999/xlink" width="7" height="5" viewBox="0.926 0.097 5.352 4.491"><path paint-order="stroke fill markers" d="M1.3.097S.256 3.158 1.655 4.16c1.4 1.002 5.56.418 4.431-3.69L1.3.096"/></svg></svg><svg width="4" height="2" xmlns="http://www.w3.org/2000/svg" xmlns:xlink="http://www.w3.org/1999/xlink" xmlns:svgjs="http://svgjs.com/svgjs" viewBox="0 0.508 4 0.984" fill="none" stroke-miterlimit="100" stroke-linecap="round" stroke="#000" stroke-width="1.5" x="305" y="269"><svg xmlns="http://www.w3.org/2000/svg" xmlns:xlink="http://www.w3.org/1999/xlink" width="4" height="2" viewBox="0.886 0.683 3.112 0.765"><path paint-order="stroke fill markers" d="M.918 1.122a.21.21 0 0 0 .164.32c.3.068.755-.524 1.149-.202 0 0 .088-.455 1.067-.183.98.272.644-.374.644-.374l-3.024.44"/></svg></svg><svg width="2" height="1" xmlns="http://www.w3.org/2000/svg" xmlns:xlink="http://www.w3.org/1999/xlink" xmlns:svgjs="http://svgjs.com/svgjs" viewBox="0 0.061 2 0.878" fill="none" stroke-miterlimit="100" stroke-linecap="round" stroke="#ff6498" stroke-width="1.5" x="307" y="270"><svg xmlns="http://www.w3.org/2000/svg" xmlns:xlink="http://www.w3.org/1999/xlink" width="2" height="1" viewBox="0.114 0.288 0.976 0.429"><path paint-order="stroke fill markers" d="M.114.65c.37.169.806.007.976-.362L.114.649"/></svg></svg><svg width="6" height="3" xmlns="http://www.w3.org/2000/svg" xmlns:xlink="http://www.w3.org/1999/xlink" xmlns:svgjs="http://svgjs.com/svgjs" viewBox="0 0.22 6 2.559" fill="none" stroke-miterlimit="100" stroke-linecap="round" stroke="#000" stroke-width="1.5" x="304" y="266"><svg xmlns="http://www.w3.org/2000/svg" xmlns:xlink="http://www.w3.org/1999/xlink" width="6" height="3" viewBox="0.926 0.443 4.856 2.071"><path paint-order="stroke fill markers" d="M.926.443S1.278 1.96 4.5 1.06c0 0 .195.826.75.863.554.038.531.592.531.592L.926.444"/></svg></svg><svg width="8" height="5" xmlns="http://www.w3.org/2000/svg" xmlns:xlink="http://www.w3.org/1999/xlink" xmlns:svgjs="http://svgjs.com/svgjs" viewBox="0 0.336 8 4.328" fill="none" stroke-miterlimit="100" stroke-linecap="round" stroke="#000" stroke-width="1.5" x="303" y="264"><svg xmlns="http://www.w3.org/2000/svg" xmlns:xlink="http://www.w3.org/1999/xlink" width="8" height="5" viewBox="0.965 0.862 7.014 3.795"><path paint-order="stroke fill markers" d="M2.3 3.922s-3.363-2.9.587-3.048c3.95-.147 6.088 1.078 4.635 3.783L2.3 3.922"/></svg></svg><svg width="17" height="24" xmlns="http://www.w3.org/2000/svg" xmlns:xlink="http://www.w3.org/1999/xlink" xmlns:svgjs="http://svgjs.com/svgjs" viewBox="0 0.212 17 23.575" fill="#edeeef" x="301" y="273"><svg xmlns="http://www.w3.org/2000/svg" xmlns:xlink="http://www.w3.org/1999/xlink" width="17" height="24" viewBox="0.485 0.917 16.09 22.313"><path paint-order="stroke fill markers" fill-rule="evenodd" d="M.485 7.918v11.358l16.09 3.954V10.58a9.743 9.743 0 0 0-7.418-9.46A7 7 0 0 0 .485 7.917z"/></svg></svg><svg width="14" height="50" xmlns="http://www.w3.org/2000/svg" xmlns:xlink="http://www.w3.org/1999/xlink" xmlns:svgjs="http://svgjs.com/svgjs" viewBox="0.466 0 13.068 50" fill="#ff6498" x="304" y="293"><svg xmlns="http://www.w3.org/2000/svg" xmlns:xlink="http://www.w3.org/1999/xlink" width="14" height="50" viewBox="0.871 0.121 12.838 49.116"><path paint-order="stroke fill markers" fill-rule="evenodd" d="M13.575 3.23L.925.121s-.85 30.75 4.144 47.45l-.83 1.667h8.29s1.65-39.28 1.046-46.008z"/></svg></svg><svg width="6" height="48" xmlns="http://www.w3.org/2000/svg" xmlns:xlink="http://www.w3.org/1999/xlink" xmlns:svgjs="http://svgjs.com/svgjs" viewBox="0.877 0 4.247 48" fill="none" stroke-miterlimit="100" stroke-linecap="round" stroke="#000" stroke-width="1.5" x="304" y="293"><svg xmlns="http://www.w3.org/2000/svg" xmlns:xlink="http://www.w3.org/1999/xlink" width="6" height="48" viewBox="0.871 0.121 4.198 47.45"><path paint-order="stroke fill markers" d="M.926.121s-.851 30.75 4.143 47.45L.926.12"/></svg></svg><svg width="10" height="29" xmlns="http://www.w3.org/2000/svg" xmlns:xlink="http://www.w3.org/1999/xlink" xmlns:svgjs="http://svgjs.com/svgjs" viewBox="0.233 0 9.535 29" fill="none" stroke-miterlimit="100" stroke-linecap="round" stroke="#000" stroke-width="1.5" x="312" y="275"><svg xmlns="http://www.w3.org/2000/svg" xmlns:xlink="http://www.w3.org/1999/xlink" width="10" height="29" viewBox="0.53 0.045 9.39 28.56"><path paint-order="stroke fill markers" d="M.53.045s9.678 5.714 9.384 15.225c-.295 9.511-7.158 13.335-7.158 13.335L.53.045"/></svg></svg><svg width="5" height="7" xmlns="http://www.w3.org/2000/svg" xmlns:xlink="http://www.w3.org/1999/xlink" xmlns:svgjs="http://svgjs.com/svgjs" viewBox="0.367 0 4.266 7" fill="none" stroke-miterlimit="100" stroke-linecap="round" stroke="#000" stroke-width="1.5" x="312" y="298"><svg xmlns="http://www.w3.org/2000/svg" xmlns:xlink="http://www.w3.org/1999/xlink" width="5" height="7" viewBox="0.206 0.359 3.824 6.275"><path paint-order="stroke fill markers" d="M.206.36s1.422 5.196 3.825 6.275L.206.359"/></svg></svg><svg width="7" height="15" xmlns="http://www.w3.org/2000/svg" xmlns:xlink="http://www.w3.org/1999/xlink" xmlns:svgjs="http://svgjs.com/svgjs" viewBox="0.771 0 5.458 15" fill="none" stroke-miterlimit="100" stroke-linecap="round" stroke="#000" stroke-width="1.5" x="310" y="284"><svg xmlns="http://www.w3.org/2000/svg" xmlns:xlink="http://www.w3.org/1999/xlink" width="7" height="15" viewBox="0.886 0.648 5.145 14.141"><path paint-order="stroke fill markers" d="M.886.648L6.03 6.923 2.336 14.79.886.649"/></svg></svg><svg width="5" height="13" xmlns="http://www.w3.org/2000/svg" xmlns:xlink="http://www.w3.org/1999/xlink" xmlns:svgjs="http://svgjs.com/svgjs" viewBox="0.36 0 4.28 13" x="312" y="286"><svg xmlns="http://www.w3.org/2000/svg" xmlns:xlink="http://www.w3.org/1999/xlink" width="5" height="13" viewBox="0.085 0.111 3.946 11.984"><path paint-order="stroke fill markers" fill-rule="evenodd" d="M.661 12.096l3.37-7.172L.085.11s2.404 7.194.576 11.985z"/></svg></svg><svg width="22" height="21" xmlns="http://www.w3.org/2000/svg" xmlns:xlink="http://www.w3.org/1999/xlink" xmlns:svgjs="http://svgjs.com/svgjs" viewBox="0.216 0 21.569 21" fill="none" stroke-miterlimit="100" stroke-linecap="round" stroke="#000" stroke-width="1.5" x="282" y="270"><svg xmlns="http://www.w3.org/2000/svg" xmlns:xlink="http://www.w3.org/1999/xlink" width="22" height="21" viewBox="0.77 0.906 20.493 19.953"><path paint-order="stroke fill markers" d="M21.263 6.255l-6.895 5.461S6.42 1.59 4.664 1.051C2.908.514.77 1.64.77 1.64v.665l2.033.37s-.3 2.366.995 3.475c0 0 4.011 14.662 10.034 14.708 4.118.032 5.653-1.111 5.653-1.111l1.778-13.492"/></svg></svg></svg><svg width="47" height="82" xmlns="http://www.w3.org/2000/svg" xmlns:xlink="http://www.w3.org/1999/xlink" xmlns:svgjs="http://svgjs.com/svgjs" viewBox="234 268 47 82" x="234" y="268"><svg width="32" height="18" xmlns="http://www.w3.org/2000/svg" xmlns:xlink="http://www.w3.org/1999/xlink" xmlns:svgjs="http://svgjs.com/svgjs" viewBox="0 0.042 32 17.915" fill="#e2e2e2" x="234" y="314"><svg xmlns="http://www.w3.org/2000/svg" xmlns:xlink="http://www.w3.org/1999/xlink" width="32" height="18" viewBox="0.203 0.254 31.446 17.605"><path paint-order="stroke fill markers" fill-rule="evenodd" d="M30.911.254s7.727 29.214-26.845 12.375L.203 14.05 4.066 3.4l14.067 3.143L30.91.253"/></svg></svg><svg width="14" height="54" xmlns="http://www.w3.org/2000/svg" xmlns:xlink="http://www.w3.org/1999/xlink" xmlns:svgjs="http://svgjs.com/svgjs" viewBox="0.201 0 13.598 54" fill="#edeeef" x="250" y="296"><svg xmlns="http://www.w3.org/2000/svg" xmlns:xlink="http://www.w3.org/1999/xlink" width="14" height="54" viewBox="0.076 0.5 13.283 52.75"><path paint-order="stroke fill markers" fill-rule="evenodd" d="M13.36 2.548L.076.5v52.75H10.85l-1.14-2.09 3.65-48.612z"/></svg></svg><svg width="5" height="52" xmlns="http://www.w3.org/2000/svg" xmlns:xlink="http://www.w3.org/1999/xlink" xmlns:svgjs="http://svgjs.com/svgjs" viewBox="0.629 0 3.743 52" fill="none" stroke-miterlimit="100" stroke-linecap="round" stroke="#000" stroke-width="1.5" x="259" y="298"><svg xmlns="http://www.w3.org/2000/svg" xmlns:xlink="http://www.w3.org/1999/xlink" width="5" height="52" viewBox="0.711 0.548 3.649 50.702"><path paint-order="stroke fill markers" d="M1.85 51.25L.71 49.16 4.36.548 1.85 51.25"/></svg></svg><svg width="0" height="38" xmlns="http://www.w3.org/2000/svg" xmlns:xlink="http://www.w3.org/1999/xlink" xmlns:svgjs="http://svgjs.com/svgjs" fill="none" stroke-miterlimit="100" stroke-linecap="round" stroke="#000" stroke-width="1.5" x="250" y="311"><svg xmlns="http://www.w3.org/2000/svg" xmlns:xlink="http://www.w3.org/1999/xlink" width="0" height="38"><path paint-order="stroke fill markers" d="M.077.718v0"/></svg></svg><svg width="21" height="25" xmlns="http://www.w3.org/2000/svg" xmlns:xlink="http://www.w3.org/1999/xlink" xmlns:svgjs="http://svgjs.com/svgjs" viewBox="0 0.538 21 23.924" fill="#ff6498" x="245" y="293"><svg xmlns="http://www.w3.org/2000/svg" xmlns:xlink="http://www.w3.org/1999/xlink" width="21" height="25" viewBox="0.417 0.973 20.564 23.427"><path paint-order="stroke fill markers" fill-rule="evenodd" d="M4.725 8.654L.417 22.73s11.114 3.043 20.564.913V.974L4.725 8.653z"/></svg></svg><svg width="21" height="3" xmlns="http://www.w3.org/2000/svg" xmlns:xlink="http://www.w3.org/1999/xlink" xmlns:svgjs="http://svgjs.com/svgjs" viewBox="0 0.647 21 1.705" fill="none" stroke-miterlimit="100" stroke-linecap="round" stroke="#000" stroke-width="1.5" x="245" y="315"><svg xmlns="http://www.w3.org/2000/svg" xmlns:xlink="http://www.w3.org/1999/xlink" width="21" height="3" viewBox="0.417 0.731 20.564 1.67"><path paint-order="stroke fill markers" d="M.417.73s11.114 3.044 20.564.914L.417.73"/></svg></svg><svg width="6" height="9" xmlns="http://www.w3.org/2000/svg" xmlns:xlink="http://www.w3.org/1999/xlink" xmlns:svgjs="http://svgjs.com/svgjs" viewBox="0.047 0 5.906 9" fill="#edeeef" x="257" y="270"><svg xmlns="http://www.w3.org/2000/svg" xmlns:xlink="http://www.w3.org/1999/xlink" width="6" height="9" viewBox="0.031 0.027 5.255 8.007"><path paint-order="stroke fill markers" fill-rule="evenodd" d="M5.286 2.368v1.875c0 1.45-.967 2.712-2.341 3.058L.03 8.034V.704l2.423-.61A2.245 2.245 0 0 1 4.41.527c.553.444.876 1.123.876 1.842z"/></svg></svg><svg width="6" height="5" xmlns="http://www.w3.org/2000/svg" xmlns:xlink="http://www.w3.org/1999/xlink" xmlns:svgjs="http://svgjs.com/svgjs" viewBox="0 0.336 6 4.329" fill="none" stroke-miterlimit="100" stroke-linecap="round" stroke="#000" stroke-width="1.5" x="257" y="274"><svg xmlns="http://www.w3.org/2000/svg" xmlns:xlink="http://www.w3.org/1999/xlink" width="6" height="5" viewBox="0.031 0.243 5.255 3.791"><path paint-order="stroke fill markers" d="M5.286.243c0 1.45-.967 2.712-2.341 3.058L.03 4.034 5.286.244"/></svg></svg><svg width="1" height="1" xmlns="http://www.w3.org/2000/svg" xmlns:xlink="http://www.w3.org/1999/xlink" xmlns:svgjs="http://svgjs.com/svgjs" viewBox="0.012 0 0.976 1" x="259" y="273"><svg xmlns="http://www.w3.org/2000/svg" xmlns:xlink="http://www.w3.org/1999/xlink" width="1" height="1" viewBox="0.177 0.583 0.281 0.288"><path paint-order="stroke fill markers" fill-rule="evenodd" d="M.317.871a.142.142 0 0 1-.14-.144c0-.08.063-.144.14-.144.078 0 .14.065.14.144 0 .08-.062.144-.14.144z"/></svg></svg><svg width="1" height="1" xmlns="http://www.w3.org/2000/svg" xmlns:xlink="http://www.w3.org/1999/xlink" xmlns:svgjs="http://svgjs.com/svgjs" viewBox="0.012 0 0.976 1" x="261" y="273"><svg xmlns="http://www.w3.org/2000/svg" xmlns:xlink="http://www.w3.org/1999/xlink" width="1" height="1" viewBox="0.335 0.583 0.281 0.288"><path paint-order="stroke fill markers" fill-rule="evenodd" d="M.476.871A.142.142 0 0 1 .335.727c0-.08.063-.144.14-.144.078 0 .141.065.141.144 0 .08-.063.144-.14.144z"/></svg></svg><svg width="2" height="3" xmlns="http://www.w3.org/2000/svg" xmlns:xlink="http://www.w3.org/1999/xlink" xmlns:svgjs="http://svgjs.com/svgjs" viewBox="0.266 0 1.468 3" fill="none" stroke-miterlimit="100" stroke-linecap="round" stroke="#000" stroke-width="1.5" x="260" y="272"><svg xmlns="http://www.w3.org/2000/svg" xmlns:xlink="http://www.w3.org/1999/xlink" width="2" height="3" viewBox="0.842 0.368 1.085 2.217"><path paint-order="stroke fill markers" d="M.842 2.586V.368h1.085L.842 2.586"/></svg></svg><svg width="2" height="0" xmlns="http://www.w3.org/2000/svg" xmlns:xlink="http://www.w3.org/1999/xlink" xmlns:svgjs="http://svgjs.com/svgjs" fill="none" stroke-miterlimit="100" stroke-linecap="round" stroke="#000" stroke-width="1.5" x="259" y="272"><svg xmlns="http://www.w3.org/2000/svg" xmlns:xlink="http://www.w3.org/1999/xlink" width="2" height="0"><path paint-order="stroke fill markers" d="M.053.368h0"/></svg></svg><svg width="2" height="2" xmlns="http://www.w3.org/2000/svg" xmlns:xlink="http://www.w3.org/1999/xlink" xmlns:svgjs="http://svgjs.com/svgjs" viewBox="0.36 0 1.28 2" fill="#edeeef" x="256" y="273"><svg xmlns="http://www.w3.org/2000/svg" xmlns:xlink="http://www.w3.org/1999/xlink" width="2" height="2" viewBox="0.643 0.127 0.734 1.147"><path paint-order="stroke fill markers" fill-rule="evenodd" d="M1.377.504v.77a.743.743 0 0 1-.731-.82c.041-.467.731-.418.731.05z"/></svg></svg><svg width="2" height="2" xmlns="http://www.w3.org/2000/svg" xmlns:xlink="http://www.w3.org/1999/xlink" xmlns:svgjs="http://svgjs.com/svgjs" viewBox="0.024 0 1.953 2" fill="none" stroke-miterlimit="100" stroke-linecap="round" stroke="#000" stroke-width="1.5" x="256" y="273"><svg xmlns="http://www.w3.org/2000/svg" xmlns:xlink="http://www.w3.org/1999/xlink" width="2" height="2" viewBox="0.643 0.522 0.734 0.752"><path paint-order="stroke fill markers" d="M1.377 1.274A.743.743 0 0 1 .643.522l.734.752"/></svg></svg><svg width="2" height="1" xmlns="http://www.w3.org/2000/svg" xmlns:xlink="http://www.w3.org/1999/xlink" xmlns:svgjs="http://svgjs.com/svgjs" viewBox="0 0.288 2 0.424" fill="none" stroke-miterlimit="100" stroke-linecap="round" stroke="#ff6498" stroke-width="1.5" x="259" y="274"><svg xmlns="http://www.w3.org/2000/svg" xmlns:xlink="http://www.w3.org/1999/xlink" width="2" height="1" viewBox="0.561 0.845 0.688 0.146"><path paint-order="stroke fill markers" d="M1.25.845a.48.48 0 0 1-.689 0h.688"/></svg></svg><svg width="1" height="1" xmlns="http://www.w3.org/2000/svg" xmlns:xlink="http://www.w3.org/1999/xlink" xmlns:svgjs="http://svgjs.com/svgjs" viewBox="0 0.374 1 0.252" fill="none" stroke-miterlimit="100" stroke-linecap="round" stroke="#000" stroke-width="1.5" x="260" y="274"><svg xmlns="http://www.w3.org/2000/svg" xmlns:xlink="http://www.w3.org/1999/xlink" width="1" height="1" viewBox="0.368 0.587 0.474 0.119"><path paint-order="stroke fill markers" d="M.842.587l-.474.12.474-.12"/></svg></svg><svg width="17" height="24" xmlns="http://www.w3.org/2000/svg" xmlns:xlink="http://www.w3.org/1999/xlink" xmlns:svgjs="http://svgjs.com/svgjs" viewBox="0.05 0 16.9 24" fill="#edeeef" x="249" y="278"><svg xmlns="http://www.w3.org/2000/svg" xmlns:xlink="http://www.w3.org/1999/xlink" width="17" height="24" viewBox="0.725 0.57 16.255 23.084"><path paint-order="stroke fill markers" fill-rule="evenodd" d="M16.98 7.813v11.75L.726 23.653V10.568c0-4.64 3.094-8.68 7.494-9.788a6.944 6.944 0 0 1 6.053 1.334 7.307 7.307 0 0 1 2.709 5.7z"/></svg></svg><svg width="6" height="4" xmlns="http://www.w3.org/2000/svg" xmlns:xlink="http://www.w3.org/1999/xlink" xmlns:svgjs="http://svgjs.com/svgjs" viewBox="0 0.389 6 3.222" fill="none" stroke-miterlimit="100" stroke-linecap="round" stroke="#000" stroke-width="1.5" x="257" y="270"><svg xmlns="http://www.w3.org/2000/svg" xmlns:xlink="http://www.w3.org/1999/xlink" width="6" height="4" viewBox="0.377 0.806 4.719 2.534"><path paint-order="stroke fill markers" d="M.377 3.34s.86-.54.893-1.521c0 0 2.17-1.993 3.826-.388L.377 3.341"/></svg></svg><svg width="9" height="9" xmlns="http://www.w3.org/2000/svg" xmlns:xlink="http://www.w3.org/1999/xlink" xmlns:svgjs="http://svgjs.com/svgjs" viewBox="0 0.228 9 8.544" fill="none" stroke-miterlimit="100" stroke-linecap="round" stroke="#000" stroke-width="1.5" x="254" y="268"><svg xmlns="http://www.w3.org/2000/svg" xmlns:xlink="http://www.w3.org/1999/xlink" width="9" height="9" viewBox="0.339 0.719 8.394 7.969"><path paint-order="stroke fill markers" d="M8.286 5.127s1.83-3.27-1.918-4.284C2.619-.17-3.071 5.24 3.01 8.688l5.276-3.56"/></svg></svg><svg width="2" height="3" xmlns="http://www.w3.org/2000/svg" xmlns:xlink="http://www.w3.org/1999/xlink" xmlns:svgjs="http://svgjs.com/svgjs" viewBox="0 0.18 2 2.639" fill="none" stroke-miterlimit="100" stroke-linecap="round" stroke="#ff6498" stroke-width="1.5" x="254" y="274"><svg xmlns="http://www.w3.org/2000/svg" xmlns:xlink="http://www.w3.org/1999/xlink" width="2" height="3" viewBox="0.027 0.318 1.61 2.124"><path paint-order="stroke fill markers" d="M.027.318s.471 1.797 1.61 2.124L.027.318"/></svg></svg><svg width="10" height="11" xmlns="http://www.w3.org/2000/svg" xmlns:xlink="http://www.w3.org/1999/xlink" xmlns:svgjs="http://svgjs.com/svgjs" viewBox="0.096 0 9.808 11" fill="none" stroke-miterlimit="100" stroke-linecap="round" stroke="#000" stroke-width="1.5" x="250" y="274"><svg xmlns="http://www.w3.org/2000/svg" xmlns:xlink="http://www.w3.org/1999/xlink" width="10" height="11" viewBox="0.704 0.99 8.38 9.398"><path paint-order="stroke fill markers" d="M3.581.99S-.356 3.761.981 7.464c1.337 3.702 7.59 3.728 8.017.989.428-2.739-.82-4.317-2.355-4.514-1.536-.197-1.378-1.251-1.378-1.251L3.581.99"/></svg></svg><svg width="25" height="17" xmlns="http://www.w3.org/2000/svg" xmlns:xlink="http://www.w3.org/1999/xlink" xmlns:svgjs="http://svgjs.com/svgjs" viewBox="0 0.73 25 15.541" fill="none" stroke-miterlimit="100" stroke-linecap="round" stroke="#000" stroke-width="1.5" x="249" y="283"><svg xmlns="http://www.w3.org/2000/svg" xmlns:xlink="http://www.w3.org/1999/xlink" width="25" height="17" viewBox="0.226 0.946 24.469 15.211"><path paint-order="stroke fill markers" d="M1.821.946s-3.59 6.673 0 11.947c3.59 5.275 15.16 4.16 20.232-3.38l2.642-1.894V6.334l-3.339.114s-1.201-.961-2.522.662c0 0-7.37 2.436-9.896 1.98l-.852-5.833L1.82.946"/></svg></svg><svg width="16" height="6" xmlns="http://www.w3.org/2000/svg" xmlns:xlink="http://www.w3.org/1999/xlink" xmlns:svgjs="http://svgjs.com/svgjs" viewBox="0 0.401 16 5.198" x="250" y="295"><svg xmlns="http://www.w3.org/2000/svg" xmlns:xlink="http://www.w3.org/1999/xlink" width="16" height="6" viewBox="0.364 0.703 15.593 5.066"><path paint-order="stroke fill markers" fill-rule="evenodd" d="M.821.893a8.491 8.491 0 0 1-.125-.19c-.212.34-.327.733-.332 1.136 0 2.17 3.496 3.93 7.808 3.93 4.116 0 7.485-1.603 7.785-3.636C10.439 5.196 3.466 4.78.82.893z"/></svg></svg><svg width="17" height="19" xmlns="http://www.w3.org/2000/svg" xmlns:xlink="http://www.w3.org/1999/xlink" xmlns:svgjs="http://svgjs.com/svgjs" viewBox="0 0.084 17 18.832" fill="none" stroke-miterlimit="100" stroke-linecap="round" stroke="#000" stroke-width="1.5" x="264" y="277"><svg xmlns="http://www.w3.org/2000/svg" xmlns:xlink="http://www.w3.org/1999/xlink" width="17" height="19" viewBox="0.512 0.653 15.787 17.489"><path paint-order="stroke fill markers" d="M.512 4.39l4.263 5.273 5.745-7.406S11.412-.29 12.8 1.034h3.268l.232 1.054-2.18 1.556s-.76 16.117-9.212 14.364L.512 4.39"/></svg></svg></svg><svg width="117" height="44" xmlns="http://www.w3.org/2000/svg" xmlns:xlink="http://www.w3.org/1999/xlink" xmlns:svgjs="http://svgjs.com/svgjs" viewBox="181 232 117 44" x="181" y="232"><svg width="116" height="40" xmlns="http://www.w3.org/2000/svg" xmlns:xlink="http://www.w3.org/1999/xlink" xmlns:svgjs="http://svgjs.com/svgjs" viewBox="182 234 116 40" x="182" y="234"><svg width="40" height="40" xmlns="http://www.w3.org/2000/svg" xmlns:xlink="http://www.w3.org/1999/xlink" xmlns:svgjs="http://svgjs.com/svgjs" fill="#2a539c" stroke-miterlimit="100" stroke="#000" x="219" y="234"><svg xmlns="http://www.w3.org/2000/svg" xmlns:xlink="http://www.w3.org/1999/xlink" width="40" height="40" viewBox="0.812 0.404 39.079 39.079"><path paint-order="stroke fill markers" fill-rule="evenodd" d="M.812 20.04L20.448.405l19.443 19.442-19.637 19.637L.812 20.04z"/></svg></svg><svg width="40" height="40" xmlns="http://www.w3.org/2000/svg" xmlns:xlink="http://www.w3.org/1999/xlink" xmlns:svgjs="http://svgjs.com/svgjs" fill="#3b537c" stroke-miterlimit="100" stroke="#000" x="182" y="234"><svg xmlns="http://www.w3.org/2000/svg" xmlns:xlink="http://www.w3.org/1999/xlink" width="40" height="40" viewBox="0.223 0.209 39.273 39.273"><path paint-order="stroke fill markers" fill-rule="evenodd" d="M.223 19.846L19.86.21l19.637 19.637L19.86 39.483.223 19.846z"/></svg></svg><svg width="40" height="40" xmlns="http://www.w3.org/2000/svg" xmlns:xlink="http://www.w3.org/1999/xlink" xmlns:svgjs="http://svgjs.com/svgjs" fill="#5185eb" stroke-miterlimit="100" stroke="#000" x="258" y="234"><svg xmlns="http://www.w3.org/2000/svg" xmlns:xlink="http://www.w3.org/1999/xlink" width="40" height="40" viewBox="0.03 0.404 39.079 39.079"><path paint-order="stroke fill markers" fill-rule="evenodd" d="M.03 20.04L19.667.405 39.11 19.846 19.473 39.483.03 20.04z"/></svg></svg><svg width="0" height="39" xmlns="http://www.w3.org/2000/svg" xmlns:xlink="http://www.w3.org/1999/xlink" xmlns:svgjs="http://svgjs.com/svgjs" fill="none" stroke-miterlimit="100" stroke="#000" x="201" y="234"><svg xmlns="http://www.w3.org/2000/svg" xmlns:xlink="http://www.w3.org/1999/xlink" width="0" height="39"><path paint-order="stroke fill markers" d="M.86.404V.405"/></svg></svg><svg width="0" height="39" xmlns="http://www.w3.org/2000/svg" xmlns:xlink="http://www.w3.org/1999/xlink" xmlns:svgjs="http://svgjs.com/svgjs" fill="none" stroke-miterlimit="100" stroke="#000" x="239" y="234"><svg xmlns="http://www.w3.org/2000/svg" xmlns:xlink="http://www.w3.org/1999/xlink" width="0" height="39"><path paint-order="stroke fill markers" d="M.351.814V.815"/></svg></svg><svg width="0" height="39" xmlns="http://www.w3.org/2000/svg" xmlns:xlink="http://www.w3.org/1999/xlink" xmlns:svgjs="http://svgjs.com/svgjs" fill="none" stroke-miterlimit="100" stroke="#000" x="277" y="234"><svg xmlns="http://www.w3.org/2000/svg" xmlns:xlink="http://www.w3.org/1999/xlink" width="0" height="39"><path paint-order="stroke fill markers" d="M.57.404V.405"/></svg></svg></svg><svg width="4" height="5" xmlns="http://www.w3.org/2000/svg" xmlns:xlink="http://www.w3.org/1999/xlink" xmlns:svgjs="http://svgjs.com/svgjs" viewBox="0 0.5 4 4" fill="#fff" stroke-miterlimit="100" stroke="#000" x="200" y="232"><svg xmlns="http://www.w3.org/2000/svg" xmlns:xlink="http://www.w3.org/1999/xlink" width="4" height="5" viewBox="0.335 0.789 3.3 3.3"><path paint-order="stroke fill markers" fill-rule="evenodd" d="M1.985 4.09c-.913 0-1.65-.738-1.65-1.65 0-.913.737-1.65 1.65-1.65.912 0 1.65.737 1.65 1.65 0 .912-.738 1.65-1.65 1.65z"/></svg></svg><svg width="4" height="4" xmlns="http://www.w3.org/2000/svg" xmlns:xlink="http://www.w3.org/1999/xlink" xmlns:svgjs="http://svgjs.com/svgjs" fill="#fff" stroke-miterlimit="100" stroke="#000" x="219" y="252"><svg xmlns="http://www.w3.org/2000/svg" xmlns:xlink="http://www.w3.org/1999/xlink" width="4" height="4" viewBox="0.307 0.311 3.299 3.299"><path paint-order="stroke fill markers" fill-rule="evenodd" d="M1.956 3.61c-.912 0-1.649-.737-1.649-1.649s.737-1.65 1.65-1.65c.912 0 1.65.738 1.65 1.65 0 .912-.738 1.65-1.65 1.65z"/></svg></svg><svg width="4" height="4" xmlns="http://www.w3.org/2000/svg" xmlns:xlink="http://www.w3.org/1999/xlink" xmlns:svgjs="http://svgjs.com/svgjs" fill="#fff" stroke-miterlimit="100" stroke="#000" x="257" y="252"><svg xmlns="http://www.w3.org/2000/svg" xmlns:xlink="http://www.w3.org/1999/xlink" width="4" height="4" viewBox="0.251 0.311 3.3 3.299"><path paint-order="stroke fill markers" fill-rule="evenodd" d="M1.9 3.61a1.648 1.648 0 1 1 0-3.3c.913.001 1.65.739 1.65 1.651s-.737 1.65-1.65 1.65z"/></svg></svg><svg width="4" height="5" xmlns="http://www.w3.org/2000/svg" xmlns:xlink="http://www.w3.org/1999/xlink" xmlns:svgjs="http://svgjs.com/svgjs" viewBox="0 0.5 4 4" fill="#fff" stroke-miterlimit="100" stroke="#000" x="200" y="271"><svg xmlns="http://www.w3.org/2000/svg" xmlns:xlink="http://www.w3.org/1999/xlink" width="4" height="5" viewBox="0.335 0.833 3.3 3.299"><path paint-order="stroke fill markers" fill-rule="evenodd" d="M1.985 4.133c-.913 0-1.65-.738-1.65-1.65 0-.912.737-1.65 1.65-1.65.912 0 1.65.738 1.65 1.65 0 .912-.738 1.65-1.65 1.65z"/></svg></svg><svg width="4" height="4" xmlns="http://www.w3.org/2000/svg" xmlns:xlink="http://www.w3.org/1999/xlink" xmlns:svgjs="http://svgjs.com/svgjs" fill="#fff" stroke-miterlimit="100" stroke="#000" x="181" y="252"><svg xmlns="http://www.w3.org/2000/svg" xmlns:xlink="http://www.w3.org/1999/xlink" width="4" height="4" viewBox="0.363 0.311 3.3 3.299"><path paint-order="stroke fill markers" fill-rule="evenodd" d="M2.013 3.61a1.648 1.648 0 1 1 0-3.3c.912.001 1.65.739 1.65 1.651s-.738 1.65-1.65 1.65z"/></svg></svg></svg><svg width="25" height="0" xmlns="http://www.w3.org/2000/svg" xmlns:xlink="http://www.w3.org/1999/xlink" xmlns:svgjs="http://svgjs.com/svgjs" fill="none" stroke-miterlimit="100" stroke="#000" x="172" y="321"><svg xmlns="http://www.w3.org/2000/svg" xmlns:xlink="http://www.w3.org/1999/xlink" width="25" height="0"><path paint-order="stroke fill markers" d="M.786.196h0"/></svg></svg><svg width="25" height="0" xmlns="http://www.w3.org/2000/svg" xmlns:xlink="http://www.w3.org/1999/xlink" xmlns:svgjs="http://svgjs.com/svgjs" fill="none" stroke-miterlimit="100" stroke="#000" x="249" y="349"><svg xmlns="http://www.w3.org/2000/svg" xmlns:xlink="http://www.w3.org/1999/xlink" width="25" height="0"><path paint-order="stroke fill markers" d="M.975.25h0"/></svg></svg><svg width="210" height="0" xmlns="http://www.w3.org/2000/svg" xmlns:xlink="http://www.w3.org/1999/xlink" xmlns:svgjs="http://svgjs.com/svgjs" fill="none" stroke-miterlimit="100" stroke="#000" x="307" y="342"><svg xmlns="http://www.w3.org/2000/svg" xmlns:xlink="http://www.w3.org/1999/xlink" width="210" height="0"><path paint-order="stroke fill markers" d="M.263.402h0"/></svg></svg><svg width="6" height="6" xmlns="http://www.w3.org/2000/svg" xmlns:xlink="http://www.w3.org/1999/xlink" xmlns:svgjs="http://svgjs.com/svgjs" fill="#ff6498" x="351" y="339"><svg xmlns="http://www.w3.org/2000/svg" xmlns:xlink="http://www.w3.org/1999/xlink" width="6" height="6" viewBox="0.277 0.488 5.5 5.5"><path paint-order="stroke fill markers" fill-rule="evenodd" d="M3.027 5.988c-1.52 0-2.75-1.23-2.75-2.75 0-1.521 1.23-2.75 2.75-2.75s2.75 1.229 2.75 2.75c0 1.52-1.23 2.75-2.75 2.75z"/></svg></svg><svg width="6" height="6" xmlns="http://www.w3.org/2000/svg" xmlns:xlink="http://www.w3.org/1999/xlink" xmlns:svgjs="http://svgjs.com/svgjs" fill="#8bb0ea" x="364" y="339"><svg xmlns="http://www.w3.org/2000/svg" width="6" height="6" viewBox="0.027 0.488 5.5 5.5"><path paint-order="stroke fill markers" fill-rule="evenodd" d="M2.777 5.988c-1.52 0-2.75-1.23-2.75-2.75 0-1.521 1.23-2.75 2.75-2.75s2.75 1.229 2.75 2.75c0 1.52-1.23 2.75-2.75 2.75z"/></svg></svg></svg>