<svg xmlns="http://www.w3.org/2000/svg" width="129.3" height="129" viewBox="0 0 129.3 129">
  <g id="HDWO_3rd_svg" transform="translate(0 -0.594)">
    <g id="Group_2889" data-name="Group 2889" transform="translate(0 0.594)">
      <path id="Path_4743" data-name="Path 4743" d="M241.182,40a45.257,45.257,0,0,0-17.627-30.14,45.832,45.832,0,0,0-55.462.145,2.525,2.525,0,0,0,3.075,4.007,40.77,40.77,0,0,1,49.336-.127,40.469,40.469,0,0,1,7.77,56.789,40.612,40.612,0,0,1-70.025-39.7,2.525,2.525,0,0,0-4.681-1.9A45.661,45.661,0,1,0,241.182,40Z" transform="translate(-112.309 -0.594)" fill="#3b537c"/>
      <path id="Path_4744" data-name="Path 4744" d="M89.885,360.291,68.946,365.75a8.885,8.885,0,0,0-.369-2.041,8.748,8.748,0,0,0-4.284-5.211l-7.76-4.135a39.589,39.589,0,0,0-18.321-4.4h-.19a41.693,41.693,0,0,0-18.709,4.59,5.812,5.812,0,0,0-5.413-3.71H5.8a5.8,5.8,0,0,0-5.8,5.8V381.99a5.8,5.8,0,0,0,5.8,5.79h8.1a5.809,5.809,0,0,0,5.693-4.668l31.907,7.3a12.9,12.9,0,0,0,2.912.323,23.7,23.7,0,0,0,8.843-2.133l31.156-12.786c4.092-1.686,7.509-6.023,5.785-10.732-1.507-4.151-5.555-6.031-10.312-4.789Zm-75.232,21.7a.756.756,0,0,1-.753.739H5.8a.752.752,0,0,1-.746-.739V356.635a.756.756,0,0,1,.746-.746h8.1a.759.759,0,0,1,.753.746V381.99Zm77.838-10.85L61.338,383.925c-3.952,1.623-6.473,2.075-8.707,1.56L19.7,377.956V360.079a36.043,36.043,0,0,1,34.455-1.258l7.762,4.136a3.73,3.73,0,0,1,1.826,2.225,3.691,3.691,0,0,1-.27,2.836,3.771,3.771,0,0,1-5.09,1.547l-12.792-6.75a2.525,2.525,0,0,0-2.357,4.467l12.789,6.748a8.827,8.827,0,0,0,11.28-2.632l23.854-6.22c2.242-.586,3.686-.039,4.292,1.632S94.389,370.359,92.491,371.141Z" transform="translate(0 -261.731)" fill="#3b537c"/>
      <path id="Path_4745" data-name="Path 4745" d="M210.466,116.537h11.763V123.7a2.525,2.525,0,0,0,2.525,2.525h28.583a2.525,2.525,0,0,0,2.525-2.525v-7.167h11.763a2.525,2.525,0,0,0,2.525-2.523l.007-7.759A12.583,12.583,0,0,0,263.7,94.647a11.6,11.6,0,0,0-10.362-16.873A11.64,11.64,0,0,0,241.817,87.8a11.609,11.609,0,0,0-5.544,0,11.631,11.631,0,0,0-23.151,1.582,11.52,11.52,0,0,0,1.268,5.262,12.582,12.582,0,0,0-6.451,11.608v7.757a2.526,2.526,0,0,0,2.526,2.525Zm40.346,4.642H227.279v-5.231a11.555,11.555,0,0,1,.111-1.648c0-.009,0-.017,0-.026.442-3.018,2.133-4.71,4.58-5.99a11.612,11.612,0,0,0,14.147,0c2.445,1.281,4.133,2.973,4.574,5.989,0,.009,0,.017,0,.026a11.583,11.583,0,0,1,.111,1.647Zm14.29-9.692h-9.867a12.476,12.476,0,0,0-5.825-7.145,11.5,11.5,0,0,0,1.158-3.677,11.648,11.648,0,0,0,9.843-2.073c2.867,1.5,4.7,3.564,4.7,7.661Zm-18.345-22.1a6.585,6.585,0,1,1,3.179,5.61,11.652,11.652,0,0,0-3.083-4.519A6.51,6.51,0,0,1,246.757,89.385Zm-1.128,9.692a6.58,6.58,0,1,1-6.58-6.56A6.577,6.577,0,0,1,245.629,99.077ZM224.754,82.825a6.535,6.535,0,0,1,6.483,7.658,11.652,11.652,0,0,0-3.072,4.507,6.565,6.565,0,1,1-3.411-12.165Zm-11.763,23.43a7.77,7.77,0,0,1,4.689-7.663,11.65,11.65,0,0,0,9.85,2.071,11.5,11.5,0,0,0,1.157,3.676,12.472,12.472,0,0,0-5.831,7.147h-9.865Z" transform="translate(-155.427 -58.283)" fill="#3b537c"/>
      <path id="Path_4746" data-name="Path 4746" d="M187.592,72.922a2.518,2.518,0,0,0,1.786-.74l.007-.007a2.525,2.525,0,1,0-1.793.747Z" transform="translate(-138.33 -50.88)" fill="#3b537c"/>
    </g>
  </g>
</svg>
