<svg xmlns="http://www.w3.org/2000/svg" width="110.597" height="116" viewBox="0 0 110.597 116">
  <g id="HDWO_2nd_svg" transform="translate(-0.001 0)">
    <path id="Path_4726" data-name="Path 4726" d="M71.23,344.773a10.232,10.232,0,0,1-9.64,0,1.7,1.7,0,0,0-1.632,2.98,13.616,13.616,0,0,0,12.908,0,1.7,1.7,0,0,0-1.636-2.978Zm0,0" transform="translate(-45.717 -266.497)" fill="#3b537c"/>
    <path id="Path_4727" data-name="Path 4727" d="M73.076,314.672a1.7,1.7,0,1,1-1.7-1.7A1.7,1.7,0,0,1,73.076,314.672Zm0,0" transform="translate(-53.923 -242.065)" fill="#3b537c"/>
    <path id="Path_4728" data-name="Path 4728" d="M101.709,314.672a1.7,1.7,0,1,1-1.7-1.7A1.7,1.7,0,0,1,101.709,314.672Zm0,0" transform="translate(-76.079 -242.065)" fill="#3b537c"/>
    <path id="Path_4729" data-name="Path 4729" d="M108.262,309.075a1.7,1.7,0,1,0-3.008,1.571,17.16,17.16,0,0,1,1.952,8.006v.027a5.072,5.072,0,0,1-5.062,5.07H77.663a5.053,5.053,0,0,1-2.8-.848,8.424,8.424,0,0,0,1.13-4.222v-.027a20.644,20.644,0,0,0-1.532-7.824,17.289,17.289,0,0,1,26.728-5.314,1.7,1.7,0,0,0,2.215-2.574,20.647,20.647,0,0,0-6.175-3.674,14.136,14.136,0,1,0-14.647,0,20.784,20.784,0,0,0-9.985,8.017,20.811,20.811,0,0,0-9.97-8.021,14.136,14.136,0,1,0-14.654,0A20.817,20.817,0,0,0,38,307.287a20.71,20.71,0,0,0-9.971-8.026,14.136,14.136,0,1,0-14.666,0,20.635,20.635,0,0,0-7.123,4.554,1.7,1.7,0,1,0,2.369,2.432,17.3,17.3,0,0,1,27.526,4.578,20.648,20.648,0,0,0-1.532,7.825v.027a8.424,8.424,0,0,0,1.13,4.222,5.053,5.053,0,0,1-2.8.848H8.455a5.072,5.072,0,0,1-5.061-5.07v-.027a17.245,17.245,0,0,1,1.414-6.876,1.7,1.7,0,1,0-3.113-1.349A20.62,20.62,0,0,0,0,318.652v.027a8.471,8.471,0,0,0,8.454,8.469H32.936A8.441,8.441,0,0,0,38,325.459a8.4,8.4,0,0,0,5.061,1.69H67.54a8.394,8.394,0,0,0,5.061-1.69,8.442,8.442,0,0,0,5.062,1.69h24.481a8.471,8.471,0,0,0,8.454-8.469v-.027a20.808,20.808,0,0,0-2.336-9.577ZM79.16,287.16A10.743,10.743,0,1,1,89.9,297.921,10.765,10.765,0,0,1,79.16,287.16Zm-69.208,0A10.743,10.743,0,1,1,20.7,297.921,10.765,10.765,0,0,1,9.952,287.16Zm34.6,0A10.743,10.743,0,1,1,55.3,297.921,10.765,10.765,0,0,1,44.556,287.16Zm-1.5,36.59A5.072,5.072,0,0,1,38,318.679v-.027a17.3,17.3,0,1,1,34.6,0v.027a5.072,5.072,0,0,1-5.061,5.07Zm0,0" transform="translate(0 -211.148)" fill="#3b537c"/>
    <path id="Path_4730" data-name="Path 4730" d="M377.23,344.773a10.232,10.232,0,0,1-9.64,0,1.7,1.7,0,0,0-1.632,2.98,13.616,13.616,0,0,0,12.908,0,1.7,1.7,0,0,0-1.636-2.978Zm0,0" transform="translate(-282.509 -266.497)" fill="#3b537c"/>
    <path id="Path_4731" data-name="Path 4731" d="M379.077,314.672a1.7,1.7,0,1,1-1.7-1.7A1.7,1.7,0,0,1,379.077,314.672Zm0,0" transform="translate(-290.715 -242.065)" fill="#3b537c"/>
    <path id="Path_4732" data-name="Path 4732" d="M407.709,314.672a1.7,1.7,0,1,1-1.7-1.7A1.7,1.7,0,0,1,407.709,314.672Zm0,0" transform="translate(-312.871 -242.065)" fill="#3b537c"/>
    <path id="Path_4733" data-name="Path 4733" d="M224.23,344.773a10.232,10.232,0,0,1-9.64,0,1.7,1.7,0,0,0-1.632,2.98,13.616,13.616,0,0,0,12.908,0,1.7,1.7,0,0,0-1.636-2.978Zm0,0" transform="translate(-164.113 -266.497)" fill="#3b537c"/>
    <path id="Path_4734" data-name="Path 4734" d="M226.077,314.672a1.7,1.7,0,1,1-1.7-1.7A1.7,1.7,0,0,1,226.077,314.672Zm0,0" transform="translate(-172.319 -242.065)" fill="#3b537c"/>
    <path id="Path_4735" data-name="Path 4735" d="M254.709,314.672a1.7,1.7,0,1,1-1.7-1.7A1.7,1.7,0,0,1,254.709,314.672Zm0,0" transform="translate(-194.475 -242.065)" fill="#3b537c"/>
    <path id="Path_4736" data-name="Path 4736" d="M288.7,93.656H312.67a1.7,1.7,0,0,0,0-3.4H288.7a1.7,1.7,0,0,0,0,3.4Zm0,0" transform="translate(-222.089 -69.809)" fill="#3b537c"/>
    <path id="Path_4737" data-name="Path 4737" d="M288.7,123.656H312.67a1.7,1.7,0,0,0,0-3.4H288.7a1.7,1.7,0,0,0,0,3.4Zm0,0" transform="translate(-222.089 -93.012)" fill="#3b537c"/>
    <path id="Path_4738" data-name="Path 4738" d="M288.7,153.656H312.67a1.7,1.7,0,0,0,0-3.4H288.7a1.7,1.7,0,0,0,0,3.4Zm0,0" transform="translate(-222.089 -116.215)" fill="#3b537c"/>
    <path id="Path_4739" data-name="Path 4739" d="M34.12,47.183h8.124c.525,4.423,2.1,7.658,4.692,9.627A10.936,10.936,0,0,0,53.65,58.9,15.929,15.929,0,0,0,57,58.537a1.957,1.957,0,0,0-.07-3.837,3.033,3.033,0,0,1-2.215-1.405c-1.011-1.635-.8-4.358-.477-6.111H64.708a11.543,11.543,0,0,0,5.145-1.206,11.706,11.706,0,0,0,10.858,7.494H91.185c.325,1.755.535,4.478-.477,6.112a3.032,3.032,0,0,1-2.216,1.405,1.961,1.961,0,0,0-1.607,1.888,1.941,1.941,0,0,0,1.539,1.951,15.919,15.919,0,0,0,3.345.368,10.94,10.94,0,0,0,6.717-2.1c2.592-1.97,4.166-5.2,4.689-9.627H111.3a11.64,11.64,0,0,0,11.62-11.632V17.922A11.639,11.639,0,0,0,111.3,6.29H80.712a11.657,11.657,0,0,0-5.145,1.2A11.639,11.639,0,0,0,64.709,0H43.76a1.7,1.7,0,0,0,0,3.4H64.709a8.239,8.239,0,0,1,8.227,8.233V35.551a8.239,8.239,0,0,1-8.227,8.233H52.888A1.7,1.7,0,0,0,51.262,45c-.187.635-1.761,6.308.56,10.073.063.1.128.2.2.3A6.892,6.892,0,0,1,48.986,54.1c-2.071-1.573-3.247-4.506-3.5-8.719a1.7,1.7,0,0,0-1.694-1.6H34.12a8.239,8.239,0,0,1-8.227-8.233V11.632A8.239,8.239,0,0,1,34.12,3.4h2.4a1.7,1.7,0,0,0,0-3.4h-2.4A11.639,11.639,0,0,0,22.5,11.632V35.551A11.639,11.639,0,0,0,34.12,47.183ZM76.329,35.551V11.632c0-.224-.008-.446-.02-.666a8.123,8.123,0,0,1,4.4-1.277H111.3a8.24,8.24,0,0,1,8.228,8.233V41.84a8.24,8.24,0,0,1-8.228,8.233h-9.676a1.7,1.7,0,0,0-1.694,1.6c-.249,4.213-1.424,7.146-3.494,8.719A6.893,6.893,0,0,1,93.4,61.664c.068-.1.133-.2.2-.3,2.322-3.765.748-9.439.561-10.073a1.7,1.7,0,0,0-1.626-1.218H80.712a8.281,8.281,0,0,1-7.957-6.141,11.6,11.6,0,0,0,3.575-8.381Zm0,0" transform="translate(-17.411)" fill="#3b537c"/>
    <path id="Path_4740" data-name="Path 4740" d="M72,56.219c0,3.568,1.851,10.535,14.245,17.1a3.147,3.147,0,0,0,2.947,0c12.394-6.568,14.245-13.534,14.245-17.1,0-5.45-3.825-9.719-8.708-9.719a10.323,10.323,0,0,0-7.011,2.769A10.324,10.324,0,0,0,80.708,46.5C75.825,46.5,72,50.769,72,56.219ZM80.708,49.9a6.914,6.914,0,0,1,5,2.147,2.824,2.824,0,0,0,4.022,0,6.91,6.91,0,0,1,5-2.148c3.453,0,5.315,3.257,5.315,6.321,0,4.749-4.491,9.862-12.326,14.039-7.836-4.177-12.326-9.29-12.326-14.039,0-3.064,1.862-6.321,5.315-6.321Zm0,0" transform="translate(-55.715 -35.964)" fill="#3b537c"/>
  </g>
</svg>
