<svg xmlns="http://www.w3.org/2000/svg" width="114.648" height="111.443" viewBox="0 0 114.648 111.443">
  <g id="HDWO_1st_svg" transform="translate(0 -7.139)">
    <path id="Path_4724" data-name="Path 4724" d="M102.077,44.027H84.656a1.683,1.683,0,0,0,0,3.366h17.42a9.215,9.215,0,0,1,9.2,9.2v52.58H91.907a1.683,1.683,0,1,0,0,3.366h19.218a9.218,9.218,0,0,1-9.048,7.522H58.113a1.683,1.683,0,1,0,0,3.366h9.63v6.63a1.683,1.683,0,0,0,.409,1.1l3.958,4.586H42.761l3.958-4.586a1.683,1.683,0,0,0,.409-1.1v-6.63H50.94a1.683,1.683,0,1,0,0-3.366H12.571a9.218,9.218,0,0,1-9.048-7.522H84.735a1.683,1.683,0,0,0,0-3.366H3.366V56.6a9.215,9.215,0,0,1,9.2-9.2H30.216a1.683,1.683,0,0,0,0-3.366H12.571A12.585,12.585,0,0,0,0,56.6v54.263a12.585,12.585,0,0,0,12.571,12.571H43.763v6l-5.448,6.311H36.072a4.875,4.875,0,0,0-4.87,4.87v1.706a4.875,4.875,0,0,0,4.87,4.87h42.5a4.875,4.875,0,0,0,4.87-4.87v-1.706a4.875,4.875,0,0,0-4.87-4.87H76.557l-5.448-6.311v-6h30.968a12.585,12.585,0,0,0,12.571-12.571V56.6A12.585,12.585,0,0,0,102.077,44.027Zm-22,96.59v1.706a1.505,1.505,0,0,1-1.5,1.5h-42.5a1.505,1.505,0,0,1-1.5-1.5v-1.706a1.505,1.505,0,0,1,1.5-1.5h42.5A1.505,1.505,0,0,1,80.079,140.617Z" transform="translate(0 -28.611)" fill="#3b537c"/>
    <path id="Path_4725" data-name="Path 4725" d="M85.019,33.741a1.683,1.683,0,0,0,1.822-1.531A23.718,23.718,0,0,1,94.426,16.8q.77-.71,1.593-1.343l13.123,19.777a1.683,1.683,0,0,0,1.4.752H134.28a23.841,23.841,0,0,1-13.8,19.935l-9.649-9.123a6.236,6.236,0,1,0-11.272-.5L98.056,47.49a1.683,1.683,0,1,0,2.088,2.64l1.509-1.194a6.22,6.22,0,0,0,6.869.3l8.436,7.976A23.8,23.8,0,0,1,87.2,38.913a1.683,1.683,0,1,0-3.3.648A27,27,0,0,0,90.957,53.1l-12.582,9.95a6.226,6.226,0,1,0,2.09,2.638l13-10.284a27.129,27.129,0,0,0,26.279,4.447L125.4,65.2a6.237,6.237,0,1,0,11.054.033l12.26-11.453a6.248,6.248,0,1,0-2.3-2.46l-12.26,11.454a6.224,6.224,0,0,0-6.444-.019l-4.617-4.366a27.158,27.158,0,1,0-39.6-26.465,1.683,1.683,0,0,0,1.531,1.823Zm17.426,10.152a2.871,2.871,0,1,1,2.871,2.871A2.874,2.874,0,0,1,102.445,43.893ZM74.711,70.968A2.871,2.871,0,1,1,77.582,68.1,2.874,2.874,0,0,1,74.711,70.968Zm77.238-25.392a2.871,2.871,0,1,1-2.871,2.871A2.874,2.874,0,0,1,151.949,45.576ZM133,66.129l.01.011.006.006a2.871,2.871,0,1,1-4.185-.017l0,0,0,0a2.858,2.858,0,0,1,4.163.007Zm1.28-33.512H111.448L98.822,13.59A23.8,23.8,0,0,1,134.28,32.618Z" transform="translate(-53.109)" fill="#3b537c"/>
  </g>
</svg>
