<svg xmlns="http://www.w3.org/2000/svg" width="130.379" height="129.483" viewBox="0 0 130.379 129.483">
  <g id="HDWO_4th_svg" transform="translate(0 -1.758)">
    <g id="Group_2891" data-name="Group 2891" transform="translate(25.404 72.204)">
      <g id="Group_2890" data-name="Group 2890">
        <path id="Path_4747" data-name="Path 4747" d="M105.565,278.4a5.8,5.8,0,1,0,5.8,5.8A5.809,5.809,0,0,0,105.565,278.4Zm0,7.779a1.976,1.976,0,1,1,1.976-1.976A1.978,1.978,0,0,1,105.565,286.181Z" transform="translate(-99.762 -278.402)" fill="#3b537c"/>
      </g>
    </g>
    <g id="Group_2893" data-name="Group 2893" transform="translate(46.576 95.65)">
      <g id="Group_2892" data-name="Group 2892">
        <path id="Path_4748" data-name="Path 4748" d="M220.038,383.929a1.913,1.913,0,0,0-1.82-1.323H206.851l-3.513-10.81a1.914,1.914,0,0,0-3.64,0l-3.513,10.81H184.819a1.914,1.914,0,0,0-1.125,3.462l9.2,6.681-3.513,10.81a1.914,1.914,0,0,0,2.945,2.139l9.2-6.681,9.2,6.681a1.914,1.914,0,0,0,2.944-2.139l-3.513-10.81,9.2-6.681A1.912,1.912,0,0,0,220.038,383.929Zm-13.265,6.541a1.913,1.913,0,0,0-.7,2.139l2.122,6.532-5.556-4.037a1.93,1.93,0,0,0-2.249,0l-5.556,4.037,2.122-6.532a1.913,1.913,0,0,0-.7-2.139l-5.556-4.037h6.868a1.914,1.914,0,0,0,1.82-1.322l2.122-6.532,2.122,6.532a1.914,1.914,0,0,0,1.82,1.322h6.868Z" transform="translate(-182.906 -370.474)" fill="#3b537c"/>
      </g>
    </g>
    <g id="Group_2895" data-name="Group 2895" transform="translate(93.152 95.65)">
      <g id="Group_2894" data-name="Group 2894">
        <path id="Path_4749" data-name="Path 4749" d="M402.945,383.928a1.914,1.914,0,0,0-1.82-1.322H389.758l-3.513-10.81a1.914,1.914,0,0,0-3.64,0l-3.513,10.81H367.726a1.914,1.914,0,0,0-1.125,3.462l9.2,6.681-3.513,10.81a1.914,1.914,0,0,0,2.945,2.139l9.2-6.681,9.2,6.681a1.914,1.914,0,0,0,2.945-2.139l-3.513-10.81,9.2-6.681A1.912,1.912,0,0,0,402.945,383.928Zm-13.265,6.542a1.913,1.913,0,0,0-.7,2.139l2.122,6.532L385.55,395.1a1.913,1.913,0,0,0-2.25,0l-5.556,4.037,2.122-6.532a1.913,1.913,0,0,0-.7-2.139l-5.556-4.037h6.868a1.914,1.914,0,0,0,1.82-1.322l2.122-6.532,2.122,6.532a1.914,1.914,0,0,0,1.82,1.322h6.868Z" transform="translate(-365.813 -370.473)" fill="#3b537c"/>
      </g>
    </g>
    <g id="Group_2897" data-name="Group 2897" transform="translate(0 95.65)">
      <g id="Group_2896" data-name="Group 2896">
        <path id="Path_4750" data-name="Path 4750" d="M37.132,383.929a1.914,1.914,0,0,0-1.82-1.323H23.945L20.433,371.8a1.914,1.914,0,0,0-3.64,0l-3.513,10.81H1.913a1.914,1.914,0,0,0-1.125,3.462l9.2,6.681L6.472,403.56A1.914,1.914,0,0,0,9.417,405.7l9.2-6.681,9.2,6.681a1.913,1.913,0,0,0,2.944-2.139L27.24,392.75l9.2-6.681A1.912,1.912,0,0,0,37.132,383.929Zm-13.266,6.541a1.913,1.913,0,0,0-.7,2.139l2.122,6.532L19.737,395.1a1.93,1.93,0,0,0-2.25,0l-5.556,4.036,2.122-6.532a1.913,1.913,0,0,0-.7-2.139L7.8,386.434H14.67a1.914,1.914,0,0,0,1.82-1.322l2.122-6.532,2.122,6.532a1.914,1.914,0,0,0,1.82,1.322h6.868Z" transform="translate(0 -370.474)" fill="#3b537c"/>
      </g>
    </g>
    <g id="Group_2899" data-name="Group 2899" transform="translate(16.329 1.758)">
      <g id="Group_2898" data-name="Group 2898" transform="translate(0 0)">
        <path id="Path_4751" data-name="Path 4751" d="M162.684,49.463a8.668,8.668,0,0,0-5.428-15.429H126.476a35.129,35.129,0,0,0,2.692-9.681c1.466-10.265-.749-15.713-2.866-18.476a10.21,10.21,0,0,0-6.961-4.09,4.079,4.079,0,0,0-4.521,3.906c-.358,3.681-1.669,13.778-3.546,17.533-4.823,9.645-16.321,15.4-19.872,16.987a7.066,7.066,0,0,0-4.62-1.716H71.225a7.107,7.107,0,0,0-7.1,7.1V84.489a7.107,7.107,0,0,0,7.1,7.1H86.782a7.082,7.082,0,0,0,5.28-2.36,18.118,18.118,0,0,0,9.78,2.7H151.85a8.667,8.667,0,0,0,6.508-14.4,8.665,8.665,0,0,0,2.7-13.516,8.667,8.667,0,0,0,1.624-14.549Zm-75.9,38.3H71.225a3.276,3.276,0,0,1-3.272-3.272V45.6a3.276,3.276,0,0,1,3.272-3.272H86.782a3.26,3.26,0,0,1,2.334.983V85.982a1.905,1.905,0,0,0,.12.664A3.263,3.263,0,0,1,86.782,87.761Zm62.435-36.384h8.041a4.844,4.844,0,1,1,0,9.688h-8.041a1.914,1.914,0,1,0,0,3.827h5.337a4.844,4.844,0,0,1,0,9.688h-6.8a1.914,1.914,0,1,0,0,3.827h4.1a4.844,4.844,0,0,1,0,9.689H101.843a14.155,14.155,0,0,1-8.081-2.317,7.1,7.1,0,0,0,.12-1.291V45.6a7.07,7.07,0,0,0-.333-2.146c4.484-2.058,15.963-8.142,21.148-18.512,2.594-5.187,3.887-18.4,3.94-18.955.006-.061.009-.122.009-.183a.211.211,0,0,1,.074-.164.19.19,0,0,1,.157-.05A6.435,6.435,0,0,1,123.264,8.2c1.671,2.181,3.394,6.659,2.116,15.607-1.084,7.585-3.653,10.9-3.669,10.924a1.93,1.93,0,0,0,1.481,3.126h34.065a4.844,4.844,0,0,1,0,9.689h-8.041a1.913,1.913,0,1,0,0,3.827Z" transform="translate(-64.126 -1.758)" fill="#3b537c"/>
      </g>
    </g>
  </g>
</svg>
