<svg xmlns="http://www.w3.org/2000/svg" width="121.105" height="121.105" viewBox="0 0 121.105 121.105">
  <g id="HDWO_5th_svg" transform="translate(0)">
    <path id="Path_4752" data-name="Path 4752" d="M244.787,323.128a1.774,1.774,0,0,0-2.5.246l-5.011,6.107-1.893-1.642a1.774,1.774,0,0,0-2.325,2.68l3.271,2.836a1.773,1.773,0,0,0,1.162.434q.075,0,.15-.006a1.774,1.774,0,0,0,1.221-.642l6.167-7.516a1.773,1.773,0,0,0-.246-2.5Z" transform="translate(-177.468 -246.39)" fill="#3b537c"/>
    <path id="Path_4753" data-name="Path 4753" d="M109.532,102.713q-.458-.125-.91-.25c-.4-.111-.715-.674-.954-1.233,4.569-3.168,7.972-8.6,7.972-13.331v-4.3c0-5.311-1.664-9.822-4.811-13.043a15.223,15.223,0,0,0-10.712-4.588h-.059a15.225,15.225,0,0,0-10.712,4.588c-3.147,3.221-4.811,7.732-4.811,13.043v4.3c0,4.734,3.4,10.162,7.974,13.33-.238.559-.556,1.123-.957,1.234q-.453.127-.914.252a35.248,35.248,0,0,0-4.874,1.6L73.4,91.529a15.034,15.034,0,0,0,3.158-9.242A14.873,14.873,0,0,0,63.535,67.435v-12.3h16.72a2.9,2.9,0,0,0,2.884-2.907V48.513c0-8.613-6.7-10.437-11.591-11.77q-.449-.122-.893-.245c-.4-.111-.718-.675-.956-1.236,4.571-3.164,7.976-8.592,7.976-13.327v-4.3c0-5.312-1.664-9.822-4.812-13.043A15.233,15.233,0,0,0,62.145,0h-.059A15.225,15.225,0,0,0,51.374,4.588c-3.147,3.221-4.811,7.732-4.811,13.043v4.3c0,4.735,3.405,10.163,7.976,13.327-.238.561-.556,1.125-.957,1.236-.295.082-.593.163-.892.245C47.8,38.076,41.1,39.9,41.1,48.514v3.715a2.9,2.9,0,0,0,2.884,2.907h16v12.33A14.878,14.878,0,0,0,47.2,82.287a15.035,15.035,0,0,0,3.162,9.249L38.347,104.083c-2.32-1.843-5.343-2.673-7.88-3.367q-.461-.126-.918-.253c-.4-.111-.716-.675-.954-1.234,4.571-3.168,7.974-8.6,7.974-13.33V81.6c0-5.311-1.664-9.822-4.811-13.043a15.223,15.223,0,0,0-10.712-4.588h-.059a15.225,15.225,0,0,0-10.712,4.588C7.128,71.775,5.464,76.285,5.464,81.6v4.3c0,4.733,3.4,10.162,7.972,13.331-.239.559-.556,1.122-.955,1.233l-.909.25C6.688,102.048,0,103.875,0,112.485V116.2a2.9,2.9,0,0,0,2.884,2.907H16.958a1.774,1.774,0,0,0,0-3.548H3.548v-3.074c0-4.754,2.527-6.388,6.807-7.726l7.847,4.7a5.139,5.139,0,0,0,2.814.99,5.118,5.118,0,0,0,2.809-.99l7.851-4.7c4.281,1.339,6.809,2.972,6.809,7.725v3.074H24.674a1.774,1.774,0,0,0,0,3.548H39.149a2.9,2.9,0,0,0,2.884-2.907v-3.715a11.3,11.3,0,0,0-1.352-5.71L52.857,94.06a14.429,14.429,0,0,0,18.051-.005L82.632,106.18c-2.078,1.7-3.56,4.252-3.56,8.3V118.2a2.9,2.9,0,0,0,2.884,2.907H96.364a1.774,1.774,0,1,0,0-3.548H82.619v-3.074c0-4.754,2.528-6.386,6.809-7.725l7.851,4.7a4.486,4.486,0,0,0,5.623,0l7.847-4.7c4.281,1.338,6.808,2.971,6.808,7.725v3.074H104.39a1.774,1.774,0,0,0,0,3.548h13.831A2.9,2.9,0,0,0,121.1,118.2v-3.715c0-8.61-6.689-10.437-11.573-11.771Zm-88.515-35.2c5.314.1,10.991,3.862,11.883,11.849a5.872,5.872,0,0,1-1.827-1.444,5.06,5.06,0,0,0-3.805-1.978,5.961,5.961,0,0,0-1.519.211c-.727.19-1.343.357-1.875.5a12.775,12.775,0,0,1-2.858.614,12.789,12.789,0,0,1-2.858-.614c-.532-.145-1.148-.312-1.873-.5-2.9-.762-4.3.7-5.33,1.767a5.863,5.863,0,0,1-1.823,1.442c.893-7.988,6.569-11.748,11.884-11.849ZM9.012,85.9V83.12a8.491,8.491,0,0,0,4.5-2.742c.874-.909.986-1.026,1.872-.793.714.187,1.319.351,1.842.493a14.465,14.465,0,0,0,3.788.738,14.467,14.467,0,0,0,3.788-.738c.523-.142,1.128-.307,1.845-.494.881-.232.993-.115,1.866.794a8.5,8.5,0,0,0,4.505,2.743V85.9c0,4.476-4.292,10.027-9.185,11.878a7.032,7.032,0,0,1-5.645,0C13.3,95.926,9.012,90.375,9.012,85.9ZM21.97,106.437l-.066.042c-.855.565-.922.565-1.784,0l-.063-.039-5.315-3.186a5.862,5.862,0,0,0,1.812-2.309c.127.052.254.106.382.154a11.392,11.392,0,0,0,4.081.822,11.35,11.35,0,0,0,4.076-.822c.129-.049.257-.1.385-.155a5.846,5.846,0,0,0,1.812,2.311ZM62.115,3.548c5.317.1,11,3.861,11.89,11.85a5.858,5.858,0,0,1-1.829-1.448,5.051,5.051,0,0,0-3.8-1.98,5.959,5.959,0,0,0-1.521.212c-.71.187-1.314.352-1.837.5a12.886,12.886,0,0,1-2.9.626,12.866,12.866,0,0,1-2.886-.624c-.525-.144-1.131-.309-1.844-.5-2.9-.763-4.3.7-5.327,1.77A5.873,5.873,0,0,1,50.232,15.4C51.125,7.41,56.8,3.65,62.115,3.548Zm-12,18.387V19.155a8.5,8.5,0,0,0,4.506-2.748c.873-.91.986-1.027,1.864-.8.7.185,1.3.348,1.812.489a14.54,14.54,0,0,0,3.822.75A14.565,14.565,0,0,0,65.95,16.1c.515-.141,1.108-.3,1.8-.487.879-.231.99-.114,1.861.794a8.491,8.491,0,0,0,4.51,2.749v2.78c0,4.4-4.377,10.055-9.185,11.871a7.026,7.026,0,0,1-5.647,0c-4.806-1.815-9.183-7.473-9.183-11.871ZM68.39,39.285l-5.314,3.181-.066.042c-.857.566-.924.566-1.781,0l-.067-.042-5.316-3.18a5.846,5.846,0,0,0,1.813-2.314c.127.052.253.105.381.153a10.518,10.518,0,0,0,8.158,0c.128-.048.255-.1.382-.154a5.848,5.848,0,0,0,1.811,2.313Zm-23.743,12.3V48.514c0-4.75,2.526-6.384,6.806-7.721l7.854,4.7a4.481,4.481,0,0,0,5.624,0l7.849-4.7c4.283,1.337,6.81,2.971,6.81,7.722v3.074ZM61.879,93.681A11.4,11.4,0,1,1,73.01,82.286,11.278,11.278,0,0,1,61.879,93.681Zm38.209-24.17c5.314.1,10.991,3.861,11.883,11.849a5.863,5.863,0,0,1-1.823-1.442c-1.025-1.067-2.429-2.529-5.327-1.768-.727.19-1.343.357-1.875.5a12.775,12.775,0,0,1-2.858.614,12.784,12.784,0,0,1-2.858-.614c-.532-.145-1.148-.312-1.872-.5-2.9-.762-4.3.7-5.327,1.766A5.872,5.872,0,0,1,88.2,81.36c.893-7.987,6.569-11.748,11.884-11.849Zm-12,18.387v-2.78a8.5,8.5,0,0,0,4.5-2.743c.874-.909.986-1.025,1.869-.793.714.187,1.319.351,1.842.493a14.471,14.471,0,0,0,3.789.738,14.467,14.467,0,0,0,3.788-.738c.523-.142,1.128-.307,1.844-.494.884-.232,1-.115,1.87.794a8.488,8.488,0,0,0,4.5,2.742V87.9c0,4.475-4.289,10.026-9.177,11.878a7.035,7.035,0,0,1-5.648,0c-4.893-1.851-9.184-7.4-9.184-11.878Zm12.964,20.537-.063.039c-.862.567-.929.567-1.784,0l-.066-.042-5.319-3.186a5.846,5.846,0,0,0,1.812-2.31c.128.053.255.106.384.155a10.533,10.533,0,0,0,8.159,0c.127-.048.254-.1.381-.154a5.863,5.863,0,0,0,1.811,2.309Z" fill="#3b537c"/>
  </g>
</svg>
