<svg width="245" height="96" xmlns="http://www.w3.org/2000/svg" xmlns:xlink="http://www.w3.org/1999/xlink" xmlns:svgjs="http://svgjs.com/svgjs" viewBox="106 275 245 96"><svg width="9" height="9" xmlns="http://www.w3.org/2000/svg" xmlns:xlink="http://www.w3.org/1999/xlink" xmlns:svgjs="http://svgjs.com/svgjs" fill="#5185eb" x="106" y="275"><svg xmlns="http://www.w3.org/2000/svg" xmlns:xlink="http://www.w3.org/1999/xlink" width="9" height="9" viewBox="0.75 0.75 7.5 7.5"><path paint-order="stroke fill markers" fill-rule="evenodd" d="M4.5 8.25A3.746 3.746 0 0 1 .75 4.5 3.746 3.746 0 0 1 4.5.75 3.747 3.747 0 0 1 8.25 4.5 3.747 3.747 0 0 1 4.5 8.25z"/></svg></svg><svg width="241" height="88" xmlns="http://www.w3.org/2000/svg" xmlns:xlink="http://www.w3.org/1999/xlink" xmlns:svgjs="http://svgjs.com/svgjs" viewBox="110 283 241 88" x="110" y="283"><svg width="8" height="8" xmlns="http://www.w3.org/2000/svg" xmlns:xlink="http://www.w3.org/1999/xlink" xmlns:svgjs="http://svgjs.com/svgjs" fill="#5185eb" x="343" y="363"><svg xmlns="http://www.w3.org/2000/svg" xmlns:xlink="http://www.w3.org/1999/xlink" width="8" height="8" viewBox="0.25 0.5 7.5 7.5"><path paint-order="stroke fill markers" fill-rule="evenodd" d="M4 8A3.746 3.746 0 0 1 .25 4.25 3.746 3.746 0 0 1 4 .5a3.747 3.747 0 0 1 3.75 3.75A3.747 3.747 0 0 1 4 8z"/></svg></svg><svg width="237" height="85" xmlns="http://www.w3.org/2000/svg" xmlns:xlink="http://www.w3.org/1999/xlink" xmlns:svgjs="http://svgjs.com/svgjs" viewBox="0 0.445 237 84.109" fill="none" stroke-miterlimit="100" stroke-linecap="round" stroke="#ff6498" stroke-width="2" x="110" y="283"><svg xmlns="http://www.w3.org/2000/svg" width="237" height="85" viewBox="0.5 0.25 236.5 83.932"><path paint-order="stroke fill markers" d="M.5.25s19.242 62.03 86.959 63.559c67.717 1.528 113.566 0 149.54 20.373L.5.25"/></svg></svg></svg></svg>