<svg version="1.2" baseProfile="tiny-ps" xmlns="http://www.w3.org/2000/svg" viewBox="0 0 111 122" width="111" height="122">
	<title>Betacrew_howitworks_web</title>
	<style>
		tspan { white-space:pre }
		.shp0 { fill: #ff6498 } 
	</style>
	<g id="Betacrew_howitworks_web">
		<g id="Group 2941">
			<g id="note">
				<path id="Path 4703" class="shp0" d="M80.76 43.85L14.06 43.85C13.08 43.85 12.28 44.64 12.28 45.63C12.28 46.61 13.08 47.4 14.06 47.4L80.76 47.4C81.74 47.4 82.53 46.61 82.53 45.63C82.53 44.64 81.74 43.85 80.76 43.85L80.76 43.85Z" />
				<path id="Path 4704" class="shp0" d="M82.53 62.03C82.53 61.05 81.74 60.26 80.76 60.26L14.06 60.26C13.08 60.26 12.28 61.05 12.28 62.03C12.28 63.01 13.08 63.81 14.06 63.81L80.76 63.81C81.74 63.81 82.53 63.01 82.53 62.03Z" />
				<path id="Path 4705" class="shp0" d="M62.32 78.44C62.32 77.46 61.52 76.67 60.54 76.67L14.06 76.67C13.08 76.67 12.28 77.46 12.28 78.44C12.28 79.42 13.08 80.21 14.06 80.21L60.54 80.21C61.52 80.21 62.32 79.42 62.32 78.44Z" />
				<path id="Path 4706" class="shp0" d="M14.06 93.07C13.08 93.07 12.28 93.87 12.28 94.85C12.28 95.83 13.08 96.62 14.06 96.62L47.41 96.62C48.39 96.62 49.18 95.83 49.18 94.85C49.18 93.87 48.39 93.07 47.41 93.07L14.06 93.07Z" />
				<path id="Path 4707" class="shp0" d="M14.06 19.93L49.81 19.93C50.79 19.93 51.58 19.13 51.58 18.15C51.58 17.17 50.79 16.38 49.81 16.38L14.06 16.38C13.08 16.38 12.28 17.17 12.28 18.15C12.28 19.13 13.08 19.93 14.06 19.93Z" />
				<path id="Path 4708" class="shp0" d="M14.06 31.61L49.81 31.61C50.79 31.61 51.58 30.81 51.58 29.83C51.58 28.85 50.79 28.06 49.81 28.06L14.06 28.06C13.08 28.06 12.28 28.85 12.28 29.83C12.28 30.81 13.08 31.61 14.06 31.61Z" />
				<path id="Path 4709" fill-rule="evenodd" class="shp0" d="M110.97 52.06C110.97 53.26 110.5 54.39 109.65 55.24L105.43 59.46C105.61 59.92 105.71 60.42 105.71 60.93C105.71 61.97 105.31 62.95 104.57 63.68L53.93 114.32C53.82 114.43 53.7 114.52 53.57 114.6L47.76 118.01L88.81 118.01C91.28 118.01 93.3 116 93.3 113.52L93.3 79.16C93.3 78.18 94.09 77.38 95.07 77.38C96.05 77.38 96.85 78.18 96.85 79.16L96.85 113.52C96.85 117.95 93.24 121.56 88.81 121.56L8.85 121.56C4.41 121.56 0.81 117.95 0.81 113.52L0.81 8.48C0.81 4.05 4.41 0.44 8.85 0.44L67.45 0.44C67.92 0.44 68.38 0.63 68.71 0.96L96.33 28.58C96.66 28.91 96.85 29.36 96.85 29.83L96.85 48.03C96.85 49.01 96.05 49.8 95.07 49.8C94.09 49.8 93.3 49.01 93.3 48.03L93.3 31.61L72.19 31.61C68.6 31.61 65.68 28.69 65.68 25.1L65.68 3.99L8.85 3.99C6.37 3.99 4.36 6 4.36 8.48L4.36 113.52C4.36 116 6.37 118.01 8.85 118.01L37.12 118.01C37.11 117.36 37.27 116.7 37.63 116.09L44.08 105.1C44.15 104.97 44.25 104.85 44.35 104.75L94.99 54.11C96.08 53.02 97.65 52.71 99.01 53.18L103.3 48.89C105.05 47.14 107.9 47.14 109.65 48.89C110.5 49.73 110.97 50.86 110.97 52.06ZM72.19 28.06L90.79 28.06L69.23 6.5L69.23 25.1C69.23 26.73 70.56 28.06 72.19 28.06ZM96.92 66.31L92.37 61.75L90.14 63.98L94.69 68.54L96.92 66.31ZM92.18 71.05L87.63 66.49L48.12 106L52.68 110.56L92.18 71.05ZM40.75 118.01L40.75 118.01C40.75 118.01 40.77 118 40.79 117.99L49.8 112.7L45.98 108.88L40.69 117.89C40.67 117.91 40.67 117.93 40.67 117.93C40.67 117.96 40.72 118 40.75 118.01ZM102.06 61.18C102.14 61.09 102.16 60.99 102.16 60.93C102.16 60.86 102.14 60.77 102.06 60.68L98 56.62C97.86 56.48 97.64 56.48 97.5 56.62L94.88 59.24L99.43 63.8L102.06 61.18ZM107.14 52.73C107.32 52.55 107.42 52.31 107.42 52.06C107.42 51.81 107.32 51.57 107.14 51.4C106.78 51.03 106.18 51.03 105.81 51.4L101.8 55.41L103.13 56.74L107.14 52.73Z" />
			</g>
		</g>
	</g>
</svg>