<svg version="1.2" baseProfile="tiny-ps" xmlns="http://www.w3.org/2000/svg" viewBox="0 0 554 649" width="554" height="649">
	<title>Betacrew_homepage_web</title>
	<style>
		tspan { white-space:pre }
		.txt0 { font-size: 45px;line-height: 56px;fill: #000000;font-weight: bold;font-family: "Graphik" } 
		.shp1 { fill: none;stroke: #5185eb;stroke-width: 90 } 
		.shp2 { fill: #e2e2e2 } 
		.shp3 { fill: #000000 } 
		.shp4 { fill: #edeeef } 
		.shp5 { fill: none;stroke: #000000;stroke-linecap:round;stroke-width: 1.5 } 
		.shp6 { fill: #ff6498 } 
		.shp7 { fill: none;stroke: #ff6498;stroke-linecap:round;stroke-width: 1.5 } 
		.shp8 { fill: none;stroke: #000000;stroke-width: 1.5 } 
	</style>
	<g id="Betacrew_homepage_web">
		<g id="Group 2909">
			<path id="Path 4645" class="shp1" d="M76.2 505.19C76.2 505.19 112.13 369.67 246.25 372.18C380.38 374.69 418.7 505.19 418.7 505.19" />
			<g id="Group">
				<path id="Path" class="shp2" d="M384.79 580.74C367.8 471.05 268.36 423.47 268.36 423.47L226.94 444.87C225.48 444.87 234.7 484.16 234.7 484.16L296.06 511.34L352.88 599.22L396.11 584.28L384.79 580.74Z" />
				<path id="Path" class="shp3" d="M299.52 443.39C276.01 431.98 248.03 435.09 227.61 451.39C229.63 462.56 234.7 484.16 234.7 484.16L296.06 511.34L320.59 549.28C340.84 526.43 343.31 492.86 326.63 467.3C318.18 458.68 309.12 450.69 299.52 443.39Z" />
				<path id="Path" class="shp4" d="M331.3 487.4C329.31 431.31 262.41 422.33 262.41 422.33L185 403.3C185 403.3 172.23 487.87 269.89 489.29L223.71 580.74L266.15 599.22L262.41 586.4C262.41 586.4 332.49 520.9 331.3 487.4Z" />
				<path id="Path" class="shp5" d="M185 403.3C185 403.3 172.23 487.87 269.89 489.29L223.71 580.74" />
				<path id="Path" class="shp6" d="M185 348.65L185 403.3L262.41 422.33L262.41 361.46C262.41 339.88 247.68 321.09 226.72 315.94L226.72 315.94C216.67 313.47 206.04 315.76 197.9 322.14C189.75 328.53 185 338.3 185 348.65L185 348.65Z" />
				<path id="Path" class="shp4" d="M207.83 286.12L207.83 294.84C207.83 301.58 212.43 307.46 218.98 309.07L232.85 312.48L232.85 278.38L221.32 275.55C218.07 274.75 214.63 275.49 212 277.55C209.37 279.62 207.83 282.78 207.83 286.12L207.83 286.12Z" />
				<path id="Path" class="shp5" d="M207.83 294.84C207.83 301.58 212.43 307.46 218.98 309.07L232.85 312.48" />
				<path id="Oval" class="shp3" d="M221.96 293.11C221.59 293.11 221.3 292.81 221.3 292.44C221.3 292.07 221.59 291.77 221.96 291.77C222.33 291.77 222.63 292.07 222.63 292.44C222.63 292.81 222.33 293.11 221.96 293.11Z" />
				<path id="Oval" class="shp3" d="M211.69 293.11C211.32 293.11 211.02 292.81 211.02 292.44C211.02 292.07 211.32 291.77 211.69 291.77C212.06 291.77 212.36 292.07 212.36 292.44C212.36 292.81 212.06 293.11 211.69 293.11Z" />
				<path id="Path" class="shp5" d="M214.7 296.43L214.7 286.12L209.54 286.12" />
				<path id="Path" class="shp5" d="M223.23 286.12L218.06 286.12" />
				<path id="Path" class="shp4" d="M231.21 291.41L231.21 294.99C233.14 294.99 234.7 293.42 234.7 291.49C234.7 291.38 234.7 291.28 234.69 291.17C234.49 289 231.21 289.23 231.21 291.41Z" />
				<path id="Path" class="shp5" d="M231.21 294.99C233.14 294.99 234.7 293.42 234.7 291.49" />
				<path id="Path" class="shp7" d="M217.25 300.57C218.07 300.13 219.18 299.89 220.34 299.89C221.5 299.89 222.61 300.13 223.43 300.57" />
				<path id="Path" class="shp5" d="M214.7 296.44L216.96 297" />
				<path id="Path" class="shp5" d="M207.3 290.04C207.3 290.04 213.52 286.8 214.58 281.32C214.59 281.23 214.66 281.17 214.74 281.16C214.83 281.15 214.91 281.21 214.93 281.29C215.7 283.66 218.86 289.91 231.21 291.41" />
				<path id="Path" class="shp5" d="M207.83 293.24C207.83 293.24 201.64 290.51 202.74 283.28C203.84 276.04 225.07 256.33 239.38 275.23C253.69 294.13 277.36 329.82 277.36 329.82L261.74 332.23C254.51 333.34 247.15 331.23 241.6 326.47C236.05 321.71 232.85 314.76 232.85 307.44L232.85 297.64" />
				<path id="Path" class="shp4" d="M410.25 390.16L287.07 390.16L295.52 316.26L418.7 316.26L410.25 390.16Z" />
				<path id="Path" class="shp5" d="M405.36 383.86L282.18 383.86L290.62 309.96L413.81 309.96L405.36 383.86Z" />
				<path id="Path" class="shp3" d="M352.2 411.87L355.4 383.86L335.7 383.86L332.49 411.87L352.2 411.87Z" />
				<path id="Path" class="shp5" d="M247.02 411.87L415.59 411.87" />
				<path id="Path" class="shp5" d="M195.45 324.11C195.45 324.11 163.54 350.32 155.52 392.68C147.5 435.03 211.09 424.86 241.38 412.39" />
				<path id="Path" class="shp5" d="M189.25 390.16C189.25 390.16 261.2 377.44 266.15 408.95" />
				<path id="Path" class="shp5" d="M243.71 324.11C243.71 324.11 266.29 347.41 272.24 390.16C272.24 390.16 295.15 390.95 296.06 408.95" />
				<path id="Path" class="shp5" d="M182.13 337.92C182.13 337.92 171.86 316.61 163.37 335.01C154.88 353.41 117.77 474.66 156.93 494.95C196.09 515.24 253.35 504.1 253.35 504.1" />
				<path id="Path" class="shp5" d="M210.08 507.15L210.08 643.7L163.37 643.7" />
			</g>
			<path id="Path" class="shp2" d="M448.69 255.73L437.34 267.26L437.34 255.73L448.69 255.73L448.69 255.73Z" />
			<path id="Path" class="shp8" d="M437.34 267.26L437.34 255.73" />
			<path id="Rectangle" class="shp4" d="M493.82 257.56L418.7 257.56L418.7 207.14L493.82 207.14L493.82 257.56Z" />
			<path id="Path" class="shp8" d="M418.7 207.14L418.7 257.56L437.34 257.56" />
			<path id="Rectangle" class="shp6" d="M473.38 234.66L468.76 234.66L468.76 230.04L473.38 230.04L473.38 234.66Z" />
			<path id="Rectangle" class="shp6" d="M458.57 234.66L453.95 234.66L453.95 230.04L458.57 230.04L458.57 234.66Z" />
			<path id="Rectangle" class="shp6" d="M443.76 234.66L439.14 234.66L439.14 230.04L443.76 230.04L443.76 234.66Z" />
			<path id="Path" class="shp4" d="M164.15 257.82L161.08 264.04L154.22 265.03L159.18 269.87L158.01 276.7L164.15 273.48L170.28 276.7L169.11 269.87L174.07 265.03L167.21 264.04L164.15 257.82L164.15 257.82Z" />
			<path id="Path" class="shp8" d="M164.15 257.82L161.08 264.04L154.22 265.03L159.18 269.87L158.01 276.7L164.15 273.48L170.28 276.7" />
			<path id="Path" class="shp4" d="M136.75 257.82L133.69 264.04L126.82 265.03L131.79 269.87L130.62 276.7L136.75 273.48L142.89 276.7L141.72 269.87L146.68 265.03L139.82 264.04L136.75 257.82L136.75 257.82Z" />
			<path id="Path" class="shp8" d="M141.72 269.87L146.68 265.03" />
			<path id="Path" class="shp8" d="M136.75 257.82L133.69 264.04L126.82 265.03L131.79 269.87L130.62 276.7L136.75 273.48L142.89 276.7" />
			<path id="Path" class="shp4" d="M109.36 257.82L106.29 264.04L99.43 265.03L104.4 269.87L103.22 276.7L109.36 273.48L115.49 276.7L114.32 269.87L119.29 265.03L112.43 264.04L109.36 257.82L109.36 257.82Z" />
			<path id="Path" class="shp8" d="M114.32 269.87L119.29 265.03" />
			<path id="Path" class="shp8" d="M109.36 257.82L106.29 264.04L99.43 265.03L104.4 269.87L103.22 276.7L109.36 273.48L115.49 276.7" />
			<path id="Path" class="shp4" d="M81.97 257.82L78.9 264.04L72.04 265.03L77 269.87L75.83 276.7L81.97 273.48L88.1 276.7L86.93 269.87L91.89 265.03L85.03 264.04L81.97 257.82L81.97 257.82Z" />
			<path id="Path" class="shp8" d="M86.93 269.87L91.89 265.03" />
			<path id="Path" class="shp8" d="M81.97 257.82L78.9 264.04L72.04 265.03L77 269.87L75.83 276.7L81.97 273.48L88.1 276.7" />
			<path id="Path" class="shp6" d="M54.57 257.82L51.51 264.04L44.65 265.03L49.61 269.87L48.44 276.7L54.57 273.48L60.71 276.7L59.54 269.87L64.5 265.03L57.64 264.04L54.57 257.82L54.57 257.82Z" />
			<path id="Path" class="shp8" d="M59.54 269.87L64.5 265.03" />
			<path id="Path" class="shp8" d="M54.57 257.82L51.51 264.04L44.65 265.03L49.61 269.87L48.44 276.7L54.57 273.48L60.71 276.7" />
			<path id="Path" class="shp4" d="M502.2 327.71C483.73 327.71 468.76 342.69 468.76 361.15C468.76 379.62 483.73 394.59 502.2 394.59C520.67 394.59 535.64 379.62 535.64 361.15L502.2 361.15L502.2 327.71Z" />
			<path id="Path" class="shp6" d="M502.2 317.6L502.2 361.16L545.75 361.16C545.75 349.6 541.16 338.53 532.99 330.36C524.83 322.19 513.75 317.6 502.2 317.6Z" />
		</g>
	</g>
</svg>