<svg version="1.2" baseProfile="tiny-ps" xmlns="http://www.w3.org/2000/svg" viewBox="0 0 685 487" width="685" height="487">
	<title>Betacrew_homepage_web</title>
	<style>
		tspan { white-space:pre }
		.shp0 { fill: #edeeef } 
		.shp1 { fill: none;stroke: #000000;stroke-width: 1.5 } 
		.shp2 { fill: #ff6498 } 
		.shp3 { fill: #e2e2e2 } 
		.shp4 { fill: #000000 } 
		.shp5 { fill: none;stroke: #ff6498;stroke-linecap:round;stroke-width: 1.5 } 
		.shp6 { fill: none;stroke: #000000;stroke-linecap:round;stroke-width: 1.5 } 
	</style>
	<g id="Betacrew_homepage_web">
		<g id="Group 2837">
			<g id="Group">
				<path id="Oval" class="shp0" d="M318.95 258.48C265.23 258.48 221.81 215.06 221.81 161.34C221.81 107.62 265.23 64.2 318.95 64.2C372.67 64.2 416.09 107.62 416.09 161.34C416.09 215.06 372.67 258.48 318.95 258.48Z" />
				<path id="Oval" class="shp1" d="M318.95 258.48C265.23 258.48 221.81 215.06 221.81 161.34C221.81 107.62 265.23 64.2 318.95 64.2C372.67 64.2 416.09 107.62 416.09 161.34C416.09 215.06 372.67 258.48 318.95 258.48Z" />
				<path id="Rectangle" class="shp0" d="M283.64 39.68L354.26 39.68L354.26 283L283.64 283L283.64 39.68Z" />
				<path id="Rectangle" class="shp0" d="M195.93 131.09L231.25 69.93L441.97 191.59L406.66 252.75L195.93 131.09Z" />
				<path id="Rectangle" class="shp0" d="M231.25 252.75L195.93 191.59L406.66 69.93L441.97 131.09L231.25 252.75Z" />
				<path id="Oval" class="shp2" d="M318.95 185.63C305.52 185.63 294.67 174.77 294.67 161.34C294.67 147.91 305.52 137.06 318.95 137.06C332.38 137.06 343.24 147.91 343.24 161.34C343.24 174.77 332.38 185.63 318.95 185.63Z" />
				<path id="Path" class="shp1" d="M294.67 161.34C294.67 147.93 305.54 137.06 318.95 137.06" />
				<path id="Path" class="shp3" d="M241.19 433.26C232.82 345.74 180.84 216.25 180.84 216.25L135.41 188.21L140.43 258.23L147.2 325.06L204.66 454.32L257.17 437.82L241.19 433.26Z" />
				<path id="Path" class="shp0" d="M167.3 199.12C167.3 199.12 177.54 366.29 148.62 445.44L154.66 454.32L103.21 454.32C103.21 454.32 97.59 241.69 97.59 195.79L167.3 199.12Z" />
				<path id="Path" class="shp0" d="M149.04 69.78L149.04 91.5L122.12 98.12L122.12 61.45L149.04 54.84L149.04 69.78L149.04 69.78Z" />
				<path id="Oval" class="shp4" d="M133.83 77.29C133.43 77.29 133.11 76.97 133.11 76.57C133.11 76.18 133.43 75.85 133.83 75.85C134.23 75.85 134.55 76.18 134.55 76.57C134.55 76.97 134.23 77.29 133.83 77.29Z" />
				<path id="Oval" class="shp4" d="M144.89 77.29C144.49 77.29 144.17 76.97 144.17 76.57C144.17 76.18 144.49 75.85 144.89 75.85C145.28 75.85 145.61 76.18 145.61 76.57C145.61 76.97 145.28 77.29 144.89 77.29Z" />
				<path id="Path" class="shp1" d="M141.64 80.87L141.64 69.78L147.2 69.78" />
				<path id="Path" class="shp1" d="M132.48 69.78L138.03 69.78" />
				<path id="Path" class="shp1" d="M148.06 67.96L148.06 67.96" />
				<path id="Path" class="shp0" d="M123.9 75.46L123.9 79.31C121.82 79.31 120.13 77.63 120.13 75.55C120.13 75.43 120.14 75.32 120.15 75.21C120.36 72.87 123.9 73.11 123.9 75.46Z" />
				<path id="Path" class="shp1" d="M123.9 79.31C121.82 79.31 120.13 77.63 120.13 75.55" />
				<path id="Path" class="shp5" d="M139.21 83.6C137.11 83.6 135.41 81.9 135.41 79.79" />
				<path id="Path" class="shp1" d="M149.04 91.5L122.12 98.12" />
				<path id="Path" class="shp6" d="M141.64 80.88L139.21 81.47" />
				<path id="Path" class="shp1" d="M149.95 60.35C149.95 60.35 143.25 65.34 129.89 63.81C129.89 63.81 129.89 72.62 125.15 75.32" />
				<path id="Path" class="shp1" d="M149.95 71.68C149.95 71.68 160.86 57.47 145.08 53.5C129.29 49.52 122.02 57.3 122.02 57.3C122.02 57.3 107.09 59.76 122.93 87.07" />
				<path id="Path" class="shp2" d="M97.59 137.02L97.59 195.79L180.84 216.25L180.84 150.8C180.84 127.59 165 107.38 142.46 101.84L142.46 101.84C131.65 99.19 120.22 101.65 111.46 108.51C102.7 115.38 97.59 125.89 97.59 137.02L97.59 137.02Z" />
				<path id="Path" class="shp1" d="M167.3 199.12C167.3 199.12 177.54 366.29 148.62 445.44" />
				<path id="Path" class="shp1" d="M106.33 113.42C106.33 113.42 60.97 173.6 79.61 209.09C98.25 244.59 188.18 191.16 189.2 181.69C190.21 172.22 169.06 177.3 169.06 177.3C169.06 177.3 171.61 160.04 160.79 176.96L120.13 181.35L133.32 149.56" />
				<path id="Path" class="shp4" d="M124.56 170.69L120.13 181.35L150.61 178.06C143.53 174.35 134.55 171.73 124.56 170.69Z" />
				<path id="Path" class="shp4" d="M97.84 220.75C97.91 225.29 97.99 230.19 98.08 235.38C119.56 235.21 147.49 223.59 160.09 211.15L160.1 211.16C160.26 211 160.41 210.84 160.57 210.68C160.61 210.64 160.65 210.59 160.69 210.55C160.9 210.33 161.11 210.12 161.31 209.9C161.35 209.86 161.38 209.82 161.42 209.78C161.63 209.56 161.82 209.34 162.02 209.11C162.05 209.08 162.08 209.04 162.11 209.01C162.3 208.78 162.49 208.55 162.68 208.33C162.7 208.3 162.73 208.26 162.76 208.23C162.94 208 163.12 207.77 163.3 207.54C163.32 207.51 163.34 207.48 163.36 207.46C163.53 207.22 163.71 206.99 163.87 206.75C163.88 206.73 163.9 206.71 163.91 206.69C164.08 206.45 164.24 206.2 164.39 205.96C164.4 205.95 164.42 205.93 164.43 205.91C164.58 205.67 164.73 205.42 164.87 205.18L164.89 205.15C165.03 204.9 165.17 204.65 165.3 204.4L165.31 204.38C165.44 204.12 165.56 203.87 165.67 203.62L165.67 203.61C166.27 202.34 166.63 200.98 166.76 199.58C146.73 211.25 117.6 223.42 97.84 220.75Z" />
				<path id="Path" class="shp1" d="M156.63 177.41L157.3 175.35C158.92 170.38 163.17 166.73 168.33 165.86L196.26 161.16C200.78 160.4 205.24 162.77 207.14 166.93L207.14 166.93C207.23 167.13 207.45 167.25 207.66 167.21L265.98 158.52L266.72 156.02C267.02 154.98 268.04 154.31 269.12 154.46L280.92 156C281.95 156.14 282.72 157.02 282.72 158.06L282.72 159.48C282.72 160.33 282.2 161.1 281.41 161.41L271.46 165.33C270.11 165.86 268.58 165.45 267.67 164.32L266.49 162.84L208.13 172.94C207.98 172.97 207.85 173.06 207.77 173.2L207.55 173.61C203.76 180.75 196.91 185.76 188.96 187.22L183.6 188.21" />
				<path id="Path" class="shp1" d="M153.63 106.04C153.63 106.04 177.45 116.16 212.45 165.82" />
				<path id="Path" class="shp1" d="M180.84 200.97C180.84 200.97 221.33 215.18 232.49 204.69C243.66 194.21 247.04 165.82 247.04 165.82" />
				<path id="Path" class="shp1" d="M247.04 161.34C247.04 161.34 249.49 136.96 249.24 129.86C249.24 129.86 253.43 132.14 257.17 130.87C257.17 130.87 259.64 134.93 261.41 134.68C263.19 134.42 262.43 126.05 255.58 117.43C248.73 108.8 218.22 108.86 209.25 161.34" />
				<path id="Path" class="shp4" d="M110.53 396.61C108.31 390.41 101.82 398.6 101.82 398.6C101.82 398.6 109.64 381.99 101.82 378.22C97.96 376.36 95.93 378.55 94.87 381.24C98.87 357.09 99.73 310.5 83.58 308.88C65.94 307.11 71.98 351.86 71.98 351.86C71.98 351.86 67.1 339.01 60.9 344.77C54.7 350.53 66.66 388.19 66.66 388.19C65.33 384.2 58.24 381.1 55.58 388.19C52.93 395.28 63.12 410.34 63.12 410.34L98.12 416.1C98.12 416.1 112.74 402.81 110.53 396.61Z" />
				<path id="Path" class="shp2" d="M107.92 453.32L57.8 453.32L46.72 408.54L119 408.54L107.92 453.32L107.92 453.32Z" />
				<path id="Path" class="shp1" d="M1.92 453.32L169.06 453.32" />
				<path id="Path" class="shp1" d="M46.72 408.54L119 408.54" />
				<path id="Path" class="shp4" d="M513.18 453.32L329.3 453.32L399.8 296.39L513.18 296.39L513.18 453.32L513.18 453.32Z" />
				<path id="Rectangle" class="shp0" d="M253.24 430.91L373.16 430.91L373.16 453.32L253.24 453.32L253.24 430.91Z" />
				<path id="Rectangle" class="shp0" d="M273.26 408.49L393.18 408.49L393.18 430.91L273.26 430.91L273.26 408.49Z" />
				<path id="Rectangle" class="shp0" d="M293.29 386.07L413.21 386.07L413.21 408.49L293.29 408.49L293.29 386.07Z" />
				<path id="Rectangle" class="shp0" d="M313.31 363.65L433.23 363.65L433.23 386.07L313.31 386.07L313.31 363.65Z" />
				<path id="Rectangle" class="shp0" d="M333.34 341.23L453.26 341.23L453.26 363.65L333.34 363.65L333.34 341.23Z" />
				<path id="Rectangle" class="shp0" d="M353.36 318.81L473.28 318.81L473.28 341.23L353.36 341.23L353.36 318.81Z" />
				<path id="Rectangle" class="shp0" d="M373.38 296.39L493.3 296.39L493.3 318.81L373.38 318.81L373.38 296.39Z" />
				<path id="Path" class="shp1" d="M253.24 430.91L373.16 430.91L373.16 453.32L253.24 453.32" />
				<path id="Path" class="shp1" d="M273.26 408.49L393.18 408.49L393.18 430.91L273.26 430.91" />
				<path id="Path" class="shp1" d="M293.29 386.07L413.21 386.07L413.21 408.49L293.29 408.49" />
				<path id="Path" class="shp1" d="M313.31 363.65L433.23 363.65L433.23 386.07L313.31 386.07" />
				<path id="Path" class="shp1" d="M333.34 341.23L453.26 341.23L453.26 363.65L333.34 363.65" />
				<path id="Path" class="shp1" d="M353.36 318.81L473.28 318.81L473.28 341.23" />
				<path id="Path" class="shp1" d="M373.38 296.39L493.3 296.39L493.3 318.81L373.38 318.81" />
				<path id="Path" class="shp1" d="M246.13 453.32L520.3 453.32" />
			</g>
			<g id="Group">
				<path id="Path" class="shp3" d="M567.36 344.52L567.36 439.7L561.08 453.23L604.15 453.23L618.1 319.88L567.36 344.52L567.36 344.52Z" />
				<path id="Path" class="shp0" d="M576.93 205.86L643.79 201.98L643.79 274.46L643.79 453.23L598.59 453.23L604.15 443.27L576.93 205.86L576.93 205.86Z" />
				<path id="Path" class="shp0" d="M580.21 87.05L580.21 95.98C580.21 102.88 584.92 108.89 591.63 110.54L605.84 114.03L605.84 79.12L594.02 76.22C590.7 75.4 587.18 76.16 584.48 78.27C581.78 80.38 580.21 83.62 580.21 87.05L580.21 87.05Z" />
				<path id="Path" class="shp1" d="M580.21 95.98C580.21 102.88 584.92 108.89 591.63 110.54L605.84 114.03" />
				<path id="Oval" class="shp4" d="M594.69 94.2C594.31 94.2 594 93.9 594 93.52C594 93.14 594.31 92.83 594.69 92.83C595.07 92.83 595.37 93.14 595.37 93.52C595.37 93.9 595.07 94.2 594.69 94.2Z" />
				<path id="Oval" class="shp4" d="M584.16 94.2C583.78 94.2 583.48 93.9 583.48 93.52C583.48 93.14 583.78 92.83 584.16 92.83C584.54 92.83 584.85 93.14 584.85 93.52C584.85 93.9 584.54 94.2 584.16 94.2Z" />
				<path id="Path" class="shp1" d="M587.25 97.61L587.25 87.05L581.96 87.05" />
				<path id="Path" class="shp1" d="M595.98 87.05L590.69 87.05" />
				<path id="Path" class="shp1" d="M581.14 85.32L581.14 85.32" />
				<path id="Path" class="shp0" d="M604.15 92.46L604.15 96.12C605.1 96.12 606.01 95.75 606.68 95.07C607.35 94.4 607.73 93.49 607.73 92.54C607.73 92.43 607.73 92.32 607.72 92.22C607.52 89.99 604.15 90.22 604.15 92.46Z" />
				<path id="Path" class="shp1" d="M604.15 96.12C605.1 96.12 606.01 95.75 606.68 95.07C607.35 94.4 607.73 93.49 607.73 92.54" />
				<path id="Path" class="shp5" d="M590.14 98.84C591.07 99.77 592.57 99.77 593.5 98.84" />
				<path id="Path" class="shp6" d="M587.25 97.61L589.56 98.18" />
				<path id="Path" class="shp1" d="M580.72 83.69C580.72 83.69 581.12 77.82 586.43 78.19C591.75 78.55 599.35 78.07 599.96 82.9C600.56 87.73 602.42 91.59 604.15 91.59" />
				<path id="Path" class="shp1" d="M580.21 90.66C580.21 90.66 561.39 56.57 594.69 54.15C627.98 51.73 643.65 95.86 605.94 102.63" />
				<path id="Path" class="shp5" d="M606.73 98.71C606.73 100.13 605.58 101.29 604.15 101.29C602.72 101.29 601.57 100.13 601.57 98.71C601.57 97.28 602.72 96.12 604.15 96.12" />
				<path id="Path" class="shp5" d="M580.21 100.69C579.33 101.42 578.08 101.49 577.13 100.87C576.18 100.24 575.75 99.06 576.08 97.97C576.4 96.87 577.41 96.12 578.55 96.12" />
				<path id="Path" class="shp0" d="M643.79 151.08L643.79 207.04L564.51 226.53L564.51 164.2C564.51 142.1 579.6 122.85 601.06 117.58L601.06 117.58C611.35 115.05 622.24 117.39 630.58 123.93C638.92 130.47 643.79 140.48 643.79 151.08L643.79 151.08Z" />
				<path id="Path" class="shp2" d="M643.79 207.04L564.51 226.53L564.51 349.11L685 330.14L643.79 207.04L643.79 207.04Z" />
				<path id="Path" class="shp1" d="M598.59 453.23L604.15 443.27L588.84 309.71" />
				<path id="Path" class="shp1" d="M632.42 125.49C632.42 125.49 670.27 158.19 645.47 203.92C620.67 249.66 540.79 184.28 539.82 179.12C538.86 173.97 547.23 172.68 554.32 176.55C554.32 176.55 553.35 171.27 557.22 172.78C561.08 174.29 563.02 178.8 563.02 178.8L617.45 181.06L610.36 151.1" />
				<path id="Path" class="shp1" d="M581.14 179.55L557.22 116.57L502.46 131.45L536.28 207.04L566.54 200.91" />
				<path id="Path" class="shp4" d="M575.27 206.17L575.27 206.17C575.27 206.17 605.81 245.79 650.97 228.48L643.64 206.96C628.94 228.83 599.17 219.65 575.27 206.17Z" />
				<path id="Path" class="shp1" d="M580.72 128.23L566.5 141.02" />
				<path id="Path" class="shp1" d="M515.43 160.44C515.43 160.44 506.49 194.02 527.75 208.27C549 222.53 564.51 211.9 564.51 211.9" />
				<path id="Path" class="shp1" d="M419.61 454.32L658.46 454.32" />
				<path id="Rectangle" class="shp4" d="M421.88 350.63L479.68 350.63L479.68 370.9L421.88 370.9L421.88 350.63Z" />
				<path id="Path" class="shp1" d="M525.96 258.39L541.61 254.2" />
				<path id="Path" class="shp1" d="M518.18 239.62L532.22 231.52" />
				<path id="Path" class="shp1" d="M505.81 223.5L517.28 212.04" />
				<path id="Path" class="shp1" d="M489.69 211.13L497.8 197.09" />
			</g>
		</g>
	</g>
</svg>