<svg version="1.2" baseProfile="tiny-ps" xmlns="http://www.w3.org/2000/svg" viewBox="0 0 115 118" width="115" height="118">
	<title>Betacrew_howitworks_web</title>
	<style>
		tspan { white-space:pre }
		.shp0 { fill: #ff6498 } 
	</style>
	<g id="Betacrew_howitworks_web">
		<g id="Group 2941">
			<g id="process">
				<path id="Path 4692" fill-rule="evenodd" class="shp0" d="M48.04 118C40.66 118 34.66 111.84 34.66 104.27C34.66 96.69 40.66 90.53 48.04 90.53C54.77 90.53 60.34 95.66 61.28 102.3L81.67 102.3L79.2 99.77L81.9 96.99L87.64 102.88C88.01 103.26 88.2 103.76 88.2 104.27C88.2 104.77 88.01 105.27 87.64 105.65L81.9 111.54L79.2 108.76L81.67 106.23L61.28 106.23C60.34 112.87 54.77 118 48.04 118ZM38.48 104.27C38.48 109.67 42.77 114.08 48.04 114.08C53.32 114.08 57.61 109.67 57.61 104.27C57.61 98.86 53.32 94.45 48.04 94.45C42.77 94.45 38.48 98.86 38.48 104.27Z" />
				<path id="Path 4693" fill-rule="evenodd" class="shp0" d="M88.2 104.27C88.2 96.69 94.2 90.53 101.58 90.53C108.96 90.53 114.97 96.69 114.97 104.27C114.97 111.84 108.96 118 101.58 118C94.2 118 88.2 111.84 88.2 104.27ZM92.02 104.27C92.02 109.67 96.31 114.08 101.58 114.08C106.85 114.08 111.14 109.67 111.14 104.27C111.14 98.86 106.85 94.45 101.58 94.45C96.31 94.45 92.02 98.86 92.02 104.27Z" />
				<path id="Path 4694" fill-rule="evenodd" class="shp0" d="M40.4 45.4C47.78 45.4 53.78 51.56 53.78 59.14C53.78 66.71 47.78 72.87 40.4 72.87C33.67 72.87 28.1 67.74 27.16 61.1L24.14 61.1C13.07 61.1 4.07 70.34 4.07 81.7C4.07 93.06 13.07 102.3 24.14 102.3L28.13 102.3L25.66 99.77L28.36 96.99L34.1 102.88C34.47 103.26 34.66 103.76 34.66 104.27C34.66 104.77 34.47 105.27 34.1 105.65L28.36 111.54L25.66 108.76L28.13 106.23L24.14 106.23C10.96 106.23 0.24 95.22 0.24 81.7C0.24 68.18 10.96 57.17 24.14 57.17L27.16 57.17C28.1 50.53 33.67 45.4 40.4 45.4ZM49.96 59.14C49.96 53.73 45.67 49.33 40.4 49.33C35.12 49.33 30.84 53.73 30.84 59.14C30.84 64.55 35.12 68.95 40.4 68.95C45.67 68.95 49.96 64.55 49.96 59.14Z" />
				<path id="Path 4695" fill-rule="evenodd" class="shp0" d="M53.22 12.62C53.59 13 53.78 13.51 53.78 14.01C53.78 14.51 53.59 15.01 53.22 15.39L47.48 21.28L44.78 18.51L47.25 15.97L26.86 15.97C25.93 22.61 20.36 27.74 13.63 27.74C6.25 27.74 0.24 21.58 0.24 14.01C0.24 6.43 6.25 0.27 13.63 0.27C20.36 0.27 25.93 5.4 26.86 12.05L47.25 12.05L44.78 9.51L47.48 6.73L53.22 12.62ZM23.19 14.01C23.19 8.6 18.9 4.2 13.63 4.2C8.36 4.2 4.07 8.6 4.07 14.01C4.07 19.42 8.36 23.82 13.63 23.82C18.9 23.82 23.19 19.42 23.19 14.01Z" />
				<path id="Path 4696" fill-rule="evenodd" class="shp0" d="M91.07 61.1L60.31 61.1L62.78 63.64L60.08 66.41L54.34 60.52C53.97 60.14 53.78 59.64 53.78 59.14C53.78 58.63 53.97 58.13 54.34 57.75L60.08 51.86L62.78 54.64L60.31 57.17L91.07 57.17C102.14 57.17 111.14 47.93 111.14 36.57C111.14 25.21 102.14 15.97 91.07 15.97L80.4 15.97C79.47 22.61 73.89 27.74 67.17 27.74C59.79 27.74 53.78 21.58 53.78 14.01C53.78 6.43 59.79 0.27 67.17 0.27C73.89 0.27 79.47 5.4 80.4 12.05L91.07 12.05C104.25 12.05 114.97 23.05 114.97 36.57C114.97 50.1 104.25 61.1 91.07 61.1ZM76.73 14.01C76.73 8.6 72.44 4.2 67.17 4.2C61.89 4.2 57.61 8.6 57.61 14.01C57.61 19.42 61.89 23.82 67.17 23.82C72.44 23.82 76.73 19.42 76.73 14.01Z" />
			</g>
		</g>
	</g>
</svg>