<svg version="1.2" baseProfile="tiny-ps" xmlns="http://www.w3.org/2000/svg" viewBox="0 0 127 107" width="127" height="107">
	<title>Betacrew_howitworks_web</title>
	<style>
		tspan { white-space:pre }
		.shp0 { fill: #ff6498 } 
	</style>
	<g id="Betacrew_howitworks_web">
		<g id="Group 2941">
			<g id="web-programming (1)">
				<path id="Path 4661" class="shp0" d="M50.29 77.6C49.82 77.6 49.34 77.44 48.94 77.13L35.46 66.15C34.99 65.77 34.72 65.22 34.72 64.64C34.72 64.05 34.99 63.5 35.46 63.12L48.94 52.15C49.82 51.43 51.13 51.54 51.88 52.37C52.63 53.21 52.52 54.47 51.64 55.18L40.02 64.64L51.64 74.09C52.52 74.81 52.63 76.06 51.88 76.9C51.47 77.36 50.88 77.6 50.29 77.6Z" />
				<path id="Path 4662" class="shp0" d="M76.92 77.6C76.33 77.6 75.74 77.36 75.33 76.9C74.58 76.06 74.69 74.81 75.57 74.09L87.19 64.64L75.57 55.18C74.69 54.47 74.58 53.21 75.33 52.37C76.08 51.54 77.39 51.43 78.27 52.15L91.75 63.12C92.22 63.5 92.49 64.05 92.49 64.64C92.49 65.22 92.22 65.77 91.75 66.15L78.27 77.13C77.88 77.44 77.39 77.6 76.92 77.6L76.92 77.6Z" />
				<path id="Path 4663" class="shp0" d="M58.83 85.83C58.69 85.83 58.54 85.82 58.4 85.79C57.27 85.56 56.55 84.5 56.79 83.43L65.19 45.3C65.43 44.22 66.54 43.53 67.66 43.76C68.79 43.99 69.51 45.04 69.27 46.12L60.87 84.25C60.66 85.19 59.8 85.83 58.83 85.83Z" />
				<path id="Path 4664" fill-rule="evenodd" class="shp0" d="M112.73 106.61L14.48 106.61C6.76 106.61 0.48 100.61 0.48 93.23L0.48 13.55C0.48 6.18 6.76 0.18 14.48 0.18L112.73 0.18C120.45 0.18 126.73 6.18 126.73 13.55L126.73 93.23C126.73 100.61 120.45 106.61 112.73 106.61ZM14.48 4.17C9.06 4.17 4.65 8.38 4.65 13.55L4.65 93.23C4.65 98.41 9.06 102.62 14.48 102.62L112.73 102.62C118.15 102.62 122.56 98.41 122.56 93.23L122.56 13.55C122.56 8.38 118.15 4.17 112.73 4.17L14.48 4.17Z" />
				<path id="Path 4665" class="shp0" d="M124.64 32.07L2.57 32.07C1.42 32.07 0.48 31.18 0.48 30.08C0.48 28.98 1.42 28.09 2.57 28.09L124.64 28.09C125.79 28.09 126.73 28.98 126.73 30.08C126.73 31.18 125.79 32.07 124.64 32.07Z" />
				<path id="Path 4666" fill-rule="evenodd" class="shp0" d="M36.09 22.54C32.46 22.54 29.5 19.71 29.5 16.24C29.5 12.76 32.46 9.94 36.09 9.94C39.73 9.94 42.69 12.76 42.69 16.24C42.69 19.71 39.73 22.54 36.09 22.54ZM36.09 13.92C34.76 13.92 33.67 14.96 33.67 16.24C33.67 17.52 34.76 18.56 36.09 18.56C37.43 18.56 38.52 17.52 38.52 16.24C38.52 14.96 37.43 13.92 36.09 13.92Z" />
				<path id="Path 4667" fill-rule="evenodd" class="shp0" d="M15.83 22.48C12.19 22.48 9.23 19.65 9.23 16.18C9.23 12.7 12.19 9.88 15.83 9.88C19.47 9.88 22.42 12.7 22.42 16.18C22.42 19.65 19.47 22.48 15.83 22.48ZM15.83 13.86C14.49 13.86 13.4 14.9 13.4 16.18C13.4 17.46 14.49 18.5 15.83 18.5C17.17 18.5 18.26 17.46 18.26 16.18C18.26 14.9 17.17 13.86 15.83 13.86Z" />
				<path id="Path 4668" fill-rule="evenodd" class="shp0" d="M56.36 22.6C52.72 22.6 49.77 19.77 49.77 16.3C49.77 12.83 52.72 10 56.36 10C60 10 62.96 12.83 62.96 16.3C62.96 19.77 60 22.6 56.36 22.6ZM56.36 13.98C55.02 13.98 53.93 15.02 53.93 16.3C53.93 17.58 55.02 18.62 56.36 18.62C57.7 18.62 58.79 17.58 58.79 16.3C58.79 15.02 57.7 13.98 56.36 13.98Z" />
			</g>
		</g>
	</g>
</svg>