<svg version="1.2" baseProfile="tiny-ps" xmlns="http://www.w3.org/2000/svg" viewBox="0 0 103 113" width="103" height="113">
	<title>Betacrew_howitworks_web</title>
	<style>
		tspan { white-space:pre }
		.shp0 { fill: #ff82ac } 
	</style>
	<g id="Betacrew_howitworks_web">
		<g id="Group 2941">
			<g id="support (1)">
				<g id="Group 2873">
					<path id="Path 4702" fill-rule="evenodd" class="shp0" d="M102.62 59.4L102.62 76.73C102.62 82.14 98.88 85.88 92.92 86.3L90.28 90.18C85.07 97.11 76.9 101.17 68.23 101.14C67.84 103.65 66.68 105.98 64.9 107.8C62.27 110.49 58.68 112.03 54.92 112.09C47.31 112.09 41.13 105.97 41.05 98.36C41.1 91.88 45.68 86.32 52.04 85.02C59.47 83.51 66.72 88.3 68.23 95.73C75.15 95.76 81.68 92.52 85.84 86.99L86.12 86.58L82.93 86.58C82.88 86.57 82.83 86.57 82.78 86.57C81.33 86.41 80.28 85.11 80.44 83.66L80.44 49.69C80.44 48.02 81.41 46.36 82.93 46.36L85.98 46.36L85.98 39.57C85.98 20.8 70.77 5.59 52.01 5.59C33.24 5.59 18.03 20.8 18.03 39.57L18.03 46.36L21.08 46.36C22.61 46.36 23.58 48.02 23.58 49.69L23.58 83.66C23.58 83.72 23.59 83.77 23.59 83.82C23.66 85.28 22.54 86.51 21.08 86.58L10.82 86.58C10.77 86.58 10.72 86.58 10.68 86.57C4.63 86.42 -0.15 81.39 0 75.34L0 58.01C0 51.77 4.72 46.36 10.82 46.36L12.48 46.36L12.48 39.57C12.48 17.74 30.18 0.04 52.01 0.04C73.84 0.04 91.53 17.74 91.53 39.57L91.53 46.36L91.81 46.36C98.19 46.36 102.62 53.43 102.62 59.4ZM18.03 51.91L10.82 51.91C7.77 51.91 5.55 54.82 5.55 58.01L5.55 75.34C5.55 75.39 5.55 75.44 5.55 75.49C5.47 78.48 7.83 80.96 10.82 81.03L18.03 81.03L18.03 51.91ZM62.96 98.36C62.96 98.36 62.96 98.36 62.96 98.36C62.96 93.84 59.3 90.18 54.78 90.18C50.26 90.18 46.6 93.85 46.6 98.36C46.75 102.88 50.41 106.48 54.92 106.55C57.19 106.53 59.35 105.58 60.88 103.91C62.32 102.44 63.08 100.42 62.96 98.36ZM97.08 59.4C97.08 56.21 94.86 51.91 91.81 51.91L85.98 51.91L85.98 81.03L91.81 81.03C93.47 81.03 97.08 80.48 97.08 76.73L97.08 59.4Z" />
				</g>
			</g>
		</g>
	</g>
</svg>