<svg version="1.2" baseProfile="tiny-ps" xmlns="http://www.w3.org/2000/svg" viewBox="0 0 108 122" width="108" height="122">
	<title>Betacrew_howitworks_web</title>
	<style>
		tspan { white-space:pre }
		.shp0 { fill: #ff6498 } 
	</style>
	<g id="Betacrew_howitworks_web">
		<g id="Group 2941">
			<g id="training">
				<g id="Group 2874">
					<path id="Path 4710" fill-rule="evenodd" class="shp0" d="M107.35 53.17L107.35 69.65C107.35 70.89 106.53 71.71 105.29 71.71L18.36 71.71C17.95 71.71 17.75 71.71 17.33 71.51L1.68 63.27C1.06 62.85 0.65 62.24 0.65 61.41C0.65 60.59 1.06 59.97 1.68 59.56L17.33 51.32C17.54 51.11 17.95 51.11 18.36 51.11L105.29 51.11C106.53 51.11 107.35 51.94 107.35 53.17ZM7.03 61.41L16.72 66.56L16.72 59.35L20.84 59.35L20.84 67.59L90.87 67.59L90.87 63.47L27.01 63.47L27.01 59.35L90.87 59.35L90.87 55.23L18.78 55.23L7.03 61.41ZM103.23 55.23L94.99 55.23L94.99 67.59L103.23 67.59L103.23 55.23Z" />
					<path id="Path 4711" class="shp0" d="M12.6 18.16C12.6 16.92 13.42 16.1 14.66 16.1L49.67 16.1C50.91 16.1 51.73 16.92 51.73 18.16L51.73 40.81L55.85 40.81L55.85 18.16C55.85 14.65 53.18 11.98 49.67 11.98L14.66 11.98C11.16 11.98 8.48 14.65 8.48 18.16L8.48 40.81L12.6 40.81L12.6 18.16L12.6 18.16Z" />
					<path id="Path 4712" class="shp0" d="M94.99 106.73C94.99 107.96 94.17 108.79 92.93 108.79L57.91 108.79C56.68 108.79 55.85 107.96 55.85 106.73L55.85 79.95L51.73 79.95L51.73 106.73C51.73 110.23 54.41 112.91 57.91 112.91L92.93 112.91C96.43 112.91 99.11 110.23 99.11 106.73L99.11 79.95L94.99 79.95L94.99 106.73Z" />
					<path id="Path 4713" fill-rule="evenodd" class="shp0" d="M20.84 111.47C20.84 117.03 16.3 121.56 10.74 121.56C5.18 121.56 0.65 117.03 0.65 111.47C0.65 106.52 3.95 102.61 8.48 101.58L8.48 75.83L12.6 75.83L12.6 101.58C17.33 102.4 20.84 106.52 20.84 111.47ZM16.72 111.47C16.72 108.17 14.04 105.49 10.74 105.49C7.45 105.49 4.77 108.17 4.77 111.47C4.77 114.76 7.45 117.44 10.74 117.44C14.04 117.44 16.72 114.76 16.72 111.47Z" />
					<path id="Path 4714" fill-rule="evenodd" class="shp0" d="M87.16 10.53C87.16 4.97 91.69 0.44 97.26 0.44C102.82 0.44 107.35 4.97 107.35 10.53C107.35 15.48 103.85 19.6 99.11 20.42L99.11 40.81L94.99 40.81L94.99 20.42C90.46 19.39 87.16 15.27 87.16 10.53ZM91.28 10.53C91.28 13.83 93.96 16.51 97.26 16.51C100.55 16.51 103.23 13.83 103.23 10.53C103.23 7.24 100.55 4.56 97.26 4.56C93.96 4.56 91.28 7.24 91.28 10.53Z" />
				</g>
			</g>
		</g>
	</g>
</svg>