<?xml version="1.0" standalone="no"?>
<!DOCTYPE svg PUBLIC "-//W3C//DTD SVG 20010904//EN"
 "http://www.w3.org/TR/2001/REC-SVG-20010904/DTD/svg10.dtd">
<svg version="1.0" xmlns="http://www.w3.org/2000/svg"
 width="135.000000pt" height="135.000000pt" viewBox="0 0 135.000000 135.000000"
 preserveAspectRatio="xMidYMid meet">
<metadata>
Created by potrace 1.14, written by Peter Selinger 2001-2017
</metadata>
<g transform="translate(0.000000,135.000000) scale(0.100000,-0.100000)"
fill="#000000" stroke="none">
<path d="M314 1187 c-9 -5 -18 -6 -21 -3 -3 3 -12 -1 -20 -9 -8 -8 -20 -18
-26 -22 -7 -5 -22 -21 -34 -38 -19 -28 -20 -45 -21 -233 -1 -111 -4 -207 -7
-212 -3 -6 -3 -10 2 -10 12 0 10 -114 -2 -122 -7 -5 -7 -8 0 -8 6 0 9 -19 7
-45 -3 -38 -2 -44 12 -39 9 3 13 10 10 15 -3 5 -2 9 3 9 4 0 19 16 32 35 13
19 27 33 31 30 3 -2 7 2 7 9 0 15 44 76 55 76 4 0 8 6 8 14 0 8 13 28 29 45
15 16 26 33 23 36 -3 3 1 5 8 5 7 0 11 3 8 6 -3 3 4 16 16 28 40 43 65 76 58
76 -4 0 2 7 12 15 11 8 16 15 12 15 -4 0 -1 6 6 14 33 34 57 66 50 66 -4 0 0
6 9 13 8 7 18 20 22 30 3 9 13 17 22 17 8 0 15 3 15 8 0 11 49 30 91 35 68 8
170 -41 191 -92 18 -43 9 -141 -13 -141 -5 0 -9 -6 -9 -14 0 -8 -7 -22 -16
-30 -8 -9 -13 -16 -9 -16 4 0 0 -7 -7 -15 -29 -32 -37 -43 -32 -47 2 -3 -7
-17 -20 -31 -14 -15 -23 -27 -21 -27 2 0 -11 -26 -30 -57 -19 -32 -35 -66 -35
-75 0 -10 -4 -18 -9 -18 -4 0 -3 -18 2 -39 7 -26 20 -44 36 -53 14 -7 29 -17
33 -23 4 -5 8 -6 8 -1 0 5 7 3 15 -4 9 -7 15 -8 15 -2 0 11 18 11 38 -1 7 -5
12 -3 12 3 0 6 5 8 10 5 6 -3 10 -1 10 5 0 6 5 8 10 5 6 -3 10 1 10 9 0 9 3
16 8 16 4 0 20 20 37 45 16 24 33 41 37 39 4 -3 8 2 8 10 0 8 12 24 26 35 15
12 23 21 18 21 -5 0 0 7 10 15 11 8 17 15 13 15 -7 0 21 36 54 69 27 27 60 80
66 103 5 22 6 40 4 83 -1 11 -1 27 -1 35 0 41 -7 81 -17 91 -6 6 -9 18 -6 25
3 8 0 14 -5 14 -6 0 -13 9 -17 20 -8 25 -94 110 -112 110 -7 0 -13 5 -13 11 0
5 -5 7 -10 4 -5 -3 -10 -2 -10 3 0 8 -40 23 -104 39 -36 9 -576 9 -592 0z"/>
<path d="M708 962 c-37 -3 -46 -11 -108 -102 -43 -63 -58 -79 -65 -72 -5 4 -5
2 -2 -4 8 -14 -37 -77 -47 -66 -4 4 -6 2 -4 -5 3 -11 -108 -175 -124 -181 -4
-2 -8 -10 -8 -18 0 -8 -7 -17 -15 -20 -8 -4 -12 -10 -9 -15 3 -5 0 -9 -6 -9
-6 0 -8 -5 -5 -10 3 -6 1 -10 -5 -10 -6 0 -15 -11 -22 -25 -6 -13 -14 -22 -18
-20 -3 2 -14 -14 -24 -35 -10 -22 -21 -40 -25 -40 -5 0 -8 -23 -7 -50 2 -45 6
-55 39 -84 20 -18 45 -33 54 -34 10 -1 157 -2 328 -2 271 0 332 2 355 10 3 1
8 2 13 1 4 0 7 4 7 10 0 5 4 8 8 5 5 -3 19 4 30 15 12 11 22 16 22 12 0 -4 13
7 29 25 17 17 35 32 41 32 6 0 8 5 5 10 -3 6 -1 10 4 10 6 0 11 7 11 15 0 8 4
15 9 15 9 0 40 86 46 125 1 11 6 28 10 38 4 10 5 21 1 24 -3 3 -1 12 5 20 8 9
8 13 1 13 -6 0 -9 9 -7 20 2 11 0 20 -6 20 -5 0 -8 5 -7 11 5 22 -21 20 -39
-2 -10 -12 -26 -30 -35 -41 -10 -10 -18 -22 -18 -27 0 -5 -4 -11 -8 -13 -5 -1
-35 -34 -67 -73 -33 -38 -63 -71 -67 -73 -4 -2 -8 -10 -8 -18 0 -7 -15 -21
-32 -31 -42 -22 -128 -43 -128 -31 0 5 -4 7 -8 4 -12 -7 -92 15 -92 25 0 5 -5
9 -10 9 -18 0 -51 37 -53 59 -1 11 -5 21 -9 21 -8 0 -3 34 8 52 5 7 3 8 -5 3
-10 -6 -10 -2 0 16 7 13 13 26 14 29 1 10 49 85 59 92 6 4 8 8 3 8 -4 0 17 36
47 80 31 44 53 80 50 80 -3 0 3 12 13 28 11 15 19 34 18 42 -1 8 2 22 6 31 5
9 3 21 -3 27 -7 7 -9 12 -5 12 4 0 -3 11 -15 24 -13 13 -26 21 -30 19 -5 -2
-8 1 -8 8 0 7 -3 9 -6 6 -4 -3 -14 -3 -23 1 -9 4 -33 6 -53 4z"/>
</g>
</svg>
