<?xml version="1.0" standalone="no"?>
<!DOCTYPE svg PUBLIC "-//W3C//DTD SVG 20010904//EN"
 "http://www.w3.org/TR/2001/REC-SVG-20010904/DTD/svg10.dtd">
<svg version="1.0" xmlns="http://www.w3.org/2000/svg"
 width="310.000000pt" height="310.000000pt" viewBox="0 0 310.000000 310.000000"
 preserveAspectRatio="xMidYMid meet">
<metadata>
Created by potrace 1.14, written by Peter Selinger 2001-2017
</metadata>
<g transform="translate(0.000000,310.000000) scale(0.100000,-0.100000)"
fill="#000000" stroke="none">
<path d="M836 2675 c-71 -29 -121 -74 -150 -135 -20 -44 -21 -59 -24 -579 -2
-325 1 -538 6 -543 11 -11 48 36 443 567 144 193 272 362 286 377 38 40 116
69 202 75 67 5 85 2 149 -23 127 -50 182 -116 181 -219 0 -80 -26 -136 -179
-380 -79 -126 -152 -252 -162 -280 -49 -140 5 -228 158 -254 113 -20 108 -25
372 304 128 160 242 308 252 330 25 51 28 250 5 338 -41 160 -154 292 -315
370 -154 75 -174 77 -703 77 l-462 0 -59 -25z"/>
<path d="M1521 2300 c-18 -4 -42 -16 -52 -26 -31 -32 -738 -1017 -755 -1053
-11 -23 -15 -51 -12 -90 5 -76 45 -136 113 -170 l49 -26 551 0 c508 0 554 1
605 18 83 28 162 81 240 160 55 55 76 87 100 145 64 151 87 317 59 403 -26 76
-21 79 -248 -194 -116 -141 -226 -265 -244 -276 -89 -54 -219 -62 -330 -20
-120 46 -174 125 -165 242 7 77 17 98 185 365 74 118 141 233 151 255 25 62
22 154 -5 193 -39 55 -165 93 -242 74z"/>
</g>
</svg>
